<?xml version="1.0" encoding="utf-8"?>
<!-- Generator: Adobe Illustrator 17.0.0, SVG Export Plug-In . SVG Version: 6.00 Build 0)  -->
<!DOCTYPE svg PUBLIC "-//W3C//DTD SVG 1.1//EN" "http://www.w3.org/Graphics/SVG/1.1/DTD/svg11.dtd">
<svg version="1.1" id="Layer_1" xmlns="http://www.w3.org/2000/svg" xmlns:xlink="http://www.w3.org/1999/xlink" x="0px" y="0px"
	 width="813.5px" height="1177.301px" viewBox="0 0 813.5 1177.301" enable-background="new 0 0 813.5 1177.301"
	 xml:space="preserve">
<rect y="-1.75" display="none" stroke="#000000" stroke-miterlimit="10" width="813.5" height="1178.233"/>
<g>
	
		<linearGradient id="SVGID_1_" gradientUnits="userSpaceOnUse" x1="415.4568" y1="1088.124" x2="459.9579" y2="1045.123" gradientTransform="matrix(1 0 0 -1 -391.6602 1111.4436)">
		<stop  offset="0" style="stop-color:#89C350"/>
		<stop  offset="1" style="stop-color:#F0F4FB;stop-opacity:0"/>
	</linearGradient>
	<path fill="url(#SVGID_1_)" d="M1.79,6.33c0-2.76,2.24-5,5-5h33c2.76,0,5,2.24,5,5v33c0,2.76-2.24,5-5,5h-33c-2.76,0-5-2.24-5-5
		C1.79,39.33,1.79,6.33,1.79,6.33z"/>
	<path fill="#FFFFFF" d="M27.94,18.88c-0.78-1.97-2.72-2.15-4.99-1.71l-0.81-2.81l-1.71,0.49l0.79,2.74
		c-0.45,0.13-0.91,0.27-1.36,0.41l-0.79-2.76l-1.71,0.49l0.8,2.81c-0.37,0.11-0.73,0.23-1.08,0.33v-0.01l-2.36,0.68l0.53,1.83
		c0,0,1.26-0.39,1.24-0.36c0.69-0.2,1.03,0.14,1.2,0.47l0.92,3.2c0.05-0.01,0.11-0.03,0.18-0.04l-0.18,0.05l1.29,4.49
		c0.03,0.23,0,0.61-0.48,0.75c0.03,0.01-1.25,0.36-1.25,0.36l0.25,2.14l2.23-0.64c0.41-0.12,0.82-0.23,1.23-0.34l0.82,2.84
		l1.71-0.49l-0.81-2.82c0.46-0.12,0.92-0.25,1.37-0.38l0.8,2.8l1.71-0.49l-0.81-2.84c2.83-0.99,4.64-2.29,4.11-5.07
		c-0.42-2.23-1.72-2.91-3.47-2.84C28.15,21.39,28.51,20.32,27.94,18.88L27.94,18.88z M27.29,25.65c0.61,2.13-3.1,2.93-4.26,3.26
		l-1.08-3.77C23.11,24.81,26.65,23.43,27.29,25.65L27.29,25.65z M24.97,20.56c0.55,1.93-2.55,2.58-3.51,2.86L20.48,20
		C21.44,19.72,24.39,18.54,24.97,20.56L24.97,20.56z"/>
</g>
<g>
	
		<linearGradient id="SVGID_2_" gradientUnits="userSpaceOnUse" x1="469.2856" y1="1088.2068" x2="514.2856" y2="1045.707" gradientTransform="matrix(1 0 0 -1 -391.6602 1111.4436)">
		<stop  offset="0" style="stop-color:#677ABB"/>
		<stop  offset="1" style="stop-color:#F0F4FB;stop-opacity:0"/>
	</linearGradient>
	<path fill="url(#SVGID_2_)" d="M55.61,6.25c0-2.76,2.24-5,5-5h33c2.76,0,5,2.24,5,5v33c0,2.76-2.24,5-5,5h-33c-2.76,0-5-2.24-5-5
		V6.25z"/>
	<path fill="#FFFFFF" fill-opacity="0.602" d="M78.11,11.25v8.87l7.5,3.35L78.11,11.25z"/>
	<path fill="#FFFFFF" d="M78.11,11.25l-7.5,12.22l7.5-3.35V11.25z"/>
	<path fill="#FFFFFF" fill-opacity="0.602" d="M78.11,29.22v6.03l7.5-10.38L78.11,29.22z"/>
	<path fill="#FFFFFF" d="M78.11,35.24v-6.03l-7.5-4.35L78.11,35.24z"/>
	<path fill="#FFFFFF" fill-opacity="0.2" d="M78.11,27.82l7.5-4.35l-7.5-3.35V27.82z"/>
	<path fill="#FFFFFF" fill-opacity="0.602" d="M70.61,23.47l7.5,4.35v-7.7L70.61,23.47z"/>
</g>
<g>
	
		<linearGradient id="SVGID_3_" gradientUnits="userSpaceOnUse" x1="523.0928" y1="1088.3109" x2="572.0936" y2="1038.3101" gradientTransform="matrix(1 0 0 -1 -391.6602 1111.4436)">
		<stop  offset="0" style="stop-color:#F7941F"/>
		<stop  offset="1" style="stop-color:#F0F4FB;stop-opacity:0"/>
	</linearGradient>
	<path fill="url(#SVGID_3_)" d="M109.44,6.13c0-2.76,2.24-5,5-5h33c2.76,0,5,2.24,5,5v33c0,2.76-2.24,5-5,5h-33c-2.76,0-5-2.24-5-5
		V6.13z"/>
	<path fill="#FFFFFF" d="M137.63,21.15c0.31-2.1-1.28-3.22-3.46-3.98l0.71-2.84l-1.73-0.43l-0.69,2.77
		c-0.45-0.11-0.92-0.22-1.39-0.33l0.7-2.78l-1.73-0.43l-0.71,2.84c-0.38-0.09-0.75-0.17-1.1-0.26V15.7l-2.38-0.59l-0.46,1.85
		c0,0,1.28,0.29,1.26,0.31c0.7,0.18,0.83,0.64,0.81,1.01l-0.81,3.24c0.05,0.01,0.11,0.03,0.18,0.06l-0.18-0.05l-1.13,4.53
		c-0.09,0.21-0.3,0.53-0.79,0.41c0.02,0.03-1.26-0.31-1.26-0.31l-0.86,1.98l2.25,0.56c0.42,0.1,0.83,0.21,1.23,0.32l-0.71,2.87
		l1.73,0.43l0.71-2.84c0.47,0.13,0.93,0.25,1.38,0.36l-0.71,2.83l1.73,0.43l0.72-2.87c2.95,0.56,5.16,0.33,6.1-2.33
		c0.75-2.15-0.04-3.39-1.59-4.19C136.55,23.42,137.4,22.68,137.63,21.15z M133.68,26.68c-0.53,2.15-4.15,0.99-5.32,0.69l0.95-3.81
		C130.48,23.87,134.24,24.44,133.68,26.68z M134.21,21.11c-0.49,1.95-3.49,0.96-4.47,0.72l0.86-3.45
		C131.58,18.62,134.72,19.08,134.21,21.11z"/>
</g>
<g>
	
		<linearGradient id="SVGID_4_" gradientUnits="userSpaceOnUse" x1="576.9487" y1="1088.2155" x2="621.9484" y2="1046.7157" gradientTransform="matrix(1 0 0 -1 -391.6602 1111.4436)">
		<stop  offset="0" style="stop-color:#010101"/>
		<stop  offset="1" style="stop-color:#F0F4FB;stop-opacity:0"/>
	</linearGradient>
	<path fill="url(#SVGID_4_)" d="M163.27,6.25c0-2.76,2.24-5,5-5h33c2.76,0,5,2.24,5,5v33c0,2.76-2.24,5-5,5h-33c-2.76,0-5-2.24-5-5
		V6.25z"/>
	<path fill="#FFFFFF" d="M191.4,16.54l-2.4,1.22l-11.6,5.91c-0.17-1.27,0.03-2.56,0.55-3.73c0.53-1.17,1.36-2.17,2.42-2.88
		c1.06-0.72,2.3-1.13,3.58-1.18s2.55,0.25,3.67,0.87l1.37-0.7l0.21-0.11c-1.3-0.95-2.85-1.5-4.46-1.59
		c-1.61-0.1-3.21,0.27-4.62,1.06c-1.41,0.79-2.56,1.96-3.32,3.38c-0.76,1.42-1.1,3.03-0.98,4.63c0.02,0.3-0.04,0.6-0.19,0.87
		c-0.15,0.26-0.37,0.48-0.64,0.62l-0.73,0.37V27l2.13-1.09l0.69-0.35l0.68-0.35L190,18.97l1.37-0.7l2.84-1.45V15.1L191.4,16.54z
		 M194.21,18.55l-15.74,8.02l-1.37,0.7l-2.83,1.44v1.72l2.81-1.43l2.4-1.22l11.61-5.92c0.17,1.27-0.02,2.56-0.55,3.73
		s-1.37,2.17-2.43,2.89s-2.3,1.13-3.58,1.18c-1.28,0.05-2.55-0.25-3.67-0.88l-0.09,0.05l-1.49,0.76c1.3,0.95,2.85,1.5,4.46,1.6
		s3.21-0.27,4.62-1.06c1.41-0.79,2.56-1.96,3.32-3.38c0.76-1.42,1.1-3.03,0.98-4.63c-0.02-0.3,0.04-0.6,0.19-0.87
		c0.15-0.26,0.37-0.48,0.64-0.62l0.73-0.37L194.21,18.55L194.21,18.55z"/>
</g>
<g>
	
		<linearGradient id="SVGID_5_" gradientUnits="userSpaceOnUse" x1="630.7673" y1="1088.2091" x2="675.7665" y2="1045.2098" gradientTransform="matrix(1 0 0 -1 -391.6602 1111.4436)">
		<stop  offset="0" style="stop-color:#7BC142"/>
		<stop  offset="1" style="stop-color:#F0F4FB;stop-opacity:0"/>
	</linearGradient>
	<path fill="url(#SVGID_5_)" d="M217.1,6.25c0-2.76,2.24-5,5-5h33c2.76,0,5,2.24,5,5v33c0,2.76-2.24,5-5,5h-33c-2.76,0-5-2.24-5-5
		V6.25z"/>
	<path fill="#FFFFFF" d="M244.6,26.4c0,2.57-2.09,4.28-5.17,4.53v2.31h-2.11V30.9c-2.08-0.23-4.06-1.04-5.72-2.31l1.55-2.13
		c1.38,1.07,2.69,1.78,4.27,2.01V23.9c-3.54-0.89-5.19-2.17-5.19-4.81c0-2.52,2.06-4.25,5.09-4.49v-1.35h2.11v1.4
		c1.65,0.18,3.22,0.8,4.56,1.78l-1.36,2.2c-1.07-0.77-2.16-1.26-3.3-1.5v4.44C243.02,22.46,244.6,23.88,244.6,26.4z M237.42,21.08
		v-4.11c-1.53,0.12-2.33,0.93-2.33,1.96C235.09,19.91,235.55,20.54,237.42,21.08L237.42,21.08z M241.73,26.57
		c0-1.05-0.51-1.68-2.4-2.22v4.23C240.86,28.46,241.73,27.69,241.73,26.57L241.73,26.57z"/>
</g>
<g>
	
		<linearGradient id="SVGID_6_" gradientUnits="userSpaceOnUse" x1="684.6038" y1="1088.3412" x2="730.6028" y2="1046.8423" gradientTransform="matrix(1 0 0 -1 -391.6602 1111.4436)">
		<stop  offset="0" style="stop-color:#7178BA"/>
		<stop  offset="1" style="stop-color:#F0F4FB;stop-opacity:0"/>
	</linearGradient>
	<path fill="url(#SVGID_6_)" d="M270.92,6.13c0-2.76,2.24-5,5-5h33c2.76,0,5,2.24,5,5v33c0,2.76-2.24,5-5,5h-33c-2.76,0-5-2.24-5-5
		V6.13z"/>
	<path fill="#FFFFFF" d="M289.69,13.63h4.46c0.15,0,0.31,0.04,0.44,0.12s0.24,0.19,0.32,0.32l6.91,12.32
		c0.07,0.13,0.11,0.28,0.11,0.42s-0.04,0.3-0.11,0.43l-2.21,3.94c-0.08,0.13-0.19,0.25-0.32,0.33s-0.28,0.12-0.44,0.12H285
		c-0.15,0-0.31-0.04-0.44-0.12s-0.24-0.19-0.32-0.33l-2.21-3.94c-0.07-0.13-0.11-0.28-0.11-0.43s0.04-0.3,0.11-0.42l6.91-12.32
		c0.08-0.13,0.19-0.25,0.32-0.32C289.39,13.67,289.54,13.62,289.69,13.63z M291.92,18.53l-4.65,8.29h9.31L291.92,18.53z"/>
</g>
<g>
	
		<linearGradient id="SVGID_7_" gradientUnits="userSpaceOnUse" x1="738.405" y1="1088.3135" x2="784.9046" y2="1041.3137" gradientTransform="matrix(1 0 0 -1 -391.6602 1111.4436)">
		<stop  offset="0" style="stop-color:#359BD6"/>
		<stop  offset="1" style="stop-color:#F0F4FB;stop-opacity:0"/>
	</linearGradient>
	<path fill="url(#SVGID_7_)" d="M324.75,6.13c0-2.76,2.24-5,5-5h33c2.76,0,5,2.24,5,5v33c0,2.76-2.24,5-5,5h-33c-2.76,0-5-2.24-5-5
		V6.13z"/>
	<path fill="#FFFFFF" d="M349.8,12.73c0.392,0,0.71,0.12,0.95,0.36c0.24,0.24,0.36,0.55,0.36,0.95v11.67c0,1.33-0.32,2.54-0.95,3.64
		c-0.602,1.06-1.48,1.95-2.53,2.56c-1.06,0.61-2.24,0.92-3.56,0.92c-1.312,0-2.521-0.31-3.61-0.92c-1.06-0.61-1.93-1.5-2.53-2.56
		c-0.608-1.09-0.92-2.3-0.92-3.64c0-1.33,0.28-2.53,0.852-3.61c0.58-1.09,1.358-1.95,2.35-2.56c1.01-0.61,2.13-0.92,3.35-0.92
		c0.95-0.01,1.882,0.2,2.74,0.6c0.86,0.4,1.61,0.99,2.21,1.73v-6.91c0-0.39,0.12-0.71,0.36-0.95
		C349.11,12.85,349.45,12.72,349.8,12.73z M344.07,30.52c0.85,0,1.62-0.2,2.3-0.61c0.688-0.42,1.26-1.02,1.64-1.74
		c0.392-0.74,0.59-1.55,0.59-2.46c0-0.9-0.198-1.72-0.59-2.43c-0.37-0.71-0.938-1.312-1.64-1.72c-0.68-0.43-1.45-0.64-2.3-0.64
		c-0.852,0-1.63,0.21-2.33,0.64c-0.69,0.42-1.25,1.01-1.642,1.72c-0.39,0.72-0.59,1.53-0.59,2.43s0.2,1.72,0.59,2.46
		c0.392,0.71,0.95,1.31,1.642,1.74C342.44,30.32,343.22,30.52,344.07,30.52L344.07,30.52z"/>
</g>
<g>
	
		<linearGradient id="SVGID_8_" gradientUnits="userSpaceOnUse" x1="742.8121" y1="-630.6005" x2="788.8132" y2="-584.5995" gradientTransform="matrix(1 0 0 1 -341.6602 653.6428)">
		<stop  offset="0" style="stop-color:#6679BA"/>
		<stop  offset="1" style="stop-color:#EFF3FA;stop-opacity:0"/>
	</linearGradient>
	<path fill="url(#SVGID_8_)" d="M379.15,6.04c0-2.76,2.238-5,5-5h33c2.76,0,5,2.24,5,5v33c0,2.76-2.24,5-5,5h-33
		c-2.762,0-5-2.24-5-5V6.04z"/>
	<path fill="#F9FCFF" d="M393.64,25.91h2.24c0.93,3.9,4.24,5.88,8.771,5.88c0.898,0,1.85-0.07,2.448-0.21v-2.85
		c-0.59,0.12-1.56,0.16-2.318,0.16c-2.642,0-4.54-0.97-5.312-2.99h6.32v-1.35h-6.64c-0.052-0.3-0.062-0.62-0.062-0.97v-0.01
		c0-0.32,0.01-0.62,0.05-0.91h6.66v-1.35h-6.34c0.771-2.04,2.67-3.06,5.25-3.06c0.83,0,1.73,0.08,2.36,0.21v-2.82
		c-0.61-0.18-1.63-0.27-2.48-0.27c-4.479,0-7.8,2.02-8.7,5.94h-2.229v1.35h2.028c-0.02,0.29-0.038,0.6-0.038,0.9v0.01
		c0,0.34,0.01,0.67,0.038,0.98h-2.028v1.36C393.658,25.91,393.64,25.91,393.64,25.91z"/>
</g>
<g>
	
		<linearGradient id="SVGID_9_" gradientUnits="userSpaceOnUse" x1="797.1625" y1="-630.6057" x2="845.1613" y2="-583.1068" gradientTransform="matrix(1 0 0 1 -341.6602 653.6428)">
		<stop  offset="0" style="stop-color:#F6921E"/>
		<stop  offset="1" style="stop-color:#EFF3FA;stop-opacity:0"/>
	</linearGradient>
	<path fill="url(#SVGID_9_)" d="M433.5,6.04c0-2.76,2.24-5,5-5h33c2.76,0,5,2.24,5,5v33c0,2.76-2.24,5-5,5h-33c-2.76,0-5-2.24-5-5
		V6.04z"/>
	<path fill="#F9FCFF" d="M448.05,31.69h13v-2.82h-8.34v-0.13c1.25-0.74,1.9-1.84,1.9-3.29c0-0.36-0.04-0.7-0.11-1.03h4.69v-1.73
		h-5.21c-0.222-0.64-0.41-1.28-0.41-1.98c0-1.64,1.25-2.57,3.47-2.57c1.24,0,2.53,0.25,3.28,0.57V16
		c-0.86-0.36-2.312-0.62-3.79-0.62c-3.972,0-6.42,1.86-6.42,4.9c0,0.87,0.229,1.64,0.488,2.4h-2.54v1.73h3.08
		c0.09,0.39,0.15,0.77,0.15,1.18c0,1.83-1.17,3.04-3.23,3.45v2.65H448.05z"/>
</g>
<path fill="#FAFCFE" d="M33.177,420.728c0.598-3.991-2.444-6.139-6.6-7.57l1.349-5.41l-3.292-0.819l-1.314,5.269
	c-0.865-0.219-1.752-0.419-2.638-0.621l1.324-5.301l-3.292-0.821l-1.349,5.408c-0.716-0.164-1.421-0.324-2.103-0.495l0.004-0.019
	l-4.541-1.133l-0.876,3.518c0,0,2.444,0.56,2.393,0.594c1.333,0.333,1.573,1.215,1.533,1.916l-1.535,6.162
	c0.091,0.021,0.21,0.057,0.343,0.107l-0.349-0.086l-2.152,8.633c-0.164,0.404-0.577,1.013-1.511,0.781
	c0.034,0.048-2.392-0.596-2.392-0.596l-1.634,3.768l4.286,1.069c0.796,0.2,1.577,0.41,2.345,0.604l-1.362,5.473l3.29,0.817
	l1.349-5.408c0.899,0.24,1.772,0.467,2.625,0.68l-1.345,5.387l3.292,0.819l1.362-5.459c5.616,1.063,9.837,0.634,11.614-4.444
	c1.432-4.088-0.07-6.448-3.025-7.985C31.125,425.068,32.744,423.652,33.177,420.728z M25.653,431.277
	c-1.015,4.09-7.901,1.878-10.134,1.322l1.81-7.247C19.561,425.911,26.717,427.014,25.653,431.277z M26.672,420.669
	c-0.928,3.72-6.657,1.829-8.515,1.366l1.638-6.572C21.652,415.926,27.639,416.789,26.672,420.669z"/>
<g>
	<path fill="#FAFCFE" d="M67.353,405.451v14.044l11.875,5.304L67.353,405.451z"/>
	<path fill="#FAFCFE" d="M67.353,405.451l-11.875,19.348l11.875-5.304V405.451z"/>
	<path fill="#FAFCFE" d="M67.353,433.904v9.548l11.875-16.437L67.353,433.904z"/>
	<path fill="#FAFCFE" d="M67.353,443.436v-9.548l-11.875-6.887L67.353,443.436z"/>
	<path fill="#FAFCFE" d="M67.353,431.688l11.875-6.888l-11.875-5.304V431.688z"/>
	<path fill="#FAFCFE" d="M55.478,424.799l11.875,6.887v-12.189L55.478,424.799z"/>
</g>
<g>
	<path fill="#FAFCFE" d="M124.899,431.364c0,4.886-3.973,8.136-9.828,8.609v4.393h-4.011v-4.448
		c-3.954-0.438-7.717-1.977-10.874-4.391l2.947-4.05c2.623,2.034,5.114,3.386,8.117,3.821v-8.687
		c-6.729-1.692-9.866-4.125-9.866-9.146c0-4.79,3.916-8.079,9.676-8.535v-2.564h4.011v2.662c3.137,0.342,6.121,1.521,8.669,3.384
		l-2.585,4.182c-2.034-1.464-4.106-2.395-6.273-2.851v8.438C121.896,423.873,124.899,426.572,124.899,431.364z M111.25,421.25
		v-7.813c-2.909,0.228-4.429,1.768-4.429,3.726C106.821,419.026,107.696,420.223,111.25,421.25L111.25,421.25z M119.444,431.686
		c0-1.994-0.97-3.192-4.562-4.22v8.041C117.789,435.279,119.444,433.816,119.444,431.686L119.444,431.686z"/>
</g>
<path fill="#FAFCFE" d="M39.686,788.879c0.787-5.254-3.216-8.078-8.684-9.963l1.775-7.119l-4.331-1.078l-1.729,6.933
	c-1.138-0.287-2.305-0.554-3.471-0.818l1.742-6.975l-4.331-1.08l-1.775,7.116c-0.942-0.217-1.87-0.428-2.767-0.651l0.005-0.021
	l-5.975-1.489l-1.153,4.625c0,0,3.216,0.735,3.149,0.78c1.754,0.439,2.07,1.601,2.017,2.521l-2.02,8.106
	c0.12,0.031,0.276,0.076,0.451,0.146l-0.459-0.113l-2.832,11.359c-0.216,0.531-0.759,1.33-1.988,1.026
	c0.045,0.063-3.147-0.782-3.147-0.782l-2.15,4.957l5.639,1.405c1.047,0.265,2.075,0.539,3.085,0.797l-1.792,7.197l4.329,1.078
	l1.775-7.117c1.183,0.318,2.332,0.613,3.454,0.896l-1.77,7.088l4.331,1.078l1.792-7.185c7.389,1.4,12.943,0.834,15.281-5.846
	c1.884-5.379-0.092-8.484-3.98-10.506C36.986,794.588,39.116,792.725,39.686,788.879z M29.786,802.758
	c-1.335,5.381-10.396,2.474-13.334,1.742l2.382-9.537C21.77,795.698,31.186,797.149,29.786,802.758z M31.127,788.801
	c-1.221,4.896-8.759,2.406-11.204,1.797l2.155-8.646C24.521,782.559,32.399,783.696,31.127,788.801z"/>
<g>
	<path fill="#FAFCFE" d="M73.02,768.778v18.479l15.625,6.979L73.02,768.778z"/>
	<path fill="#FAFCFE" d="M73.02,768.778l-15.625,25.457l15.625-6.979V768.778z"/>
	<path fill="#FAFCFE" d="M73.02,806.215v12.563l15.625-21.623L73.02,806.215z"/>
	<path fill="#FAFCFE" d="M73.02,818.756v-12.563l-15.625-9.063L73.02,818.756z"/>
	<path fill="#FAFCFE" d="M73.02,803.297l15.625-9.061l-15.625-6.98V803.297z"/>
	<path fill="#FAFCFE" d="M57.395,794.235l15.625,9.063v-16.041L57.395,794.235z"/>
</g>
<g>
	<path fill="#FAFCFE" d="M139.802,802.584c0,6.43-5.228,10.707-12.932,11.332v5.777h-5.278v-5.854
		c-5.203-0.576-10.154-2.6-14.309-5.777l3.878-5.325c3.451,2.676,6.729,4.453,10.681,5.026v-11.432
		c-8.854-2.226-12.982-5.428-12.982-12.031c0-6.303,5.153-10.631,12.732-11.229v-3.377h5.278v3.502
		c4.128,0.45,8.054,2.002,11.407,4.453l-3.402,5.504c-2.676-1.929-5.403-3.152-8.254-3.752v11.104
		C135.85,792.727,139.802,796.28,139.802,802.584z M121.842,789.276v-10.281c-3.828,0.301-5.828,2.326-5.828,4.904
		C116.014,786.348,117.165,787.924,121.842,789.276L121.842,789.276z M132.624,803.008c0-2.627-1.276-4.203-6.003-5.553v10.58
		C130.446,807.737,132.624,805.811,132.624,803.008L132.624,803.008z"/>
</g>
<defs>
	<filter id="Adobe_OpacityMaskFilter" filterUnits="userSpaceOnUse" x="4" y="1102.672" width="69.26" height="72.812">
		<feColorMatrix  type="matrix" values="1 0 0 0 0  0 1 0 0 0  0 0 1 0 0  0 0 0 1 0"/>
	</filter>
</defs>
<mask maskUnits="userSpaceOnUse" x="4" y="1102.672" width="69.26" height="72.812" id="mask0_1_">
	<path fill="#C4C4C4" filter="url(#Adobe_OpacityMaskFilter)" d="M39.648,1110.821L39.648,1110.821c15.188,0,27.5,12.312,27.5,27.5
		l0,0c0,15.188-12.313,27.5-27.5,27.5l0,0c-15.188,0-27.5-12.313-27.5-27.5l0,0C12.148,1123.132,24.461,1110.821,39.648,1110.821z"
		/>
</mask>
<g mask="url(#mask0_1_)">
	<rect x="4" y="1102.672" fill="none" width="69.26" height="72.812"/>
	<circle fill="#1AB16D" cx="40.148" cy="1137.821" r="23"/>
	<path fill="#FAFCFE" d="M26.381,1142.627h3.357c1.389,5.854,6.363,8.824,13.148,8.824c1.354,0,2.777-0.105,3.674-0.316v-4.271
		c-0.879,0.176-2.338,0.245-3.48,0.245c-3.955,0-6.803-1.459-7.963-4.481h9.475v-2.021h-9.967c-0.07-0.457-0.088-0.932-0.088-1.459
		v-0.018c0-0.475,0.018-0.932,0.07-1.371h9.984v-2.021h-9.51c1.16-3.06,4.008-4.588,7.875-4.588c1.248,0,2.602,0.123,3.533,0.315
		v-4.235c-0.914-0.265-2.443-0.404-3.727-0.404c-6.715,0-11.707,3.022-13.043,8.912h-3.34v2.021h3.041
		c-0.035,0.439-0.053,0.896-0.053,1.354v0.018c0,0.51,0.018,1.002,0.053,1.477h-3.041v2.02L26.381,1142.627L26.381,1142.627z"/>
</g>
<g>
	<circle fill="#1AB16D" cx="105.783" cy="1137.82" r="23"/>
	<g>
		<path fill="#FAFCFE" d="M116.373,1142.96c0,4.188-3.404,6.973-8.424,7.381v3.762h-3.437v-3.811
			c-3.388-0.375-6.614-1.695-9.319-3.765l2.526-3.471c2.248,1.744,4.383,2.902,6.957,3.275v-7.443
			c-5.768-1.451-8.457-3.537-8.457-7.838c0-4.104,3.356-6.925,8.293-7.313v-2.2h3.437v2.282c2.689,0.293,5.246,1.304,7.432,2.899
			l-2.217,3.584c-1.742-1.256-3.52-2.053-5.377-2.443v7.232C113.799,1136.541,116.373,1138.854,116.373,1142.96z M104.676,1134.292
			v-6.695c-2.494,0.193-3.796,1.517-3.796,3.192C100.879,1132.386,101.629,1133.414,104.676,1134.292L104.676,1134.292z
			 M111.697,1143.238c0-1.711-0.83-2.738-3.91-3.617v6.891C110.279,1146.318,111.697,1145.064,111.697,1143.238L111.697,1143.238z"
			/>
	</g>
</g>
<g>
	<g>
		<path fill="#FAFCFE" d="M38.443,1079.94h-4.534l2.833-17.414h4.534L38.443,1079.94z M30.095,1062.526l-4.323,11.977l-0.511-2.579
			v0.002l-1.525-7.832c0,0-0.184-1.567-2.151-1.567H14.44l-0.084,0.295c0,0,2.185,0.454,4.742,1.99l3.939,15.129h4.724l7.212-17.414
			h-4.878V1062.526z M65.755,1079.94h4.163l-3.629-17.414h-3.645c-1.683,0-2.093,1.297-2.093,1.297l-6.762,16.117h4.726l0.945-2.587
			h5.763L65.755,1079.94z M60.766,1073.78l2.382-6.517l1.34,6.517H60.766z M54.144,1066.714l0.647-3.74c0,0-1.997-0.759-4.078-0.759
			c-2.25,0-7.592,0.983-7.592,5.765c0,4.499,6.271,4.556,6.271,6.918s-5.625,1.939-7.481,0.449l-0.674,3.91
			c0,0,2.024,0.983,5.118,0.983s7.761-1.602,7.761-5.962c0-4.527-6.327-4.949-6.327-6.918
			C47.788,1065.392,52.204,1065.645,54.144,1066.714L54.144,1066.714z"/>
	</g>
</g>
<title>Tekengebied 1</title>
<g>
	<path fill="#C0CFF8" d="M115.722,1083.636h-12.698v-22.817h12.698V1083.636z"/>
	<path fill="#819EF1" d="M103.831,1072.229c0-4.627,2.167-8.751,5.542-11.41c-2.555-2.012-5.713-3.105-8.967-3.103
		c-8.014,0-14.51,6.499-14.51,14.513c0,8.012,6.497,14.512,14.51,14.512c3.253,0.004,6.412-1.089,8.967-3.104
		C105.998,1080.982,103.831,1076.858,103.831,1072.229"/>
	<path fill="#BDCDF8" d="M132.851,1072.229c0,8.012-6.497,14.512-14.51,14.512c-3.254,0.004-6.414-1.089-8.968-3.104
		c3.375-2.658,5.542-6.778,5.542-11.408c0-4.627-2.167-8.751-5.542-11.41c2.554-2.012,5.714-3.105,8.968-3.103
		C126.354,1057.716,132.851,1064.215,132.851,1072.229"/>
</g>
</svg>
