<?xml version="1.0" encoding="utf-8"?>
<!-- Generator: Adobe Illustrator 17.0.0, SVG Export Plug-In . SVG Version: 6.00 Build 0)  -->
<!DOCTYPE svg PUBLIC "-//W3C//DTD SVG 1.1//EN" "http://www.w3.org/Graphics/SVG/1.1/DTD/svg11.dtd">
<svg version="1.1" id="Layer_1" xmlns="http://www.w3.org/2000/svg" xmlns:xlink="http://www.w3.org/1999/xlink" x="0px" y="0px"
	 width="813.5px" height="813.5px" viewBox="0 0 813.5 813.5" enable-background="new 0 0 813.5 813.5" xml:space="preserve">
<g>
	
		<linearGradient id="SVGID_1_" gradientUnits="userSpaceOnUse" x1="165.4548" y1="745.2777" x2="209.9548" y2="788.2777" gradientTransform="matrix(1 0 0 1 -141.66 -721.96)">
		<stop  offset="0" style="stop-color:#89C350"/>
		<stop  offset="1" style="stop-color:#F0F4FB;stop-opacity:0"/>
	</linearGradient>
	<path fill="url(#SVGID_1_)" d="M1.79,6.33c0-2.76,2.24-5,5-5h33c2.76,0,5,2.24,5,5v33c0,2.76-2.24,5-5,5h-33c-2.76,0-5-2.24-5-5
		C1.79,39.33,1.79,6.33,1.79,6.33z"/>
	<path fill="#FFFFFF" d="M27.94,18.88c-0.78-1.97-2.72-2.15-4.99-1.71l-0.81-2.81l-1.71,0.49l0.79,2.74
		c-0.45,0.13-0.91,0.27-1.36,0.41l-0.79-2.76l-1.71,0.49l0.8,2.81c-0.37,0.11-0.73,0.23-1.08,0.33v-0.01l-2.36,0.68l0.53,1.83
		c0,0,1.26-0.39,1.24-0.36c0.69-0.2,1.03,0.14,1.2,0.47l0.92,3.2c0.05-0.01,0.11-0.03,0.18-0.04l-0.18,0.05l1.29,4.49
		c0.03,0.23,0,0.61-0.48,0.75c0.03,0.01-1.25,0.36-1.25,0.36l0.25,2.14l2.23-0.64c0.41-0.12,0.82-0.23,1.23-0.34l0.82,2.84
		l1.71-0.49l-0.81-2.82c0.46-0.12,0.92-0.25,1.37-0.38l0.8,2.8l1.71-0.49l-0.81-2.84c2.83-0.99,4.64-2.29,4.11-5.07
		c-0.42-2.23-1.72-2.91-3.47-2.84C28.15,21.39,28.51,20.32,27.94,18.88L27.94,18.88z M27.29,25.65c0.61,2.13-3.1,2.93-4.26,3.26
		l-1.08-3.77C23.11,24.81,26.65,23.43,27.29,25.65L27.29,25.65z M24.97,20.56c0.55,1.93-2.55,2.58-3.51,2.86L20.48,20
		C21.44,19.72,24.39,18.54,24.97,20.56L24.97,20.56z"/>
</g>
<g>
	
		<linearGradient id="SVGID_2_" gradientUnits="userSpaceOnUse" x1="219.2857" y1="745.197" x2="264.2857" y2="787.697" gradientTransform="matrix(1 0 0 1 -141.66 -721.96)">
		<stop  offset="0" style="stop-color:#677ABB"/>
		<stop  offset="1" style="stop-color:#F0F4FB;stop-opacity:0"/>
	</linearGradient>
	<path fill="url(#SVGID_2_)" d="M55.61,6.25c0-2.76,2.24-5,5-5h33c2.76,0,5,2.24,5,5v33c0,2.76-2.24,5-5,5h-33c-2.76,0-5-2.24-5-5
		V6.25z"/>
	<path fill="#FFFFFF" fill-opacity="0.602" d="M78.11,11.25v8.87l7.5,3.35L78.11,11.25z"/>
	<path fill="#FFFFFF" d="M78.11,11.25l-7.5,12.22l7.5-3.35V11.25z"/>
	<path fill="#FFFFFF" fill-opacity="0.602" d="M78.11,29.22v6.03l7.5-10.38L78.11,29.22z"/>
	<path fill="#FFFFFF" d="M78.11,35.24v-6.03l-7.5-4.35L78.11,35.24z"/>
	<path fill="#FFFFFF" fill-opacity="0.2" d="M78.11,27.82l7.5-4.35l-7.5-3.35V27.82z"/>
	<path fill="#FFFFFF" fill-opacity="0.602" d="M70.61,23.47l7.5,4.35v-7.7L70.61,23.47z"/>
</g>
<g>
	
		<linearGradient id="SVGID_3_" gradientUnits="userSpaceOnUse" x1="273.0928" y1="745.0928" x2="322.0928" y2="795.0928" gradientTransform="matrix(1 0 0 1 -141.66 -721.96)">
		<stop  offset="0" style="stop-color:#F7941F"/>
		<stop  offset="1" style="stop-color:#F0F4FB;stop-opacity:0"/>
	</linearGradient>
	<path fill="url(#SVGID_3_)" d="M109.44,6.13c0-2.76,2.24-5,5-5h33c2.76,0,5,2.24,5,5v33c0,2.76-2.24,5-5,5h-33c-2.76,0-5-2.24-5-5
		V6.13z"/>
	<path fill="#FFFFFF" d="M137.63,21.15c0.31-2.1-1.28-3.22-3.46-3.98l0.71-2.84l-1.73-0.43l-0.69,2.77
		c-0.45-0.11-0.92-0.22-1.39-0.33l0.7-2.78l-1.73-0.43l-0.71,2.84c-0.38-0.09-0.75-0.17-1.1-0.26V15.7l-2.38-0.59l-0.46,1.85
		c0,0,1.28,0.29,1.26,0.31c0.7,0.18,0.83,0.64,0.81,1.01l-0.81,3.24c0.05,0.01,0.11,0.03,0.18,0.06l-0.18-0.05l-1.13,4.53
		c-0.09,0.21-0.3,0.53-0.79,0.41c0.02,0.03-1.26-0.31-1.26-0.31l-0.86,1.98l2.25,0.56c0.42,0.1,0.83,0.21,1.23,0.32l-0.71,2.87
		l1.73,0.43l0.71-2.84c0.47,0.13,0.93,0.25,1.38,0.36l-0.71,2.83l1.73,0.43l0.72-2.87c2.95,0.56,5.16,0.33,6.1-2.33
		c0.75-2.15-0.04-3.39-1.59-4.19C136.55,23.42,137.4,22.68,137.63,21.15z M133.68,26.68c-0.53,2.15-4.15,0.99-5.32,0.69l0.95-3.81
		C130.48,23.87,134.24,24.44,133.68,26.68z M134.21,21.11c-0.49,1.95-3.49,0.96-4.47,0.72l0.86-3.45
		C131.58,18.62,134.72,19.08,134.21,21.11z"/>
</g>
<g>
	
		<linearGradient id="SVGID_4_" gradientUnits="userSpaceOnUse" x1="326.9483" y1="745.1879" x2="371.9483" y2="786.6879" gradientTransform="matrix(1 0 0 1 -141.66 -721.96)">
		<stop  offset="0" style="stop-color:#010101"/>
		<stop  offset="1" style="stop-color:#F0F4FB;stop-opacity:0"/>
	</linearGradient>
	<path fill="url(#SVGID_4_)" d="M163.27,6.25c0-2.76,2.24-5,5-5h33c2.76,0,5,2.24,5,5v33c0,2.76-2.24,5-5,5h-33c-2.76,0-5-2.24-5-5
		V6.25z"/>
	<path fill="#FFFFFF" d="M191.4,16.54l-2.4,1.22l-11.6,5.91c-0.17-1.27,0.03-2.56,0.55-3.73c0.53-1.17,1.36-2.17,2.42-2.88
		c1.06-0.72,2.3-1.13,3.58-1.18s2.55,0.25,3.67,0.87l1.37-0.7l0.21-0.11c-1.3-0.95-2.85-1.5-4.46-1.59
		c-1.61-0.1-3.21,0.27-4.62,1.06c-1.41,0.79-2.56,1.96-3.32,3.38c-0.76,1.42-1.1,3.03-0.98,4.63c0.02,0.3-0.04,0.6-0.19,0.87
		c-0.15,0.26-0.37,0.48-0.64,0.62l-0.73,0.37V27l2.13-1.09l0.69-0.35l0.68-0.35L190,18.97l1.37-0.7l2.84-1.45V15.1L191.4,16.54z
		 M194.21,18.55l-15.74,8.02l-1.37,0.7l-2.83,1.44v1.72l2.81-1.43l2.4-1.22l11.61-5.92c0.17,1.27-0.02,2.56-0.55,3.73
		s-1.37,2.17-2.43,2.89s-2.3,1.13-3.58,1.18c-1.28,0.05-2.55-0.25-3.67-0.88l-0.09,0.05l-1.49,0.76c1.3,0.95,2.85,1.5,4.46,1.6
		s3.21-0.27,4.62-1.06c1.41-0.79,2.56-1.96,3.32-3.38c0.76-1.42,1.1-3.03,0.98-4.63c-0.02-0.3,0.04-0.6,0.19-0.87
		c0.15-0.26,0.37-0.48,0.64-0.62l0.73-0.37L194.21,18.55L194.21,18.55z"/>
</g>
<g>
	
		<linearGradient id="SVGID_5_" gradientUnits="userSpaceOnUse" x1="380.7687" y1="745.196" x2="425.7687" y2="788.196" gradientTransform="matrix(1 0 0 1 -141.66 -721.96)">
		<stop  offset="0" style="stop-color:#7BC142"/>
		<stop  offset="1" style="stop-color:#F0F4FB;stop-opacity:0"/>
	</linearGradient>
	<path fill="url(#SVGID_5_)" d="M217.1,6.25c0-2.76,2.24-5,5-5h33c2.76,0,5,2.24,5,5v33c0,2.76-2.24,5-5,5h-33c-2.76,0-5-2.24-5-5
		V6.25z"/>
	<path fill="#FFFFFF" d="M244.6,26.4c0,2.57-2.09,4.28-5.17,4.53v2.31h-2.11V30.9c-2.08-0.23-4.06-1.04-5.72-2.31l1.55-2.13
		c1.38,1.07,2.69,1.78,4.27,2.01V23.9c-3.54-0.89-5.19-2.17-5.19-4.81c0-2.52,2.06-4.25,5.09-4.49v-1.35h2.11v1.4
		c1.65,0.18,3.22,0.8,4.56,1.78l-1.36,2.2c-1.07-0.77-2.16-1.26-3.3-1.5v4.44C243.02,22.46,244.6,23.88,244.6,26.4z M237.42,21.08
		v-4.11c-1.53,0.12-2.33,0.93-2.33,1.96C235.09,19.91,235.55,20.54,237.42,21.08L237.42,21.08z M241.73,26.57
		c0-1.05-0.51-1.68-2.4-2.22v4.23C240.86,28.46,241.73,27.69,241.73,26.57L241.73,26.57z"/>
</g>
<g>
	
		<linearGradient id="SVGID_6_" gradientUnits="userSpaceOnUse" x1="434.6033" y1="745.0621" x2="480.6033" y2="786.5621" gradientTransform="matrix(1 0 0 1 -141.66 -721.96)">
		<stop  offset="0" style="stop-color:#7178BA"/>
		<stop  offset="1" style="stop-color:#F0F4FB;stop-opacity:0"/>
	</linearGradient>
	<path fill="url(#SVGID_6_)" d="M270.92,6.13c0-2.76,2.24-5,5-5h33c2.76,0,5,2.24,5,5v33c0,2.76-2.24,5-5,5h-33c-2.76,0-5-2.24-5-5
		V6.13z"/>
	<path fill="#FFFFFF" d="M289.69,13.63h4.46c0.15,0,0.31,0.04,0.44,0.12s0.24,0.19,0.32,0.32l6.91,12.32
		c0.07,0.13,0.11,0.28,0.11,0.42s-0.04,0.3-0.11,0.43l-2.21,3.94c-0.08,0.13-0.19,0.25-0.32,0.33s-0.28,0.12-0.44,0.12H285
		c-0.15,0-0.31-0.04-0.44-0.12s-0.24-0.19-0.32-0.33l-2.21-3.94c-0.07-0.13-0.11-0.28-0.11-0.43s0.04-0.3,0.11-0.42l6.91-12.32
		c0.08-0.13,0.19-0.25,0.32-0.32C289.39,13.67,289.54,13.62,289.69,13.63z M291.92,18.53l-4.65,8.29h9.31L291.92,18.53z"/>
</g>
<g>
	
		<linearGradient id="SVGID_7_" gradientUnits="userSpaceOnUse" x1="488.4048" y1="745.0901" x2="534.9048" y2="792.0901" gradientTransform="matrix(1 0 0 1 -141.66 -721.96)">
		<stop  offset="0" style="stop-color:#359BD6"/>
		<stop  offset="1" style="stop-color:#F0F4FB;stop-opacity:0"/>
	</linearGradient>
	<path fill="url(#SVGID_7_)" d="M324.75,6.13c0-2.76,2.24-5,5-5h33c2.76,0,5,2.24,5,5v33c0,2.76-2.24,5-5,5h-33c-2.76,0-5-2.24-5-5
		V6.13z"/>
	<path fill="#FFFFFF" d="M349.8,12.73c0.39,0,0.71,0.12,0.95,0.36c0.24,0.24,0.36,0.55,0.36,0.95v11.67c0,1.33-0.32,2.54-0.95,3.64
		c-0.6,1.06-1.48,1.95-2.53,2.56c-1.06,0.61-2.24,0.92-3.56,0.92c-1.31,0-2.52-0.31-3.61-0.92c-1.06-0.61-1.93-1.5-2.53-2.56
		c-0.61-1.09-0.92-2.3-0.92-3.64c0-1.33,0.28-2.53,0.85-3.61c0.58-1.09,1.36-1.95,2.35-2.56c1.01-0.61,2.13-0.92,3.35-0.92
		c0.95-0.01,1.88,0.2,2.74,0.6s1.61,0.99,2.21,1.73v-6.91c0-0.39,0.12-0.71,0.36-0.95C349.11,12.85,349.45,12.72,349.8,12.73z
		 M344.07,30.52c0.85,0,1.62-0.2,2.3-0.61c0.69-0.42,1.26-1.02,1.64-1.74c0.39-0.74,0.59-1.55,0.59-2.46c0-0.9-0.2-1.72-0.59-2.43
		c-0.37-0.71-0.94-1.31-1.64-1.72c-0.68-0.43-1.45-0.64-2.3-0.64c-0.85,0-1.63,0.21-2.33,0.64c-0.69,0.42-1.25,1.01-1.64,1.72
		c-0.39,0.72-0.59,1.53-0.59,2.43s0.2,1.72,0.59,2.46c0.39,0.71,0.95,1.31,1.64,1.74C342.44,30.32,343.22,30.52,344.07,30.52
		L344.07,30.52z"/>
</g>
<g>
	
		<linearGradient id="SVGID_8_" gradientUnits="userSpaceOnUse" x1="492.8114" y1="487.4986" x2="538.8115" y2="441.4986" gradientTransform="matrix(1 0 0 -1 -91.66 510.54)">
		<stop  offset="0" style="stop-color:#6679BA"/>
		<stop  offset="1" style="stop-color:#EFF3FA;stop-opacity:0"/>
	</linearGradient>
	<path fill="url(#SVGID_8_)" d="M379.15,6.04c0-2.76,2.24-5,5-5h33c2.76,0,5,2.24,5,5v33c0,2.76-2.24,5-5,5h-33c-2.76,0-5-2.24-5-5
		V6.04z"/>
	<path fill="#F9FCFF" d="M393.64,25.91h2.24c0.93,3.9,4.24,5.88,8.77,5.88c0.9,0,1.85-0.07,2.45-0.21v-2.85
		c-0.59,0.12-1.56,0.16-2.32,0.16c-2.64,0-4.54-0.97-5.31-2.99h6.32v-1.35h-6.64c-0.05-0.3-0.06-0.62-0.06-0.97v-0.01
		c0-0.32,0.01-0.62,0.05-0.91h6.66v-1.35h-6.34c0.77-2.04,2.67-3.06,5.25-3.06c0.83,0,1.73,0.08,2.36,0.21v-2.82
		c-0.61-0.18-1.63-0.27-2.48-0.27c-4.48,0-7.8,2.02-8.7,5.94h-2.23v1.35h2.03c-0.02,0.29-0.04,0.6-0.04,0.9v0.01
		c0,0.34,0.01,0.67,0.04,0.98h-2.03v1.36C393.66,25.91,393.64,25.91,393.64,25.91z"/>
</g>
<g>
	
		<linearGradient id="SVGID_9_" gradientUnits="userSpaceOnUse" x1="547.1635" y1="487.5019" x2="595.1635" y2="440.0019" gradientTransform="matrix(1 0 0 -1 -91.66 510.54)">
		<stop  offset="0" style="stop-color:#F6921E"/>
		<stop  offset="1" style="stop-color:#EFF3FA;stop-opacity:0"/>
	</linearGradient>
	<path fill="url(#SVGID_9_)" d="M433.5,6.04c0-2.76,2.24-5,5-5h33c2.76,0,5,2.24,5,5v33c0,2.76-2.24,5-5,5h-33c-2.76,0-5-2.24-5-5
		V6.04z"/>
	<path fill="#F9FCFF" d="M448.05,31.69h13v-2.82h-8.34v-0.13c1.25-0.74,1.9-1.84,1.9-3.29c0-0.36-0.04-0.7-0.11-1.03h4.69v-1.73
		h-5.21c-0.22-0.64-0.41-1.28-0.41-1.98c0-1.64,1.25-2.57,3.47-2.57c1.24,0,2.53,0.25,3.28,0.57V16c-0.86-0.36-2.31-0.62-3.79-0.62
		c-3.97,0-6.42,1.86-6.42,4.9c0,0.87,0.23,1.64,0.49,2.4h-2.54v1.73h3.08c0.09,0.39,0.15,0.77,0.15,1.18c0,1.83-1.17,3.04-3.23,3.45
		v2.65H448.05z"/>
</g>
<path fill="#F7931A" d="M34.132,465.638c17.673,0,32-14.327,32-32s-14.327-32-32-32s-32,14.327-32,32S16.459,465.638,34.132,465.638
	z"/>
<path fill="#FFFFFF" d="M47.73,429.678c0.628-4.192-2.566-6.446-6.93-7.95l1.416-5.68l-3.456-0.86l-1.38,5.53
	c-0.908-0.228-1.84-0.44-2.77-0.652L36,414.5l-3.456-0.862l-1.416,5.678c-0.752-0.172-1.492-0.34-2.208-0.52l0.004-0.018
	l-4.768-1.19l-0.92,3.692c0,0,2.566,0.588,2.512,0.624c1.4,0.35,1.652,1.276,1.61,2.012l-1.612,6.47
	c0.096,0.024,0.22,0.06,0.36,0.114l-0.366-0.09l-2.26,9.064c-0.172,0.424-0.606,1.062-1.586,0.82
	c0.036,0.05-2.512-0.626-2.512-0.626l-1.716,3.956l4.5,1.122c0.836,0.21,1.656,0.43,2.462,0.636l-1.43,5.744l3.454,0.86l1.416-5.68
	c0.944,0.254,1.86,0.49,2.756,0.714l-1.412,5.656l3.456,0.86l1.43-5.732c5.896,1.116,10.328,0.666,12.194-4.666
	c1.504-4.292-0.074-6.77-3.176-8.384C45.576,434.234,47.276,432.748,47.73,429.678z M39.83,440.754
	c-1.066,4.294-8.296,1.972-10.64,1.39l1.9-7.61C33.434,435.12,40.948,436.278,39.83,440.754z M40.9,429.616
	c-0.974,3.906-6.99,1.92-8.94,1.434l1.72-6.9C35.63,424.636,41.916,425.542,40.9,429.616z"/>
<path fill="#FFFFFF" d="M44.89,510.754c0.628-4.192-2.566-6.446-6.93-7.95l1.416-5.68l-3.456-0.86l-1.38,5.53
	c-0.908-0.228-1.84-0.44-2.77-0.652l1.39-5.566l-3.456-0.862l-1.416,5.678c-0.752-0.172-1.492-0.34-2.208-0.52l0.004-0.018
	l-4.768-1.19l-0.92,3.692c0,0,2.566,0.588,2.512,0.624c1.4,0.35,1.652,1.276,1.61,2.012l-1.612,6.47
	c0.096,0.024,0.22,0.06,0.36,0.114l-0.366-0.09l-2.26,9.064c-0.172,0.424-0.606,1.062-1.586,0.82
	c0.036,0.05-2.512-0.626-2.512-0.626l-1.716,3.956l4.5,1.122c0.836,0.21,1.656,0.43,2.462,0.636l-1.43,5.744l3.454,0.86l1.416-5.68
	c0.944,0.254,1.86,0.49,2.756,0.714l-1.412,5.656l3.456,0.86l1.43-5.732c5.896,1.116,10.328,0.666,12.194-4.666
	c1.504-4.292-0.074-6.77-3.176-8.384C42.736,515.31,44.436,513.824,44.89,510.754z M36.99,521.83
	c-1.066,4.294-8.296,1.972-10.64,1.39l1.9-7.61C30.594,516.196,38.108,517.354,36.99,521.83z M38.06,510.692
	c-0.974,3.906-6.99,1.92-8.94,1.434l1.72-6.9C32.79,505.712,39.076,506.618,38.06,510.692z"/>
<g>
	<path fill="#FFFFFF" d="M84.853,494.714v15.218l12.868,5.748L84.853,494.714z"/>
	<path fill="#FFFFFF" d="M84.853,494.714L71.985,515.68l12.868-5.748V494.714z"/>
	<path fill="#FFFFFF" d="M84.853,525.546v10.346l12.868-17.809L84.853,525.546z"/>
	<path fill="#FFFFFF" d="M84.853,535.875v-10.346l-12.868-7.463L84.853,535.875z"/>
	<path fill="#FFFFFF" d="M84.853,523.144l12.868-7.463l-12.868-5.748V523.144z"/>
	<path fill="#FFFFFF" d="M71.985,515.68l12.868,7.463v-13.211L71.985,515.68z"/>
</g>
<g>
	<path fill="#FFFFFF" d="M151.952,519.283c0,4.802-3.905,7.996-9.659,8.463v4.316h-3.942v-4.372
		c-3.886-0.43-7.585-1.943-10.687-4.316l2.896-3.979c2.578,1.999,5.026,3.326,7.978,3.755v-8.538
		c-6.614-1.663-9.697-4.054-9.697-8.987c0-4.708,3.849-7.94,9.51-8.389v-2.522h3.942v2.616c3.083,0.336,6.016,1.495,8.52,3.326
		l-2.541,4.11c-1.999-1.439-4.036-2.354-6.165-2.802v8.295C149,511.921,151.952,514.574,151.952,519.283z M138.537,509.343v-7.679
		c-2.859,0.224-4.353,1.738-4.353,3.662C134.184,507.157,135.044,508.334,138.537,509.343L138.537,509.343z M146.59,519.6
		c0-1.962-0.953-3.139-4.484-4.148v7.903C144.964,523.131,146.59,521.693,146.59,519.6L146.59,519.6z"/>
</g>
</svg>
