<?xml version="1.0" encoding="utf-8"?>
<!-- Generator: Adobe Illustrator 17.0.0, SVG Export Plug-In . SVG Version: 6.00 Build 0)  -->
<!DOCTYPE svg PUBLIC "-//W3C//DTD SVG 1.1//EN" "http://www.w3.org/Graphics/SVG/1.1/DTD/svg11.dtd">
<svg version="1.1" id="Layer_1" xmlns="http://www.w3.org/2000/svg" xmlns:xlink="http://www.w3.org/1999/xlink" x="0px" y="0px"
	 width="512px" height="512px" viewBox="0 0 512 512" enable-background="new 0 0 512 512" xml:space="preserve">
<rect display="none" width="512" height="512"/>
<g>
	<path fill="none" stroke="#FAFCFE" stroke-width="1.5" stroke-linecap="round" stroke-linejoin="round" d="M15.88,7.01
		c0-1.43-0.57-2.81-1.58-3.82s-2.39-1.58-3.82-1.58S7.67,2.18,6.66,3.19C5.65,4.21,5.08,5.58,5.08,7.01c0,6.3-2.7,8.1-2.7,8.1h16.2
		C18.58,15.12,15.88,13.32,15.88,7.01z"/>
	<path fill="none" stroke="#FAFCFE" stroke-width="1.5" stroke-linecap="round" stroke-linejoin="round" d="M12.04,18.72
		c-0.16,0.271-0.39,0.5-0.66,0.66s-0.58,0.24-0.9,0.24s-0.63-0.08-0.9-0.24S9.08,19,8.92,18.72"/>
</g>
<g>
	<path fill="none" stroke="#FAFCFE" stroke-width="1.5" stroke-linecap="round" stroke-linejoin="round" d="M39.42,13.31
		c1.36,0,2.45-1.1,2.45-2.45c0-1.36-1.1-2.45-2.45-2.45c-1.36,0-2.45,1.1-2.45,2.45C36.96,12.21,38.06,13.31,39.42,13.31z"/>
	<path fill="none" stroke="#FAFCFE" stroke-width="1.5" stroke-linecap="round" stroke-linejoin="round" d="M45.47,13.31
		c-0.11,0.25-0.14,0.52-0.09,0.79s0.17,0.51,0.36,0.7l0.05,0.05c0.15,0.15,0.27,0.33,0.36,0.53c0.08,0.2,0.12,0.41,0.12,0.63
		c0,0.22-0.04,0.43-0.12,0.63c-0.08,0.2-0.2,0.38-0.36,0.53c-0.15,0.15-0.33,0.27-0.53,0.36c-0.2,0.08-0.41,0.12-0.63,0.12
		S44.2,17.61,44,17.53s-0.38-0.2-0.53-0.36l-0.05-0.05c-0.19-0.19-0.44-0.32-0.7-0.36c-0.27-0.05-0.54-0.02-0.79,0.09
		c-0.24,0.1-0.45,0.28-0.59,0.5c-0.15,0.22-0.22,0.48-0.22,0.74v0.14c0,0.43-0.17,0.85-0.48,1.16s-0.72,0.48-1.16,0.48
		c-0.43,0-0.85-0.17-1.16-0.48s-0.48-0.72-0.48-1.16v-0.07c-0.01-0.27-0.09-0.53-0.25-0.75s-0.38-0.39-0.63-0.48
		c-0.25-0.11-0.52-0.14-0.79-0.09s-0.51,0.17-0.7,0.36l-0.05,0.05c-0.15,0.15-0.33,0.27-0.53,0.36c-0.2,0.08-0.41,0.12-0.63,0.12
		s-0.43-0.04-0.63-0.12s-0.38-0.2-0.53-0.36c-0.15-0.15-0.27-0.33-0.36-0.53c-0.08-0.2-0.12-0.41-0.12-0.63
		c0-0.22,0.04-0.43,0.12-0.63c0.08-0.2,0.2-0.38,0.36-0.53l0.05-0.05c0.19-0.19,0.32-0.44,0.36-0.7c0.05-0.27,0.02-0.54-0.09-0.79
		c-0.1-0.24-0.28-0.45-0.5-0.59c-0.22-0.15-0.48-0.22-0.74-0.22h-0.14c-0.43,0-0.85-0.17-1.16-0.48s-0.48-0.72-0.48-1.16
		c0-0.43,0.17-0.85,0.48-1.16c0.31-0.31,0.72-0.48,1.16-0.48h0.07c0.27-0.01,0.53-0.09,0.75-0.25s0.39-0.38,0.48-0.63
		c0.11-0.25,0.14-0.52,0.09-0.79s-0.17-0.51-0.36-0.7l-0.05-0.05c-0.15-0.15-0.27-0.33-0.36-0.53c-0.08-0.2-0.12-0.41-0.12-0.63
		c0-0.22,0.04-0.43,0.12-0.63c0.08-0.2,0.2-0.38,0.36-0.53c0.15-0.15,0.33-0.27,0.53-0.36c0.2-0.08,0.41-0.12,0.63-0.12
		s0.43,0.04,0.63,0.12s0.38,0.2,0.53,0.36l0.05,0.05c0.19,0.19,0.44,0.32,0.7,0.36c0.29,0.03,0.56,0,0.81-0.11h0.07
		c0.24-0.1,0.45-0.28,0.59-0.5c0.15-0.22,0.22-0.48,0.22-0.74V3.49c0-0.43,0.17-0.85,0.48-1.16s0.72-0.48,1.16-0.48
		c0.43,0,0.85,0.17,1.16,0.48s0.48,0.72,0.48,1.16v0.07c0,0.26,0.08,0.52,0.22,0.74c0.15,0.22,0.35,0.39,0.59,0.5
		c0.25,0.11,0.52,0.14,0.79,0.09c0.27-0.05,0.51-0.17,0.7-0.36l0.05-0.05c0.15-0.15,0.33-0.27,0.53-0.36C44.14,4.04,44.35,4,44.57,4
		S45,4.04,45.2,4.12s0.38,0.2,0.53,0.36c0.15,0.15,0.27,0.33,0.36,0.53c0.08,0.2,0.12,0.41,0.12,0.63c0,0.22-0.04,0.43-0.12,0.63
		c-0.08,0.2-0.2,0.38-0.36,0.53l-0.05,0.05c-0.19,0.19-0.32,0.44-0.36,0.7c-0.05,0.27-0.02,0.54,0.09,0.79V8.4
		c0.1,0.24,0.28,0.45,0.5,0.59c0.22,0.15,0.48,0.22,0.74,0.22h0.14c0.43,0,0.85,0.17,1.16,0.48c0.31,0.31,0.48,0.72,0.48,1.16
		c0,0.43-0.17,0.85-0.48,1.16c-0.31,0.31-0.72,0.48-1.16,0.48h-0.07c-0.26,0-0.52,0.08-0.74,0.22
		C45.75,12.86,45.57,13.06,45.47,13.31L45.47,13.31z"/>
</g>
<path fill="#FFFFFF" d="M7.902,245.17l0.784,0.882l9.653,10.863l9.653-10.863l0.784-0.882l1.559,1.755l-0.784,0.882l-9.653,10.863
	l9.653,10.863l0.784,0.882l-1.559,1.755l-0.784-0.882l-9.653-10.863l-9.661,10.863l-0.784,0.882l-1.559-1.755l0.784-0.882
	l9.653-10.863l-9.653-10.863l-0.784-0.882L7.902,245.17z"/>
<path fill="#7C4DFF" d="M3.83,113.16l1,1l9,9l9-9l1-1l2,2l-1,1l-9,9l9,9l1,1l-2,2l-1-1l-9-9l-9,9l-1,1l-2-2l1-1l9-9l-9-9l-1-1
	L3.83,113.16z"/>
<path fill="#389738" d="M93.17,8l5,5h-10L93.17,8z"/>
<path fill="#FF3A1A" d="M113.5,13l5-5h-10L113.5,13z"/>
<rect x="43.375" y="-62.458" fill="#FF3A1A" width="10" height="31.5"/>
<path fill="#FAFCFE" d="M134.048,7.938l6,5.292h-12L134.048,7.938z"/>
<path fill="#FAFCFE" d="M154.214,12.788l-5-4.41h10L154.214,12.788z"/>
<path fill="#FFFFFF" d="M170.82,1.054l0.633,0.633l7.101,7.101l7.101-7.101l0.633-0.633l1.266,1.266l-0.633,0.633l-7.101,7.101
	l7.101,7.101l0.633,0.633l-1.266,1.266l-0.633-0.633l-7.101-7.101l-7.101,7.101l-0.633,0.633l-1.266-1.266l0.633-0.633l7.101-7.101
	l-7.101-7.101l-0.633-0.633L170.82,1.054z"/>
<path fill="#FAFCFE" d="M214.436,19.304l-6.194-6.196c-2.756,1.959-6.553,1.48-8.735-1.102c-2.183-2.582-2.022-6.406,0.369-8.797
	c2.39-2.392,6.215-2.553,8.797-0.37c2.583,2.182,3.062,5.98,1.103,8.736l6.195,6.196l-1.533,1.533H214.436z M204.473,3.472
	c-2.055,0-3.829,1.442-4.246,3.455c-0.418,2.013,0.635,4.042,2.521,4.859s4.087,0.198,5.269-1.483
	c1.183-1.681,1.023-3.961-0.383-5.461l0.656,0.65l-0.739-0.737l-0.013-0.013C206.727,3.926,205.623,3.469,204.473,3.472z"/>
<path fill="#FAFCFE" d="M232.468,10.747l-6-6l-1.411,1.411l4.592,4.592l-4.592,4.585l1.411,1.411L232.468,10.747z"/>
<g>
	<path fill="#0E0E2C" d="M251.5,16.227c-1.582,0-3.013-0.641-4.05-1.677l4.05-4.05V4.773c3.163,0,5.727,2.564,5.727,5.727
		S254.663,16.227,251.5,16.227z"/>
	<path fill="#0E0E2C" d="M251.5,1.5c-4.975,0-9,4.025-9,9s4.025,9,9,9s9-4.025,9-9S256.475,1.5,251.5,1.5z M251.5,17.864
		c-4.066,0-7.364-3.297-7.364-7.364s3.297-7.364,7.364-7.364s7.364,3.297,7.364,7.364S255.566,17.864,251.5,17.864z"/>
</g>
<path fill="#FAFCFE" d="M68.667,16.667h-9v-2h9V16.667z M77.667,11.667h-18v-2h18V11.667z M77.667,6.667h-9v-2h9V6.667z"/>
<path fill="#FFFFFF" d="M332.14,13.119c-0.147,0.149-0.229,0.338-0.229,0.561c0,0.446,0.352,0.805,0.798,0.805
	c0.223,0,0.426-0.095,0.582-0.25l4.627-4.735l4.613,4.735c0.154,0.156,0.364,0.25,0.582,0.25c0.445,0,0.798-0.359,0.798-0.805
	c0-0.223-0.081-0.413-0.23-0.561l-5.141-5.263c-0.176-0.189-0.392-0.277-0.629-0.284c-0.237,0-0.44,0.095-0.622,0.284L332.14,13.119
	z"/>
<path fill="#FFFFFF" d="M359.954,14.201c0.183,0.189,0.386,0.284,0.622,0.284c0.237-0.007,0.453-0.095,0.629-0.284l5.141-5.263
	c0.149-0.149,0.23-0.338,0.23-0.561c0-0.446-0.354-0.805-0.798-0.805c-0.219,0-0.428,0.095-0.582,0.25l-4.613,4.735l-4.627-4.735
	c-0.156-0.156-0.359-0.25-0.582-0.25c-0.446,0-0.798,0.359-0.798,0.805c0,0.223,0.081,0.413,0.229,0.561L359.954,14.201z"/>
<g>
	<path fill="#FAFCFE" d="M432,6.485v14l4.8-3.6c0.347-0.26,0.769-0.401,1.2-0.4h8c1.105,0,2-0.895,2-2v-8c0-1.105-0.895-2-2-2h-12
		C432.895,4.485,432,5.38,432,6.485z M434,16.485v-10h12v8h-8.666c-0.433-0.001-0.854,0.139-1.2,0.4L434,16.485z"/>
	<path fill="#FAFCFE" d="M452,24.485v-13c0-1.105-0.895-2-2-2v11l-2.134-1.6c-0.348-0.261-0.769-0.401-1.2-0.4H437
		c0,1.105,0.895,2,2,2h7c0.433-0.001,0.854,0.14,1.2,0.4L452,24.485z"/>
</g>
<g>
	<path fill="none" stroke="#FAFCFE" stroke-width="1.5" stroke-linecap="round" stroke-linejoin="round" d="M15.88,7.01
		c0-1.43-0.57-2.81-1.58-3.82s-2.39-1.58-3.82-1.58S7.67,2.18,6.66,3.19C5.65,4.21,5.08,5.58,5.08,7.01c0,6.3-2.7,8.1-2.7,8.1h16.2
		C18.58,15.12,15.88,13.32,15.88,7.01z"/>
	<path fill="none" stroke="#FAFCFE" stroke-width="1.5" stroke-linecap="round" stroke-linejoin="round" d="M12.04,18.72
		c-0.16,0.271-0.39,0.5-0.66,0.66s-0.58,0.24-0.9,0.24s-0.63-0.08-0.9-0.24S9.08,19,8.92,18.72"/>
</g>
<g>
	<path fill="none" stroke="#FAFCFE" stroke-width="1.5" stroke-linecap="round" stroke-linejoin="round" d="M39.42,13.31
		c1.36,0,2.45-1.1,2.45-2.45c0-1.36-1.1-2.45-2.45-2.45c-1.36,0-2.45,1.1-2.45,2.45C36.96,12.21,38.06,13.31,39.42,13.31z"/>
	<path fill="none" stroke="#FAFCFE" stroke-width="1.5" stroke-linecap="round" stroke-linejoin="round" d="M45.47,13.31
		c-0.11,0.25-0.14,0.52-0.09,0.79s0.17,0.51,0.36,0.7l0.05,0.05c0.15,0.15,0.27,0.33,0.36,0.53c0.08,0.2,0.12,0.41,0.12,0.63
		c0,0.22-0.04,0.43-0.12,0.63c-0.08,0.2-0.2,0.38-0.36,0.53c-0.15,0.15-0.33,0.27-0.53,0.36c-0.2,0.08-0.41,0.12-0.63,0.12
		S44.2,17.61,44,17.53s-0.38-0.2-0.53-0.36l-0.05-0.05c-0.19-0.19-0.44-0.32-0.7-0.36c-0.27-0.05-0.54-0.02-0.79,0.09
		c-0.24,0.1-0.45,0.28-0.59,0.5c-0.15,0.22-0.22,0.48-0.22,0.74v0.14c0,0.43-0.17,0.85-0.48,1.16s-0.72,0.48-1.16,0.48
		c-0.43,0-0.85-0.17-1.16-0.48s-0.48-0.72-0.48-1.16v-0.07c-0.01-0.27-0.09-0.53-0.25-0.75s-0.38-0.39-0.63-0.48
		c-0.25-0.11-0.52-0.14-0.79-0.09s-0.51,0.17-0.7,0.36l-0.05,0.05c-0.15,0.15-0.33,0.27-0.53,0.36c-0.2,0.08-0.41,0.12-0.63,0.12
		s-0.43-0.04-0.63-0.12s-0.38-0.2-0.53-0.36c-0.15-0.15-0.27-0.33-0.36-0.53c-0.08-0.2-0.12-0.41-0.12-0.63
		c0-0.22,0.04-0.43,0.12-0.63c0.08-0.2,0.2-0.38,0.36-0.53l0.05-0.05c0.19-0.19,0.32-0.44,0.36-0.7c0.05-0.27,0.02-0.54-0.09-0.79
		c-0.1-0.24-0.28-0.45-0.5-0.59c-0.22-0.15-0.48-0.22-0.74-0.22h-0.14c-0.43,0-0.85-0.17-1.16-0.48s-0.48-0.72-0.48-1.16
		c0-0.43,0.17-0.85,0.48-1.16c0.31-0.31,0.72-0.48,1.16-0.48h0.07c0.27-0.01,0.53-0.09,0.75-0.25s0.39-0.38,0.48-0.63
		c0.11-0.25,0.14-0.52,0.09-0.79s-0.17-0.51-0.36-0.7l-0.05-0.05c-0.15-0.15-0.27-0.33-0.36-0.53c-0.08-0.2-0.12-0.41-0.12-0.63
		c0-0.22,0.04-0.43,0.12-0.63c0.08-0.2,0.2-0.38,0.36-0.53c0.15-0.15,0.33-0.27,0.53-0.36c0.2-0.08,0.41-0.12,0.63-0.12
		s0.43,0.04,0.63,0.12s0.38,0.2,0.53,0.36l0.05,0.05c0.19,0.19,0.44,0.32,0.7,0.36c0.29,0.03,0.56,0,0.81-0.11h0.07
		c0.24-0.1,0.45-0.28,0.59-0.5c0.15-0.22,0.22-0.48,0.22-0.74V3.49c0-0.43,0.17-0.85,0.48-1.16s0.72-0.48,1.16-0.48
		c0.43,0,0.85,0.17,1.16,0.48s0.48,0.72,0.48,1.16v0.07c0,0.26,0.08,0.52,0.22,0.74c0.15,0.22,0.35,0.39,0.59,0.5
		c0.25,0.11,0.52,0.14,0.79,0.09c0.27-0.05,0.51-0.17,0.7-0.36l0.05-0.05c0.15-0.15,0.33-0.27,0.53-0.36C44.14,4.04,44.35,4,44.57,4
		S45,4.04,45.2,4.12s0.38,0.2,0.53,0.36c0.15,0.15,0.27,0.33,0.36,0.53c0.08,0.2,0.12,0.41,0.12,0.63c0,0.22-0.04,0.43-0.12,0.63
		c-0.08,0.2-0.2,0.38-0.36,0.53l-0.05,0.05c-0.19,0.19-0.32,0.44-0.36,0.7c-0.05,0.27-0.02,0.54,0.09,0.79V8.4
		c0.1,0.24,0.28,0.45,0.5,0.59c0.22,0.15,0.48,0.22,0.74,0.22h0.14c0.43,0,0.85,0.17,1.16,0.48c0.31,0.31,0.48,0.72,0.48,1.16
		c0,0.43-0.17,0.85-0.48,1.16c-0.31,0.31-0.72,0.48-1.16,0.48h-0.07c-0.26,0-0.52,0.08-0.74,0.22
		C45.75,12.86,45.57,13.06,45.47,13.31L45.47,13.31z"/>
</g>
<path fill="#7C4DFF" d="M3.83,113.16l1,1l9,9l9-9l1-1l2,2l-1,1l-9,9l9,9l1,1l-2,2l-1-1l-9-9l-9,9l-1,1l-2-2l1-1l9-9l-9-9l-1-1
	L3.83,113.16z"/>
<path fill="#389738" d="M93.17,8l5,5h-10L93.17,8z"/>
<path fill="#FF3A1A" d="M113.5,13l5-5h-10L113.5,13z"/>
<path fill="#FAFCFE" d="M134.048,7.938l6,5.292h-12L134.048,7.938z"/>
<path fill="#FAFCFE" d="M154.214,12.788l-5-4.41h10L154.214,12.788z"/>
<path fill="#FAFCFE" d="M86.731,46.557l-4.422,4.989l0.024-10L86.731,46.557z"/>
<path fill="#FAFCFE" d="M96.809,46.535l4.422-4.989l-0.024,10L96.809,46.535z"/>
<path fill="#FFFFFF" d="M170.82,1.054l0.633,0.633l7.101,7.101l7.101-7.101l0.633-0.633l1.266,1.266l-0.633,0.633l-7.101,7.101
	l7.101,7.101l0.633,0.633l-1.266,1.266l-0.633-0.633l-7.101-7.101l-7.101,7.101l-0.633,0.633l-1.266-1.266l0.633-0.633l7.101-7.101
	l-7.101-7.101l-0.633-0.633L170.82,1.054z"/>
<path fill="#FAFCFE" d="M214.436,19.304l-6.194-6.196c-2.756,1.959-6.553,1.48-8.735-1.102c-2.183-2.582-2.022-6.406,0.369-8.797
	c2.39-2.392,6.215-2.553,8.797-0.37c2.583,2.182,3.062,5.98,1.103,8.736l6.195,6.196l-1.533,1.533H214.436z M204.473,3.472
	c-2.055,0-3.829,1.442-4.246,3.455c-0.418,2.013,0.635,4.042,2.521,4.859s4.087,0.198,5.269-1.483
	c1.183-1.681,1.023-3.961-0.383-5.461l0.656,0.65l-0.739-0.737l-0.013-0.013C206.727,3.926,205.623,3.469,204.473,3.472z"/>
<g>
	<path fill="#0E0E2C" d="M251.5,16.227c-1.582,0-3.013-0.641-4.05-1.677l4.05-4.05V4.773c3.163,0,5.727,2.564,5.727,5.727
		S254.663,16.227,251.5,16.227z"/>
	<path fill="#0E0E2C" d="M251.5,1.5c-4.975,0-9,4.025-9,9s4.025,9,9,9s9-4.025,9-9S256.475,1.5,251.5,1.5z M251.5,17.864
		c-4.066,0-7.364-3.297-7.364-7.364s3.297-7.364,7.364-7.364s7.364,3.297,7.364,7.364S255.566,17.864,251.5,17.864z"/>
</g>
<path fill="#FAFCFE" d="M68.667,16.667h-9v-2h9V16.667z M77.667,11.667h-18v-2h18V11.667z M77.667,6.667h-9v-2h9V6.667z"/>
<path fill="#FF3A1A" d="M281.333,15.833l9-9h-18L281.333,15.833z"/>
<path fill="#FFFFFF" d="M332.14,13.119c-0.147,0.149-0.229,0.338-0.229,0.561c0,0.446,0.352,0.805,0.798,0.805
	c0.223,0,0.426-0.095,0.582-0.25l4.627-4.735l4.613,4.735c0.154,0.156,0.364,0.25,0.582,0.25c0.445,0,0.798-0.359,0.798-0.805
	c0-0.223-0.081-0.413-0.23-0.561l-5.141-5.263c-0.176-0.189-0.392-0.277-0.629-0.284c-0.237,0-0.44,0.095-0.622,0.284L332.14,13.119
	z"/>
<path fill="#FFFFFF" d="M359.954,13.787c0.183,0.164,0.386,0.247,0.622,0.247c0.237-0.006,0.453-0.083,0.629-0.247l5.141-4.576
	c0.149-0.13,0.23-0.294,0.23-0.488c0-0.388-0.354-0.7-0.798-0.7c-0.219,0-0.428,0.083-0.582,0.217l-4.613,4.117l-4.627-4.117
	c-0.156-0.136-0.359-0.217-0.582-0.217c-0.446,0-0.798,0.312-0.798,0.7c0,0.194,0.081,0.359,0.229,0.488L359.954,13.787z"/>
<path fill="#FFFFFF" d="M380.33,9.25l2.58-2.59l-1.41-1.41l-5,5l5,5l1.41-1.41l-2.58-2.59h16.17v-2H380.33z"/>
<path fill="#FFDB1A" d="M44.859,132.875c0.469,0.469,1.266,0.469,1.734,0l13.781-13.781c0.469-0.469,0.469-1.266,0-1.734
	l-1.688-1.688c-0.469-0.469-1.219-0.469-1.688,0l-11.25,11.25l-5.297-5.25c-0.469-0.469-1.219-0.469-1.688,0l-1.688,1.688
	c-0.469,0.469-0.469,1.266,0,1.734L44.859,132.875z"/>
<path fill="#FFFFFF" d="M414.333,3.125c-4.14,0-7.5,3.36-7.5,7.5s3.36,7.5,7.5,7.5s7.5-3.36,7.5-7.5S418.473,3.125,414.333,3.125z
	 M415.143,13.965h-1.238v-4.6h1.238V13.965z M415.023,8.635c-0.132,0.12-0.29,0.18-0.5,0.18s-0.382-0.06-0.5-0.18
	c-0.132-0.12-0.19-0.27-0.19-0.46c0-0.18,0.06-0.33,0.18-0.45c0.13-0.12,0.3-0.18,0.512-0.18c0.21,0,0.38,0.06,0.5,0.18
	c0.13,0.12,0.188,0.27,0.188,0.45C415.213,8.365,415.143,8.515,415.023,8.635z"/>
<path fill="none" stroke="#FFFFFF" stroke-width="2" stroke-linecap="round" stroke-linejoin="round" d="M463.5,17.833l6-6l-6-6"/>
<path fill="#389738" d="M303,15.833h18l-9-9L303,15.833z"/>
<path fill="#FFFFFF" d="M497.7,19.7h-14.4c-0.994,0-1.8-0.806-1.8-1.8V7.1c0-0.994,0.806-1.8,1.8-1.8h14.4
	c0.994,0,1.8,0.806,1.8,1.8v10.8C499.5,18.894,498.694,19.7,497.7,19.7z M483.3,12.5v5.4h14.4v-5.4H483.3z M483.3,7.1v1.8h14.4V7.1
	H483.3z M491.4,16.1h-6.3v-1.8h6.302L491.4,16.1L491.4,16.1z"/>
<path fill="#FFFFFF" d="M14.795,55h-9.09c-1.004,0-1.818-0.814-1.818-1.818V36.739C3.929,35.766,4.73,34.999,5.705,35h9.091
	c1.004,0,1.818,0.814,1.818,1.818v16.364C16.614,54.186,15.8,55,14.795,55z M5.705,36.818v16.364h9.091V36.818h-1.818
	c0,1.004-0.814,1.818-1.818,1.818H9.341c-1.004,0-1.818-0.813-1.818-1.818H5.705z"/>
<path fill="#1B4156" d="M41,286.869H26.253c-0.105,4.386-3.244,8.02-7.398,8.885l-0.012-5.054L1,303.123l17.9,12.341l-0.011-4.831
	C31.246,309.753,40.998,299.45,41,286.869z"/>
<path fill="#1E526E" d="M95.65,315.464H80.903c-0.105-4.386-3.244-8.021-7.398-8.885l-0.012,5.054L55.65,299.211l17.9-12.341
	l-0.011,4.831C85.895,292.581,95.647,302.883,95.65,315.464z"/>
<g>
	<path fill="#FFFFFF" d="M88.508,124.364c0,4.941-2.016,9.413-5.27,12.636l-2.515-2.516c2.61-2.578,4.228-6.16,4.228-10.12
		c0-3.822-1.507-7.292-3.96-9.849L83.507,112C86.603,115.2,88.508,119.56,88.508,124.364z"/>
	<path fill="#FFFFFF" d="M81.394,124.364c0,2.948-1.024,5.656-2.736,7.789l-2.537-2.536c1.079-1.472,1.717-3.288,1.717-5.252
		c0-1.913-0.604-3.684-1.631-5.134l2.541-2.541C80.406,118.804,81.394,121.468,81.394,124.364z"/>
	<path fill="#FFFFFF" d="M74.638,124.501c0-1.121-0.265-2.155-0.711-2.987l-1.605,1.642c0.12,0.428,0.184,0.879,0.184,1.346
		c0,0.44-0.057,0.868-0.165,1.274l1.613,1.662C74.384,126.614,74.638,125.6,74.638,124.501z"/>
</g>
<path fill="#4DB305" d="M42.929,45h-3.857v-3.857c0-0.455-0.402-0.857-0.857-0.857h-0.857c-0.482,0-0.857,0.402-0.857,0.857V45
	h-3.857c-0.482,0-0.857,0.402-0.857,0.857v0.857c0,0.482,0.375,0.857,0.857,0.857H36.5v3.857c0,0.482,0.375,0.857,0.857,0.857h0.857
	c0.455,0,0.857-0.375,0.857-0.857v-3.857h3.857c0.455,0,0.857-0.375,0.857-0.857v-0.857C43.786,45.402,43.384,45,42.929,45z"/>
<path fill="#FFFFFF" d="M58,48.5c1.105,0,2-0.895,2-2s-0.895-2-2-2s-2,0.895-2,2S56.895,48.5,58,48.5z"/>
<path fill="#FFFFFF" d="M65,46.5c0,1.105-0.895,2-2,2s-2-0.895-2-2s0.895-2,2-2C64.105,44.5,65,45.395,65,46.5z"/>
<path fill="#FFFFFF" d="M68,48.5c1.105,0,2-0.895,2-2s-0.895-2-2-2s-2,0.895-2,2S66.895,48.5,68,48.5z"/>
<path fill="none" stroke="#4DB205" stroke-width="3" stroke-linecap="square" d="M117.479,38.24h9.841 M127.32,38.24v9.684
	 M125.939,39.62L113.32,51.88"/>
<path fill="#FFFFFF" d="M154,49v-1h-3v-3h3v2h2v2h-1v2h-2v2h-2v-3h2v-1H154z M159,53h-4v-2h2v-2h2V53z M141,35h8v8h-8V35z M143,37v4
	h4v-4H143z M151,35h8v8h-8V35z M153,37v4h4v-4H153z M141,45h8v8h-8V45z M143,47v4h4v-4H143z M156,45h3v2h-3V45z M144,38h2v2h-2V38z
	 M144,48h2v2h-2V48z M154,38h2v2h-2V38z"/>
</svg>
