<?xml version="1.0" encoding="utf-8"?>
<!-- Generator: Adobe Illustrator 17.0.0, SVG Export Plug-In . SVG Version: 6.00 Build 0)  -->
<!DOCTYPE svg PUBLIC "-//W3C//DTD SVG 1.1//EN" "http://www.w3.org/Graphics/SVG/1.1/DTD/svg11.dtd">
<svg version="1.1" id="Layer_1" xmlns="http://www.w3.org/2000/svg" xmlns:xlink="http://www.w3.org/1999/xlink" x="0px" y="0px"
	 width="160px" height="82.597px" viewBox="0 0 160 82.597" enable-background="new 0 0 160 82.597" xml:space="preserve">
<g>
	<path fill="#FFFFFF" d="M10.098,77.997c-1.403,0-2.745-0.238-4.027-0.714c-1.282-0.476-2.468-1.208-3.559-2.195L4.434,72.8
		c0.883,0.762,1.775,1.347,2.676,1.754c0.9,0.407,1.923,0.611,3.066,0.611c0.987,0,1.771-0.208,2.351-0.624
		c0.58-0.416,0.87-0.97,0.87-1.663v-0.052c0-0.329-0.057-0.619-0.169-0.871c-0.113-0.251-0.321-0.489-0.625-0.714
		c-0.304-0.225-0.721-0.433-1.251-0.624c-0.53-0.19-1.22-0.381-2.071-0.572c-0.973-0.225-1.836-0.48-2.592-0.766
		c-0.755-0.286-1.389-0.632-1.901-1.039c-0.512-0.407-0.903-0.905-1.172-1.494c-0.269-0.589-0.404-1.299-0.404-2.13v-0.052
		c0-0.779,0.154-1.494,0.464-2.143c0.309-0.649,0.734-1.204,1.275-1.663c0.541-0.459,1.192-0.818,1.953-1.078
		c0.76-0.26,1.591-0.39,2.492-0.39c1.333,0,2.533,0.195,3.598,0.585c1.065,0.39,2.065,0.957,3.001,1.702l-1.715,2.416
		c-0.831-0.606-1.654-1.07-2.468-1.39c-0.814-0.32-1.637-0.48-2.468-0.48c-0.935,0-1.663,0.208-2.182,0.624
		c-0.52,0.416-0.78,0.927-0.78,1.533v0.052c0,0.347,0.061,0.654,0.182,0.922c0.122,0.269,0.343,0.511,0.664,0.727
		c0.321,0.217,0.764,0.42,1.328,0.611c0.564,0.191,1.281,0.389,2.149,0.597c0.955,0.243,1.801,0.511,2.54,0.805
		c0.738,0.295,1.35,0.654,1.836,1.078c0.486,0.424,0.855,0.918,1.107,1.481c0.252,0.563,0.378,1.217,0.378,1.962v0.052
		c0,0.848-0.159,1.61-0.477,2.286c-0.318,0.676-0.76,1.247-1.327,1.715c-0.567,0.467-1.248,0.823-2.043,1.065
		C11.924,77.875,11.05,77.997,10.098,77.997z"/>
	<path fill="#FFFFFF" d="M24.257,78.023c-1.555,0-2.755-0.476-3.601-1.429c-0.846-0.952-1.269-2.235-1.269-3.846v-8.729h3.17v7.776
		c0,1.072,0.253,1.896,0.76,2.475c0.506,0.579,1.223,0.869,2.151,0.869c0.91,0,1.648-0.298,2.215-0.895
		c0.567-0.596,0.85-1.43,0.85-2.501v-7.724h3.17v13.718h-3.17v-2.152c-0.449,0.664-1.01,1.236-1.684,1.717
		C26.174,77.782,25.31,78.023,24.257,78.023z"/>
	<path fill="#FFFFFF" d="M35.133,58.927h3.403v2.988h-3.403V58.927z M35.263,64.019h3.17v13.718h-3.17V64.019z"/>
	<path fill="#FFFFFF" d="M46.715,77.997c-0.987,0-1.988-0.175-3.001-0.525c-1.013-0.35-1.953-0.866-2.819-1.549l1.403-2.135
		c0.745,0.555,1.502,0.974,2.273,1.26c0.77,0.286,1.511,0.429,2.221,0.429c0.676,0,1.199-0.134,1.572-0.402
		c0.372-0.268,0.559-0.627,0.559-1.076v-0.052c0-0.259-0.082-0.483-0.247-0.673c-0.165-0.19-0.39-0.355-0.676-0.493
		c-0.286-0.138-0.615-0.268-0.987-0.389c-0.372-0.121-0.758-0.242-1.156-0.363c-0.503-0.138-1.009-0.302-1.52-0.492
		c-0.511-0.19-0.97-0.436-1.377-0.739c-0.407-0.303-0.741-0.678-1-1.128c-0.26-0.449-0.39-1.002-0.39-1.659v-0.052
		c0-0.639,0.125-1.218,0.377-1.737c0.251-0.518,0.598-0.959,1.039-1.322c0.442-0.363,0.961-0.639,1.559-0.829
		c0.597-0.19,1.234-0.285,1.91-0.285c0.866,0,1.741,0.14,2.624,0.42c0.883,0.28,1.689,0.665,2.416,1.155l-1.247,2.244
		c-0.658-0.398-1.325-0.714-2.001-0.948c-0.676-0.234-1.299-0.351-1.871-0.351c-0.606,0-1.078,0.13-1.416,0.389
		c-0.338,0.259-0.507,0.588-0.507,0.985v0.052c0,0.242,0.086,0.454,0.26,0.635c0.173,0.182,0.403,0.346,0.688,0.493
		c0.286,0.147,0.615,0.285,0.987,0.415c0.372,0.13,0.758,0.255,1.156,0.376c0.502,0.155,1.004,0.336,1.507,0.544
		c0.502,0.207,0.957,0.462,1.364,0.764c0.407,0.303,0.74,0.67,1,1.102c0.26,0.432,0.39,0.959,0.39,1.581v0.052
		c0,0.726-0.13,1.357-0.39,1.893c-0.26,0.536-0.62,0.981-1.078,1.335c-0.459,0.354-1,0.622-1.624,0.804
		C48.092,77.906,47.425,77.997,46.715,77.997z"/>
	<path fill="#FFFFFF" d="M59.282,77.997c-0.987,0-1.988-0.175-3.001-0.525c-1.013-0.35-1.953-0.866-2.819-1.549l1.403-2.135
		c0.745,0.555,1.502,0.974,2.273,1.26c0.77,0.286,1.511,0.429,2.221,0.429c0.676,0,1.199-0.134,1.572-0.402
		c0.372-0.268,0.559-0.627,0.559-1.076v-0.052c0-0.259-0.082-0.483-0.247-0.673c-0.165-0.19-0.39-0.355-0.676-0.493
		c-0.286-0.138-0.615-0.268-0.987-0.389c-0.372-0.121-0.758-0.242-1.156-0.363c-0.503-0.138-1.009-0.302-1.52-0.492
		c-0.511-0.19-0.97-0.436-1.377-0.739c-0.407-0.303-0.741-0.678-1-1.128c-0.26-0.449-0.39-1.002-0.39-1.659v-0.052
		c0-0.639,0.125-1.218,0.377-1.737c0.251-0.518,0.598-0.959,1.039-1.322c0.442-0.363,0.961-0.639,1.559-0.829
		c0.597-0.19,1.234-0.285,1.91-0.285c0.866,0,1.741,0.14,2.624,0.42c0.883,0.28,1.689,0.665,2.416,1.155l-1.247,2.244
		c-0.658-0.398-1.325-0.714-2.001-0.948c-0.675-0.234-1.299-0.351-1.871-0.351c-0.606,0-1.078,0.13-1.416,0.389
		c-0.338,0.259-0.507,0.588-0.507,0.985v0.052c0,0.242,0.086,0.454,0.26,0.635c0.173,0.182,0.403,0.346,0.688,0.493
		c0.286,0.147,0.615,0.285,0.987,0.415c0.372,0.13,0.758,0.255,1.156,0.376c0.502,0.155,1.004,0.336,1.507,0.544
		c0.502,0.207,0.957,0.462,1.364,0.764c0.407,0.303,0.74,0.67,1,1.102c0.26,0.432,0.39,0.959,0.39,1.581v0.052
		c0,0.726-0.13,1.357-0.39,1.893c-0.26,0.536-0.62,0.981-1.078,1.335c-0.459,0.354-1,0.622-1.624,0.804
		C60.659,77.906,59.992,77.997,59.282,77.997z"/>
	<path fill="#FFFFFF" d="M73.306,78.049c-0.987,0-1.909-0.173-2.767-0.52c-0.857-0.346-1.602-0.831-2.234-1.455
		c-0.633-0.624-1.13-1.373-1.494-2.247c-0.364-0.874-0.545-1.84-0.545-2.897v-0.052c0-0.987,0.164-1.914,0.494-2.78
		c0.329-0.866,0.792-1.624,1.39-2.273c0.598-0.65,1.303-1.16,2.118-1.533c0.814-0.372,1.715-0.558,2.702-0.558
		c1.091,0,2.048,0.199,2.871,0.598c0.822,0.399,1.507,0.935,2.052,1.61c0.545,0.676,0.957,1.46,1.234,2.352
		c0.277,0.892,0.416,1.831,0.416,2.818c0,0.139-0.005,0.282-0.013,0.429c-0.009,0.147-0.022,0.299-0.039,0.455H69.409
		c0.173,1.126,0.619,1.987,1.338,2.585c0.719,0.598,1.589,0.897,2.611,0.897c0.779,0,1.455-0.138,2.026-0.416
		c0.572-0.277,1.134-0.684,1.689-1.221l1.845,1.637c-0.659,0.78-1.442,1.403-2.351,1.871C75.658,77.815,74.57,78.049,73.306,78.049z
		 M76.424,69.916c-0.052-0.502-0.165-0.974-0.338-1.416c-0.173-0.442-0.407-0.823-0.701-1.143c-0.295-0.32-0.645-0.576-1.052-0.766
		c-0.407-0.191-0.87-0.286-1.39-0.286c-0.97,0-1.771,0.333-2.403,1c-0.632,0.667-1.018,1.537-1.156,2.611L76.424,69.916
		L76.424,69.916z"/>
	<path fill="#FFFFFF" d="M82.753,59.55h8.143c2.092,0,3.674,0.538,4.746,1.611c0.812,0.815,1.219,1.819,1.219,3.014v0.052
		c0,0.554-0.073,1.044-0.219,1.468c-0.146,0.425-0.335,0.797-0.567,1.117c-0.232,0.321-0.507,0.602-0.825,0.844
		c-0.318,0.243-0.64,0.451-0.966,0.624c0.533,0.191,1.02,0.411,1.459,0.663c0.439,0.251,0.818,0.55,1.137,0.896
		c0.318,0.347,0.564,0.754,0.736,1.221c0.172,0.467,0.259,1.013,0.259,1.637v0.052c0,0.815-0.16,1.533-0.48,2.157
		c-0.32,0.624-0.774,1.143-1.362,1.559s-1.297,0.732-2.127,0.948c-0.83,0.217-1.747,0.325-2.75,0.325h-8.403L82.753,59.55
		L82.753,59.55z M90.272,67.215c1.036,0,1.865-0.204,2.486-0.611c0.622-0.407,0.933-1.026,0.933-1.858v-0.052
		c0-0.727-0.272-1.294-0.816-1.702c-0.544-0.407-1.333-0.611-2.369-0.611h-4.584v4.832H90.272z M91.207,74.905
		c1.088,0,1.943-0.208,2.565-0.624c0.622-0.416,0.933-1.039,0.933-1.871v-0.052c0-0.78-0.307-1.381-0.92-1.806
		c-0.613-0.424-1.55-0.637-2.81-0.637h-5.051v4.989H91.207z"/>
	<path fill="#FFFFFF" d="M109.331,77.737v-1.689c-0.468,0.554-1.066,1.022-1.793,1.403c-0.727,0.381-1.611,0.572-2.65,0.572
		c-0.659,0-1.282-0.091-1.871-0.273c-0.589-0.182-1.104-0.45-1.546-0.805c-0.442-0.355-0.797-0.796-1.065-1.325
		c-0.269-0.528-0.403-1.139-0.403-1.832v-0.052c0-0.762,0.139-1.425,0.416-1.987c0.277-0.563,0.663-1.031,1.156-1.403
		c0.494-0.372,1.082-0.649,1.767-0.831c0.684-0.182,1.425-0.273,2.221-0.273c0.831,0,1.537,0.052,2.118,0.156
		c0.58,0.104,1.139,0.243,1.676,0.416v-0.26c0-0.952-0.29-1.68-0.871-2.183c-0.58-0.502-1.416-0.753-2.507-0.753
		c-0.779,0-1.472,0.078-2.078,0.234c-0.606,0.156-1.221,0.364-1.845,0.624l-0.857-2.52c0.762-0.346,1.541-0.624,2.338-0.831
		c0.797-0.208,1.758-0.312,2.884-0.312c2.044,0,3.56,0.506,4.547,1.52c0.987,1.013,1.481,2.438,1.481,4.274v8.132L109.331,77.737
		L109.331,77.737z M109.408,71.995c-0.399-0.156-0.87-0.286-1.416-0.389c-0.546-0.104-1.122-0.156-1.728-0.156
		c-0.987,0-1.758,0.191-2.312,0.572c-0.554,0.381-0.831,0.901-0.831,1.558v0.052c0,0.659,0.255,1.161,0.767,1.507
		c0.51,0.347,1.139,0.52,1.883,0.52c0.52,0,1-0.069,1.442-0.208c0.442-0.139,0.827-0.333,1.156-0.585
		c0.329-0.251,0.585-0.554,0.767-0.909c0.182-0.355,0.272-0.749,0.272-1.182V71.995z"/>
	<path fill="#FFFFFF" d="M120.471,77.997c-0.987,0-1.987-0.175-3.001-0.525c-1.013-0.35-1.953-0.866-2.819-1.549l1.403-2.135
		c0.745,0.555,1.502,0.974,2.273,1.26c0.77,0.286,1.511,0.429,2.222,0.429c0.675,0,1.199-0.134,1.572-0.402
		c0.372-0.268,0.558-0.627,0.558-1.076v-0.052c0-0.259-0.082-0.483-0.247-0.673c-0.165-0.19-0.39-0.355-0.676-0.493
		c-0.285-0.138-0.615-0.268-0.987-0.389c-0.373-0.121-0.758-0.242-1.156-0.363c-0.503-0.138-1.009-0.302-1.52-0.492
		c-0.511-0.19-0.97-0.436-1.377-0.739c-0.407-0.303-0.74-0.678-1-1.128c-0.26-0.449-0.39-1.002-0.39-1.659v-0.052
		c0-0.639,0.125-1.218,0.377-1.737c0.251-0.518,0.597-0.959,1.039-1.322c0.442-0.363,0.961-0.639,1.559-0.829
		s1.234-0.285,1.909-0.285c0.866,0,1.741,0.14,2.624,0.42c0.883,0.28,1.689,0.665,2.416,1.155l-1.247,2.244
		c-0.659-0.398-1.325-0.714-2-0.948c-0.676-0.234-1.299-0.351-1.871-0.351c-0.607,0-1.078,0.13-1.416,0.389
		c-0.338,0.259-0.507,0.588-0.507,0.985v0.052c0,0.242,0.086,0.454,0.26,0.635c0.173,0.182,0.403,0.346,0.689,0.493
		c0.286,0.147,0.615,0.285,0.987,0.415c0.372,0.13,0.758,0.255,1.156,0.376c0.502,0.155,1.004,0.336,1.507,0.544
		c0.502,0.207,0.957,0.462,1.364,0.764c0.406,0.303,0.74,0.67,1,1.102c0.26,0.432,0.389,0.959,0.389,1.581v0.052
		c0,0.726-0.13,1.357-0.389,1.893c-0.26,0.536-0.62,0.981-1.078,1.335c-0.459,0.354-1,0.622-1.624,0.804
		C121.848,77.906,121.181,77.997,120.471,77.997z"/>
	<path fill="#FFFFFF" d="M134.496,78.049c-0.987,0-1.909-0.173-2.767-0.52c-0.857-0.346-1.602-0.831-2.234-1.455
		c-0.633-0.624-1.13-1.373-1.494-2.247c-0.364-0.874-0.545-1.84-0.545-2.897v-0.052c0-0.987,0.164-1.914,0.494-2.78
		c0.329-0.866,0.792-1.624,1.39-2.273c0.598-0.65,1.303-1.16,2.118-1.533c0.814-0.372,1.714-0.558,2.702-0.558
		c1.091,0,2.048,0.199,2.871,0.598c0.822,0.399,1.507,0.935,2.052,1.61c0.545,0.676,0.957,1.46,1.234,2.352
		c0.277,0.892,0.416,1.831,0.416,2.818c0,0.139-0.005,0.282-0.013,0.429c-0.009,0.147-0.022,0.299-0.039,0.455h-10.081
		c0.173,1.126,0.619,1.987,1.338,2.585c0.719,0.598,1.589,0.897,2.611,0.897c0.779,0,1.455-0.138,2.026-0.416
		c0.572-0.277,1.134-0.684,1.689-1.221l1.845,1.637c-0.659,0.78-1.442,1.403-2.351,1.871
		C136.847,77.815,135.76,78.049,134.496,78.049z M137.614,69.916c-0.052-0.502-0.165-0.974-0.338-1.416
		c-0.173-0.442-0.407-0.823-0.701-1.143c-0.295-0.32-0.645-0.576-1.052-0.766c-0.407-0.191-0.87-0.286-1.39-0.286
		c-0.97,0-1.771,0.333-2.404,1c-0.632,0.667-1.018,1.537-1.156,2.611L137.614,69.916L137.614,69.916z"/>
	<polygon fill="#FFFFFF" points="143.719,60.953 141.251,60.953 141.251,59.55 147.72,59.55 147.72,60.953 145.251,60.953 
		145.251,67.552 143.719,67.552 	"/>
	<polygon fill="#FFFFFF" points="149.435,59.55 151.071,59.55 153.487,63.343 155.904,59.55 157.489,59.55 157.489,67.552 
		156.008,67.552 156.008,61.863 153.54,65.708 153.384,65.708 150.915,61.863 150.915,67.552 149.435,67.552 	"/>
	<g>
		<path fill="#FFFFFF" d="M73.509,17.505V9.388l-0.44,0.158c-7.298,2.624-12.569,9.288-13.433,16.974l-0.04,0.365h17.822V53.12
			c-1.394-0.145-2.788-0.414-4.149-0.802c-6.378-1.835-11.77-6.233-14.87-12.108h4.553c2.423,3.633,6.006,6.444,10.116,7.93
			l0.44,0.158v-17.5H55.666c-0.053-0.667-0.082-1.322-0.082-1.956c0-0.727,0.036-1.486,0.105-2.252
			c0.457-4.968,2.453-9.58,5.533-13.298c3.081-3.722,7.246-6.542,12.046-7.923c1.371-0.394,2.771-0.664,4.149-0.805v12.943
			L73.509,17.505L73.509,17.505z"/>
	</g>
	<g>
		<path fill="#FFFFFF" d="M104.31,26.585c-0.457-5.004-2.466-9.639-5.576-13.364c-3.107-3.728-7.312-6.542-12.161-7.9
			c-1.374-0.378-2.771-0.638-4.152-0.773v48.585c1.387-0.135,2.781-0.394,4.152-0.773c9.692-2.722,16.823-11.267,17.737-21.264
			c0.069-0.769,0.105-1.529,0.105-2.255C104.415,28.114,104.379,27.358,104.31,26.585z M100.365,31.161
			c-0.871,7.759-6.207,14.443-13.594,17.03l-0.437,0.155V30.797h14.071L100.365,31.161z M86.333,26.884V9.338l0.437,0.151
			c7.387,2.587,12.723,9.274,13.594,17.03l0.039,0.365L86.333,26.884L86.333,26.884z"/>
	</g>
</g>
</svg>
