<?xml version="1.0" encoding="utf-8"?>
<!-- Generator: Adobe Illustrator 16.0.0, SVG Export Plug-In . SVG Version: 6.00 Build 0)  -->
<!DOCTYPE svg PUBLIC "-//W3C//DTD SVG 1.1//EN" "http://www.w3.org/Graphics/SVG/1.1/DTD/svg11.dtd">
<svg version="1.1" id="Layer_1" xmlns="http://www.w3.org/2000/svg" xmlns:xlink="http://www.w3.org/1999/xlink" x="0px" y="0px"
	 width="1080px" height="1080px" viewBox="0 0 1080 1080" enable-background="new 0 0 1080 1080" xml:space="preserve">
<path fill="#ADADAD" d="M10.73,22.07h8.89v-11.1h-8.89V22.07z M10.73,30.96h8.89V24.3h-8.89V30.96z M21.84,30.96h8.89v-11.1h-8.89
	V30.96z M21.84,10.96v6.66h8.89v-6.66H21.84z"/>
<g>
	<path fill="#ADADAD" d="M91.97,27.97l8.25,0.01c0.5,0,0.95-0.25,1.22-0.63l3.28-4.62l-3.28-4.62c-0.27-0.38-0.72-0.63-1.22-0.63
		l-8.25,0.01l3.63,5.24L91.97,27.97z"/>
	<path fill="#E5E5E5" d="M93.47,12.98l-8.25-0.01c-0.5,0-0.95,0.25-1.22,0.63l-3.28,4.62L84,22.85c0.27,0.38,0.72,0.63,1.22,0.63
		l8.25-0.01l-3.63-5.24L93.47,12.98z"/>
</g>
<path fill="#ADADAD" d="M56.42,32.96l12.3-21.42l-24,5.86l4.54,6.06l14.27-8.02L51.86,26.91L56.42,32.96z"/>
<rect x="286.365" y="-45.02" fill="#949494" width="12" height="30"/>
<path fill="#ADADAD" d="M16.09,83l-7.36,3.27v4.91c0,4.54,3.14,8.79,7.36,9.82c4.22-1.03,7.36-5.28,7.36-9.82v-4.91L16.09,83z
	 M16.09,91.99h5.73c-0.43,3.37-2.68,6.37-5.73,7.31V91.99L10.36,92v-4.66l5.73-2.54V91.99z"/>
<path fill="#EF1936" d="M11.11,202.51V195H9.86v7.51H7.98l2.5,2.49l2.5-2.49H11.11z"/>
<path fill="#0CFA6B" d="M29.48,197.5l-2.5-2.49l-2.5,2.49h1.88v7.51h1.25v-7.51H29.48z"/>
<path fill="#ADADAD" d="M137.9,21.82c0.05-0.39,0.08-0.79,0.08-1.2c0-0.42-0.03-0.82-0.09-1.2l2.61-2.04
	c0.23-0.19,0.29-0.52,0.15-0.79l-2.47-4.27c-0.15-0.28-0.48-0.37-0.76-0.28l-3.07,1.23c-0.65-0.49-1.33-0.89-2.08-1.2l-0.46-3.27
	c-0.05-0.31-0.31-0.52-0.62-0.52h-4.94c-0.31,0-0.56,0.22-0.6,0.52l-0.46,3.27c-0.76,0.31-1.45,0.73-2.08,1.2l-3.07-1.23
	c-0.28-0.11-0.6,0-0.76,0.28l-2.47,4.27c-0.15,0.28-0.09,0.6,0.15,0.79l2.61,2.04c-0.06,0.39-0.11,0.8-0.11,1.2
	c0,0.4,0.03,0.82,0.09,1.2l-2.61,2.04c-0.23,0.19-0.29,0.52-0.15,0.79l2.47,4.27c0.15,0.28,0.48,0.37,0.76,0.28l3.07-1.23
	c0.65,0.49,1.33,0.89,2.08,1.2l0.46,3.27c0.06,0.31,0.31,0.52,0.62,0.52h4.94c0.31,0,0.57-0.22,0.6-0.52l0.46-3.27
	c0.76-0.31,1.45-0.73,2.08-1.2l3.07,1.23c0.28,0.11,0.6,0,0.76-0.28l2.47-4.27c0.15-0.28,0.09-0.6-0.15-0.79L137.9,21.82z
	 M128.72,25.25c-2.55,0-4.63-2.08-4.63-4.63c0-2.55,2.08-4.63,4.63-4.63c2.55,0,4.63,2.08,4.63,4.63
	C133.35,23.17,131.27,25.25,128.72,25.25z"/>
<path fill="#FFFFFF" d="M10.73,57.07h8.89v-11.1h-8.89V57.07z M10.73,65.96h8.89V59.3h-8.89V65.96z M21.84,65.96h8.89v-11.1h-8.89
	V65.96z M21.84,45.96v6.66h8.89v-6.66H21.84z"/>
<g>
	<path fill="#FFFFFF" d="M91.97,62.97l8.25,0.01c0.5,0,0.95-0.25,1.22-0.63l3.28-4.62l-3.28-4.62c-0.27-0.38-0.72-0.63-1.22-0.63
		l-8.25,0.01l3.63,5.24L91.97,62.97z"/>
	<path fill="#FFFFFF" d="M93.47,47.98l-8.25-0.01c-0.5,0-0.95,0.25-1.22,0.63l-3.28,4.62L84,57.85c0.27,0.38,0.72,0.63,1.22,0.63
		l8.25-0.01l-3.63-5.24L93.47,47.98z"/>
</g>
<path fill="#FFFFFF" d="M56.42,67.96l12.3-21.42l-24,5.86l4.54,6.06l14.27-8.02L51.86,61.91L56.42,67.96z"/>
<path fill="#FFFFFF" d="M137.9,56.82c0.05-0.39,0.08-0.79,0.08-1.2s-0.03-0.82-0.09-1.2l2.61-2.04c0.23-0.19,0.29-0.52,0.15-0.79
	l-2.47-4.27c-0.15-0.28-0.48-0.37-0.76-0.28l-3.07,1.23c-0.65-0.49-1.33-0.89-2.08-1.2l-0.46-3.27c-0.05-0.31-0.31-0.52-0.62-0.52
	h-4.94c-0.31,0-0.56,0.22-0.6,0.52l-0.46,3.27c-0.76,0.31-1.45,0.73-2.08,1.2l-3.07-1.23c-0.28-0.11-0.6,0-0.76,0.28l-2.47,4.27
	c-0.15,0.28-0.09,0.6,0.15,0.79l2.61,2.04c-0.06,0.39-0.11,0.8-0.11,1.2c0,0.4,0.03,0.82,0.09,1.2l-2.61,2.04
	c-0.23,0.19-0.29,0.52-0.15,0.79l2.47,4.27c0.15,0.28,0.48,0.37,0.76,0.28l3.07-1.23c0.65,0.49,1.33,0.89,2.08,1.2l0.46,3.27
	c0.06,0.31,0.31,0.52,0.62,0.52h4.94c0.31,0,0.57-0.22,0.6-0.52l0.46-3.27c0.76-0.31,1.45-0.73,2.08-1.2l3.07,1.23
	c0.28,0.11,0.6,0,0.76-0.28l2.47-4.27c0.15-0.28,0.09-0.6-0.15-0.79L137.9,56.82z M128.72,60.25c-2.55,0-4.63-2.08-4.63-4.63
	c0-2.55,2.08-4.63,4.63-4.63c2.55,0,4.63,2.08,4.63,4.63C133.35,58.16,131.27,60.25,128.72,60.25z"/>
<rect x="-67.67" y="4.5" fill="none" width="67.67" height="27.33"/>
<text transform="matrix(1 0 0 1 -67.667 13.0195)" font-family="'MyriadPro-Regular'" font-size="12">24px</text>
<rect x="-67.67" y="95.83" fill="none" width="67.67" height="27.33"/>
<text transform="matrix(1 0 0 1 -67.667 104.3535)" font-family="'MyriadPro-Regular'" font-size="12">18px</text>
<text transform="matrix(1 0 0 1 -67.667 152.1865)" font-family="'MyriadPro-Regular'" font-size="12">20px</text>
<path fill="#ADADAD" d="M152.72,28.62h16v-2.67h-16V28.62z M152.72,12.62v2.67h24v-2.67H152.72z M152.72,21.95h24v-2.67h-24V21.95z"
	/>
<path fill="#ADADAD" d="M152.72,63.96h16v-2.67h-16V63.96z M152.72,47.96v2.67h24v-2.67H152.72z M152.72,57.29h24v-2.67h-24V57.29z"
	/>
<path fill="#ADADAD" d="M43.72,88c1.1,0,2-0.9,2-2s-0.9-2-2-2c-1.1,0-2,0.9-2,2S42.62,88,43.72,88z M43.72,90c-1.1,0-2,0.9-2,2
	s0.9,2,2,2c1.1,0,2-0.9,2-2S44.82,90,43.72,90z M43.72,96c-1.1,0-2,0.9-2,2s0.9,2,2,2c1.1,0,2-0.9,2-2S44.82,96,43.72,96z"/>
<path fill="#ADADAD" d="M69.72,98h4v-2h-4V98z M62.72,86v2h18v-2H62.72z M65.72,93h12v-2h-12V93z"/>
<path fill="#ADADAD" d="M106.345,83c-4.416,0-8,3.584-8,8s3.584,8,8,8s8-3.584,8-8S110.761,83,106.345,83z M107.145,95h-1.6v-4.8
	h1.6V95z M107.145,88.6h-1.6V87h1.6V88.6z"/>
<path fill="#ADADAD" d="M128.805,90v2h12l-5.5,5.5l1.42,1.42l7.92-7.92l-7.92-7.92l-1.42,1.42l5.5,5.5H128.805z"/>
<path fill="#ADADAD" d="M253.891,145.697l6.25-6.25l-1.614-1.614l-9,9l9,9l1.614-1.614l-6.25-6.25h13.636v-2.271L253.891,145.697
	L253.891,145.697L253.891,145.697z"/>
<path fill="#ADADAD" d="M189.311,90v2h12l-5.5,5.5l1.42,1.42l7.92-7.92l-7.92-7.92l-1.42,1.42l5.5,5.5H189.311z"/>
<path fill="#ADADAD" d="M212.11,28.75c-1.442,0-2.6,1.157-2.6,2.601c0,0.689,0.274,1.351,0.761,1.838
	c0.488,0.488,1.149,0.762,1.839,0.762s1.351-0.273,1.839-0.762c0.487-0.487,0.762-1.148,0.762-1.838
	C214.711,29.908,213.541,28.75,212.11,28.75z M191.311,7.951v2.6h2.6l4.68,9.867l-1.768,3.186c-0.195,0.363-0.312,0.793-0.312,1.248
	c0,0.689,0.274,1.351,0.761,1.838c0.488,0.488,1.149,0.762,1.838,0.762h15.601v-2.6h-15.054c-0.086,0-0.169-0.035-0.23-0.096
	c-0.061-0.061-0.095-0.144-0.095-0.229c0-0.065,0.013-0.117,0.039-0.156l1.17-2.119h9.685c0.976,0,1.833-0.546,2.274-1.339
	l4.654-8.411c0.092-0.208,0.156-0.429,0.156-0.65c0-0.345-0.137-0.675-0.381-0.919c-0.244-0.244-0.574-0.381-0.919-0.381h-19.227
	l-1.222-2.6L191.311,7.951L191.311,7.951z M199.11,28.75c-1.443,0-2.6,1.157-2.6,2.601c0,0.689,0.274,1.351,0.761,1.838
	c0.488,0.488,1.149,0.762,1.838,0.762c0.69,0,1.351-0.273,1.839-0.762c0.487-0.487,0.761-1.148,0.761-1.838
	C201.71,29.908,200.541,28.75,199.11,28.75z"/>
<path fill="#FFFFFF" d="M210.921,63.407c-1.442,0-2.6,1.157-2.6,2.601c0,0.689,0.274,1.351,0.761,1.838
	c0.488,0.488,1.149,0.762,1.839,0.762s1.351-0.273,1.839-0.762c0.487-0.487,0.762-1.148,0.762-1.838
	C213.521,64.564,212.352,63.407,210.921,63.407z M190.121,42.607v2.6h2.6l4.68,9.867l-1.768,3.186
	c-0.195,0.363-0.312,0.793-0.312,1.248c0,0.689,0.274,1.351,0.761,1.838c0.488,0.488,1.149,0.762,1.838,0.762h15.601v-2.6h-15.054
	c-0.086,0-0.169-0.035-0.23-0.096s-0.095-0.144-0.095-0.229c0-0.065,0.013-0.117,0.039-0.156l1.17-2.119h9.685
	c0.976,0,1.833-0.546,2.274-1.339l4.654-8.411c0.092-0.208,0.156-0.429,0.156-0.65c0-0.345-0.137-0.675-0.381-0.919
	c-0.244-0.244-0.574-0.381-0.919-0.381h-19.227l-1.222-2.6L190.121,42.607L190.121,42.607z M197.921,63.407
	c-1.443,0-2.6,1.157-2.6,2.601c0,0.689,0.274,1.351,0.761,1.838c0.488,0.488,1.149,0.762,1.838,0.762
	c0.69,0,1.351-0.273,1.839-0.762c0.487-0.487,0.761-1.148,0.761-1.838C200.521,64.564,199.351,63.407,197.921,63.407z"/>
<path fill="#ADADAD" d="M255.109,11.284h-19.333c-1.341,0-2.417,1.075-2.417,2.417v14.5c0,1.342,1.088,2.416,2.417,2.416h19.333
	c1.342,0,2.418-1.074,2.418-2.416v-14.5C257.527,12.359,256.439,11.284,255.109,11.284z M249.068,18.534h-4.833v1.208h3.625
	c0.666,0,1.209,0.544,1.209,1.208v3.625c0,0.664-0.543,1.209-1.209,1.209h-1.207v1.207h-2.417v-1.207h-2.417v-2.418h4.834V22.16
	h-3.625c-0.665,0-1.208-0.545-1.208-1.209v-3.625c0-0.665,0.544-1.208,1.208-1.208h1.208V14.91h2.417v1.208h2.416L249.068,18.534
	L249.068,18.534z"/>
<path fill="#FFFFFF" d="M254.515,45.94h-19.333c-1.341,0-2.417,1.075-2.417,2.417v14.5c0,1.342,1.088,2.416,2.417,2.416h19.333
	c1.342,0,2.418-1.074,2.418-2.416v-14.5C256.933,47.016,255.845,45.94,254.515,45.94z M248.474,53.19h-4.833v1.208h3.625
	c0.666,0,1.209,0.544,1.209,1.208v3.625c0,0.664-0.543,1.209-1.209,1.209h-1.207v1.207h-2.417V60.44h-2.417v-2.418h4.834v-1.207
	h-3.625c-0.665,0-1.208-0.545-1.208-1.209v-3.625c0-0.665,0.544-1.208,1.208-1.208h1.208v-1.208h2.417v1.208h2.416L248.474,53.19
	L248.474,53.19z"/>
<path fill="#ADADAD" d="M277.615,13.729c0-0.383,0.152-0.75,0.423-1.021s0.638-0.423,1.021-0.423c0.383,0,0.75,0.152,1.021,0.423
	s0.423,0.638,0.423,1.021v6.457l1.748,0.188l7.136,3.164c0.766,0.346,1.228,1.111,1.228,1.949v6.299
	c-0.043,1.184-0.982,2.123-2.166,2.166h-9.389c-0.549,0-1.069-0.217-1.445-0.621l-7.078-6.066l1.069-1.112
	c0.274-0.304,0.665-0.462,1.069-0.462h0.318l4.622,2.484L277.615,13.729L277.615,13.729z M279.06,7.951
	c1.532,0,3.002,0.609,4.085,1.692s1.692,2.553,1.692,4.085c0,2.167-1.156,4.001-2.889,4.998v-1.762
	c0.881-0.794,1.443-1.95,1.443-3.235c0-1.149-0.456-2.251-1.269-3.064s-1.915-1.27-3.064-1.27s-2.251,0.457-3.064,1.27
	s-1.269,1.915-1.269,3.064c0,1.286,0.563,2.441,1.444,3.235v1.762c-1.733-0.997-2.889-2.831-2.889-4.998
	c0-1.532,0.608-3.002,1.692-4.085S277.527,7.951,279.06,7.951z"/>
<path fill="#FFFFFF" d="M277.615,48.385c0-0.383,0.152-0.75,0.423-1.021c0.271-0.271,0.638-0.423,1.021-0.423
	c0.383,0,0.75,0.152,1.021,0.423c0.271,0.271,0.423,0.638,0.423,1.021v6.457l1.748,0.188l7.136,3.164
	c0.766,0.346,1.228,1.111,1.228,1.949v6.299c-0.043,1.184-0.982,2.123-2.166,2.166h-9.389c-0.549,0-1.069-0.217-1.445-0.621
	l-7.078-6.066l1.069-1.112c0.274-0.304,0.665-0.462,1.069-0.462h0.318l4.622,2.484L277.615,48.385L277.615,48.385z M279.06,42.607
	c1.532,0,3.002,0.609,4.085,1.692s1.692,2.553,1.692,4.085c0,2.167-1.156,4.001-2.889,4.998V51.62
	c0.881-0.794,1.443-1.95,1.443-3.235c0-1.149-0.456-2.251-1.269-3.064s-1.915-1.27-3.064-1.27s-2.251,0.457-3.064,1.27
	s-1.269,1.915-1.269,3.064c0,1.286,0.563,2.441,1.444,3.235v1.762c-1.733-0.997-2.889-2.831-2.889-4.998
	c0-1.532,0.608-3.002,1.692-4.085S277.527,42.607,279.06,42.607z"/>
<path fill="#FFFFFF" d="M26.73,138.833h-16c-1.11,0-1.99,0.89-1.99,2l-0.01,12c0,1.109,0.89,2,2,2h16c1.109,0,2-0.891,2-2v-12
	C28.73,139.724,27.839,138.833,26.73,138.833z M26.73,152.833h-16v-6h16V152.833z M26.73,142.833h-16v-2h16V142.833z"/>
<path fill="#ADADAD" d="M201.311,138.833h-16c-1.11,0-1.99,0.89-1.99,2l-0.01,12c0,1.109,0.89,2,2,2h16c1.109,0,2-0.891,2-2v-12
	C203.311,139.724,202.42,138.833,201.311,138.833z M201.311,152.833h-16v-6h16V152.833z M201.311,142.833h-16v-2h16V142.833z"/>
<path fill="#FFFFFF" d="M55.35,136.333l-9.5,5v2h19v-2L55.35,136.333z M59.85,145.333v7h3v-7H59.85z M45.85,157.333h19v-3h-19
	V157.333z M53.85,145.333v7h3v-7H53.85z M47.85,145.333v7h3v-7H47.85z"/>
<path fill="#FFFFFF" d="M100.47,152.833v1c0,0.53-0.211,1.039-0.586,1.414s-0.884,0.586-1.414,0.586h-14c-1.11,0-2-0.9-2-2v-14
	c0-0.53,0.211-1.039,0.586-1.414s0.884-0.586,1.414-0.586h14c0.53,0,1.039,0.211,1.414,0.586s0.586,0.884,0.586,1.414v1h-9
	c-1.11,0-2,0.9-2,2v8c0,0.53,0.211,1.039,0.586,1.414s0.884,0.586,1.414,0.586H100.47z M91.47,150.833h10v-8h-10V150.833z
	 M95.47,148.333c-0.398,0-0.779-0.158-1.061-0.439c-0.282-0.281-0.439-0.663-0.439-1.061s0.158-0.779,0.439-1.061
	c0.281-0.282,0.662-0.439,1.061-0.439c0.399,0,0.779,0.158,1.061,0.439c0.282,0.281,0.439,0.663,0.439,1.061
	s-0.158,0.779-0.439,1.061C96.25,148.176,95.869,148.333,95.47,148.333z"/>
<path fill="#ADADAD" d="M169.95,93.778h-0.723l-0.256-0.247c0.896-1.043,1.436-2.397,1.436-3.87c0-3.284-2.662-5.946-5.946-5.946
	s-5.946,2.662-5.946,5.946c0,3.284,2.662,5.946,5.946,5.946c1.473,0,2.827-0.54,3.87-1.436l0.247,0.256v0.723l4.574,4.565
	l1.363-1.363L169.95,93.778z M164.461,93.778c-2.278,0-4.117-1.839-4.117-4.117c0-2.278,1.839-4.117,4.117-4.117
	s4.117,1.839,4.117,4.117C168.578,91.939,166.739,93.778,164.461,93.778z"/>
<path fill="#FFFFFF" d="M127,137.833c-4.968,0-9,4.032-9,9s4.032,9,9,9s9-4.032,9-9S131.968,137.833,127,137.833z M131.5,147.733
	h-3.6v3.6h-1.8v-3.6h-3.6v-1.8h3.6v-3.6h1.8v3.6h3.6V147.733z"/>
<path fill="#ADADAD" d="M167.557,138.821L165.735,137l-7.22,7.22l-7.22-7.22l-1.821,1.821l7.22,7.22l-7.22,7.22l1.821,1.821
	l7.22-7.22l7.22,7.22l1.821-1.821l-7.22-7.22L167.557,138.821z"/>
<path fill="#ADADAD" d="M225.081,89.915h-1.6v1.6h1.6V89.915z M228.281,89.915h-1.6v1.6h1.6V89.915z M231.481,89.915h-1.6v1.6h1.6
	V89.915z M233.081,84.315h-0.8v-1.6h-1.6v1.6h-6.4v-1.6h-1.6v1.6h-0.8c-0.888,0-1.6,0.72-1.6,1.6v11.2
	c0,0.424,0.169,0.831,0.469,1.131c0.3,0.3,0.707,0.469,1.131,0.469h11.2c0.424,0,0.831-0.169,1.131-0.469
	c0.3-0.3,0.469-0.707,0.469-1.131v-11.2c0-0.424-0.169-0.831-0.469-1.131C233.912,84.484,233.505,84.315,233.081,84.315z
	 M233.081,97.115h-11.2v-8.8h11.2V97.115z"/>
<path fill="#FFFFFF" d="M22.019,247.522l5.244-8.248l-2.338-1.487l-5.244,8.249l-3.507-2.229l1.692,7.668l7.661-1.723
	L22.019,247.522z M24.314,225.834l-7.661,1.722l3.507,2.229l-5.244,8.249l2.338,1.487l5.243-8.25l3.508,2.229L24.314,225.834z"/>
<circle fill="#3F76FF" cx="227.481" cy="146.833" r="9"/>
<path fill="#FFFFFF" d="M228.09,150.63l2.226-3.795l-1.076-0.63L227.014,150l-1.613-0.946l0.884,3.421l3.417-0.898L228.09,150.63z
	 M228.772,140.839l-3.417,0.898l1.613,0.946l-2.225,3.794l1.076,0.63l2.225-3.794l1.613,0.946L228.772,140.839z"/>
<path fill="#FFFFFF" d="M288.803,140.583l8.227,10.5h-16.454L288.803,140.583z"/>
<path fill="#FFFFFF" d="M311.5,142.657h4v-4h12v12h-4v4h-12V142.657z M323.5,142.657v6h2v-8h-8v2H323.5z M313.5,146.657v6h8v-6
	H313.5z"/>
<g>
	<path fill="#ADADAD" d="M41.26,196.29l4.59,4.59l4.59-4.59l1.41,1.42l-6,6l-6-6L41.26,196.29z"/>
</g>
<path fill="#1A0E96" d="M68.385,203.365l3.694,0.004c0.226,0,0.428-0.111,0.549-0.282l1.467-2.069l-1.467-2.069
	c-0.121-0.171-0.323-0.282-0.549-0.282l-3.694,0.003l1.626,2.348L68.385,203.365z"/>
<path fill="#1A0E96" d="M69.056,196.654l-3.694-0.003c-0.225,0-0.427,0.111-0.548,0.282l-1.468,2.069l1.468,2.069
	c0.121,0.171,0.323,0.282,0.548,0.282l3.694-0.004l-1.625-2.348L69.056,196.654z"/>
<path fill="#ADADAD" d="M318.377,44.951h-2.667v13.333h2.667V44.951z M324.817,47.845l-1.895,1.893
	c2.107,1.693,3.453,4.293,3.453,7.213c0,5.16-4.173,9.333-9.333,9.333s-9.333-4.173-9.333-9.333c0-2.92,1.347-5.52,3.44-7.227
	l-1.882-1.88c-2.587,2.2-4.227,5.453-4.227,9.107c0,6.627,5.373,12,12,12s12-5.373,12-12
	C329.043,53.298,327.403,50.045,324.817,47.845z"/>
<path fill="#FFFFFF" d="M351.914,137.833c-2.387,0-4.676,0.948-6.363,2.636c-1.688,1.688-2.637,3.977-2.637,6.364h-3l4,4l4-4h-3
	c0-1.856,0.737-3.637,2.05-4.95c1.313-1.313,3.094-2.05,4.95-2.05c1.857,0,3.638,0.737,4.949,2.05
	c1.313,1.313,2.051,3.093,2.051,4.95s-0.736,3.637-2.051,4.949c-1.313,1.313-3.094,2.051-4.949,2.051c-1.5,0-2.91-0.5-4.061-1.3
	l-1.439,1.44c1.54,1.159,3.439,1.859,5.5,1.859c2.388,0,4.677-0.948,6.363-2.636c1.688-1.688,2.637-3.978,2.637-6.364
	c0-2.386-0.947-4.676-2.637-6.364C356.589,138.782,354.301,137.833,351.914,137.833z M353.914,146.833
	c0-0.53-0.211-1.039-0.586-1.414s-0.884-0.586-1.414-0.586c-0.529,0-1.039,0.211-1.414,0.586s-0.586,0.884-0.586,1.414
	c0,0.53,0.211,1.039,0.586,1.414s0.885,0.586,1.414,0.586c0.53,0,1.039-0.211,1.414-0.586S353.914,147.364,353.914,146.833z"/>
<rect x="-5.5" y="-81.167" fill="#ADADAD" width="29.98" height="28.667"/>
<path fill="#FFFFFF" d="M262.558,98.465h-8.25v-10.5h8.25V98.465z M262.558,86.465h-8.25c-0.398,0-0.779,0.158-1.061,0.439
	s-0.439,0.663-0.439,1.061v10.5c0,0.398,0.158,0.779,0.439,1.061s0.663,0.439,1.061,0.439h8.25c0.398,0,0.779-0.158,1.061-0.439
	s0.439-0.662,0.439-1.061v-10.5c0-0.398-0.158-0.779-0.439-1.061S262.957,86.465,262.558,86.465z M260.308,83.465h-9
	c-0.398,0-0.779,0.158-1.061,0.439s-0.439,0.663-0.439,1.061v10.5h1.5v-10.5h9V83.465z"/>
</svg>
