<svg width="164" height="164" viewBox="0 0 164 164" fill="none" xmlns="http://www.w3.org/2000/svg">
<path d="M0 0V54.4531H54.4531V0H0ZM41.6406 41.6406H12.8125V12.8125H41.6406V41.6406Z" fill="black"/>
<path d="M33.6328 20.8203H20.8203V33.6328H33.6328V20.8203Z" fill="black"/>
<path d="M109.547 0V54.4531H164V0H109.547ZM151.188 41.6406H122.359V12.8125H151.188V41.6406Z" fill="black"/>
<path d="M143.18 20.8203H130.367V33.6328H143.18V20.8203Z" fill="black"/>
<path d="M0 109.547V164H54.4531V109.547H0ZM41.6406 151.188H12.8125V122.359H41.6406V151.188Z" fill="black"/>
<path d="M33.6328 130.367H20.8203V143.18H33.6328V130.367Z" fill="black"/>
<path d="M25.625 63.1016H12.8125V75.9141H25.625V63.1016Z" fill="black"/>
<path d="M38.4375 88.7266V75.9141H25.625V88.7266H38.1172V101.539H50.9297V88.7266H38.4375Z" fill="black"/>
<path d="M102.5 24.6641H89.6875V37.4766H102.5V24.6641Z" fill="black"/>
<path d="M76.875 12.8125H64.0625V37.4766H76.875V12.8125Z" fill="black"/>
<path d="M89.6875 0H76.875V12.8125H89.6875V0Z" fill="black"/>
<path d="M76.875 37.4766V50.2891H64.0625V63.1016H89.6875V37.4766H76.875Z" fill="black"/>
<path d="M89.6875 113.711V101.219H76.875V75.9141H64.0625V101.539H76.875V114.031H89.6875V126.523H115.312V113.711H89.6875Z" fill="black"/>
<path d="M102.5 63.1016H89.6875V88.7266H102.5V63.1016Z" fill="black"/>
<path d="M151.188 75.5938V63.1016H127.805V75.9141H115.312V88.7266H128.125V101.219H164V75.5938H151.188ZM151.188 88.4062H128.125V75.9141H151.188V88.4062Z" fill="black"/>
<path d="M164 113.711H151.188V139.336H164V113.711Z" fill="black"/>
<path d="M115.312 88.7266H102.5V101.539H115.312V88.7266Z" fill="black"/>
<path d="M128.125 126.523H115.312V139.336H128.125V126.523Z" fill="black"/>
<path d="M140.938 113.711H128.125V126.523H140.938V113.711Z" fill="black"/>
<path d="M128.125 139.336V164H140.938V152.148H151.188V139.336H128.125Z" fill="black"/>
<path d="M76.875 114.031H64.0625V138.375H76.875V114.031Z" fill="black"/>
<path d="M102.5 151.188V138.375H76.875V164H89.6875V151.188H102.18V164H114.992V151.188H102.5Z" fill="black"/>
<path d="M64.0625 63.1016H38.4375V75.9141H64.0625V63.1016Z" fill="black"/>
<path d="M12.8125 75.9141H0V101.539H12.8125V75.9141Z" fill="black"/>
</svg>
