<?xml version="1.0" encoding="utf-8"?>
<!-- Generator: Adobe Illustrator 17.0.0, SVG Export Plug-In . SVG Version: 6.00 Build 0)  -->
<!DOCTYPE svg PUBLIC "-//W3C//DTD SVG 1.1//EN" "http://www.w3.org/Graphics/SVG/1.1/DTD/svg11.dtd">
<svg version="1.1" id="Layer_1" xmlns="http://www.w3.org/2000/svg" xmlns:xlink="http://www.w3.org/1999/xlink" x="0px" y="0px"
	 width="512px" height="512px" viewBox="0 0 512 512" enable-background="new 0 0 512 512" xml:space="preserve">
<rect display="none" width="512" height="512"/>
<path fill="none" stroke="#FAFCFE" stroke-width="1.5" stroke-linecap="round" stroke-linejoin="round" d="M249.339,74.126v13
	 M249.339,74.126c-1.168-0.776-2.754-1.253-4.5-1.253s-3.332,0.477-4.5,1.253v13c1.168-0.776,2.754-1.253,4.5-1.253
	s3.332,0.477,4.5,1.253 M249.339,74.126c1.168-0.776,2.754-1.253,4.5-1.253s3.332,0.477,4.5,1.253v13
	c-1.168-0.776-2.754-1.253-4.5-1.253s-3.332,0.477-4.5,1.253"/>
<g>
	<path fill="none" stroke="#FAFCFE" stroke-width="1.5" stroke-linecap="round" stroke-linejoin="round" d="M15.88,7.01
		c0-1.43-0.57-2.81-1.58-3.82s-2.39-1.58-3.82-1.58S7.67,2.18,6.66,3.19C5.65,4.21,5.08,5.58,5.08,7.01c0,6.3-2.7,8.1-2.7,8.1h16.2
		C18.58,15.12,15.88,13.32,15.88,7.01z"/>
	<path fill="none" stroke="#FAFCFE" stroke-width="1.5" stroke-linecap="round" stroke-linejoin="round" d="M12.04,18.72
		c-0.16,0.271-0.39,0.5-0.66,0.66s-0.58,0.24-0.9,0.24s-0.63-0.08-0.9-0.24S9.08,19,8.92,18.72"/>
</g>
<g>
	<path fill="none" stroke="#FAFCFE" stroke-width="1.5" stroke-linecap="round" stroke-linejoin="round" d="M39.42,13.31
		c1.36,0,2.45-1.1,2.45-2.45c0-1.36-1.1-2.45-2.45-2.45c-1.36,0-2.45,1.1-2.45,2.45C36.96,12.21,38.06,13.31,39.42,13.31z"/>
	<path fill="none" stroke="#FAFCFE" stroke-width="1.5" stroke-linecap="round" stroke-linejoin="round" d="M45.47,13.31
		c-0.11,0.25-0.14,0.52-0.09,0.79s0.17,0.51,0.36,0.7l0.05,0.05c0.15,0.15,0.27,0.33,0.36,0.53c0.08,0.2,0.12,0.41,0.12,0.63
		c0,0.22-0.04,0.43-0.12,0.63c-0.08,0.2-0.2,0.38-0.36,0.53c-0.15,0.15-0.33,0.27-0.53,0.36c-0.2,0.08-0.41,0.12-0.63,0.12
		S44.2,17.61,44,17.53s-0.38-0.2-0.53-0.36l-0.05-0.05c-0.19-0.19-0.44-0.32-0.7-0.36c-0.27-0.05-0.54-0.02-0.79,0.09
		c-0.24,0.1-0.45,0.28-0.59,0.5c-0.15,0.22-0.22,0.48-0.22,0.74v0.14c0,0.43-0.17,0.85-0.48,1.16s-0.72,0.48-1.16,0.48
		c-0.43,0-0.85-0.17-1.16-0.48s-0.48-0.72-0.48-1.16v-0.07c-0.01-0.27-0.09-0.53-0.25-0.75s-0.38-0.39-0.63-0.48
		c-0.25-0.11-0.52-0.14-0.79-0.09s-0.51,0.17-0.7,0.36l-0.05,0.05c-0.15,0.15-0.33,0.27-0.53,0.36c-0.2,0.08-0.41,0.12-0.63,0.12
		s-0.43-0.04-0.63-0.12s-0.38-0.2-0.53-0.36c-0.15-0.15-0.27-0.33-0.36-0.53c-0.08-0.2-0.12-0.41-0.12-0.63
		c0-0.22,0.04-0.43,0.12-0.63c0.08-0.2,0.2-0.38,0.36-0.53l0.05-0.05c0.19-0.19,0.32-0.44,0.36-0.7c0.05-0.27,0.02-0.54-0.09-0.79
		c-0.1-0.24-0.28-0.45-0.5-0.59c-0.22-0.15-0.48-0.22-0.74-0.22h-0.14c-0.43,0-0.85-0.17-1.16-0.48s-0.48-0.72-0.48-1.16
		c0-0.43,0.17-0.85,0.48-1.16c0.31-0.31,0.72-0.48,1.16-0.48h0.07c0.27-0.01,0.53-0.09,0.75-0.25s0.39-0.38,0.48-0.63
		c0.11-0.25,0.14-0.52,0.09-0.79s-0.17-0.51-0.36-0.7l-0.05-0.05c-0.15-0.15-0.27-0.33-0.36-0.53c-0.08-0.2-0.12-0.41-0.12-0.63
		c0-0.22,0.04-0.43,0.12-0.63c0.08-0.2,0.2-0.38,0.36-0.53c0.15-0.15,0.33-0.27,0.53-0.36c0.2-0.08,0.41-0.12,0.63-0.12
		s0.43,0.04,0.63,0.12s0.38,0.2,0.53,0.36l0.05,0.05c0.19,0.19,0.44,0.32,0.7,0.36c0.29,0.03,0.56,0,0.81-0.11h0.07
		c0.24-0.1,0.45-0.28,0.59-0.5c0.15-0.22,0.22-0.48,0.22-0.74V3.49c0-0.43,0.17-0.85,0.48-1.16s0.72-0.48,1.16-0.48
		c0.43,0,0.85,0.17,1.16,0.48s0.48,0.72,0.48,1.16v0.07c0,0.26,0.08,0.52,0.22,0.74c0.15,0.22,0.35,0.39,0.59,0.5
		c0.25,0.11,0.52,0.14,0.79,0.09c0.27-0.05,0.51-0.17,0.7-0.36l0.05-0.05c0.15-0.15,0.33-0.27,0.53-0.36C44.14,4.04,44.35,4,44.57,4
		S45,4.04,45.2,4.12s0.38,0.2,0.53,0.36c0.15,0.15,0.27,0.33,0.36,0.53c0.08,0.2,0.12,0.41,0.12,0.63c0,0.22-0.04,0.43-0.12,0.63
		c-0.08,0.2-0.2,0.38-0.36,0.53l-0.05,0.05c-0.19,0.19-0.32,0.44-0.36,0.7c-0.05,0.27-0.02,0.54,0.09,0.79V8.4
		c0.1,0.24,0.28,0.45,0.5,0.59c0.22,0.15,0.48,0.22,0.74,0.22h0.14c0.43,0,0.85,0.17,1.16,0.48c0.31,0.31,0.48,0.72,0.48,1.16
		c0,0.43-0.17,0.85-0.48,1.16c-0.31,0.31-0.72,0.48-1.16,0.48h-0.07c-0.26,0-0.52,0.08-0.74,0.22
		C45.75,12.86,45.57,13.06,45.47,13.31L45.47,13.31z"/>
</g>
<path fill="#FFFFFF" d="M7.902,245.17l0.784,0.882l9.653,10.863l9.653-10.863l0.784-0.882l1.559,1.755l-0.784,0.882l-9.653,10.863
	l9.653,10.863l0.784,0.882l-1.559,1.755l-0.784-0.882l-9.653-10.863l-9.661,10.863l-0.784,0.882l-1.559-1.755l0.784-0.882
	l9.653-10.863l-9.653-10.863l-0.784-0.882L7.902,245.17z"/>
<path fill="#7C4DFF" d="M3.83,113.16l1,1l9,9l9-9l1-1l2,2l-1,1l-9,9l9,9l1,1l-2,2l-1-1l-9-9l-9,9l-1,1l-2-2l1-1l9-9l-9-9l-1-1
	L3.83,113.16z"/>
<path fill="#389738" d="M93.17,8l5,5h-10L93.17,8z"/>
<path fill="#FF3A1A" d="M113.5,13l5-5h-10L113.5,13z"/>
<rect x="43.375" y="-62.458" fill="#FF3A1A" width="10" height="31.5"/>
<path fill="#FAFCFE" d="M134.048,7.938l6,5.292h-12L134.048,7.938z"/>
<path fill="#FAFCFE" d="M154.214,12.788l-5-4.41h10L154.214,12.788z"/>
<path fill="#FFFFFF" d="M170.82,1.054l0.633,0.633l7.101,7.101l7.101-7.101l0.633-0.633l1.266,1.266l-0.633,0.633l-7.101,7.101
	l7.101,7.101l0.633,0.633l-1.266,1.266l-0.633-0.633l-7.101-7.101l-7.101,7.101l-0.633,0.633l-1.266-1.266l0.633-0.633l7.101-7.101
	l-7.101-7.101l-0.633-0.633L170.82,1.054z"/>
<path fill="#FAFCFE" d="M214.436,19.304l-6.194-6.196c-2.756,1.959-6.553,1.48-8.735-1.102c-2.183-2.582-2.022-6.406,0.369-8.797
	c2.39-2.392,6.215-2.553,8.797-0.37c2.583,2.182,3.062,5.98,1.103,8.736l6.195,6.196l-1.533,1.533H214.436z M204.473,3.472
	c-2.055,0-3.829,1.442-4.246,3.455c-0.418,2.013,0.635,4.042,2.521,4.859s4.087,0.198,5.269-1.483
	c1.183-1.681,1.023-3.961-0.383-5.461l0.656,0.65l-0.739-0.737l-0.013-0.013C206.727,3.926,205.623,3.469,204.473,3.472z"/>
<path fill="#FAFCFE" d="M232.468,10.747l-6-6l-1.411,1.411l4.592,4.592l-4.592,4.585l1.411,1.411L232.468,10.747z"/>
<g>
	<path fill="#0E0E2C" d="M251.5,16.227c-1.582,0-3.013-0.641-4.05-1.677l4.05-4.05V4.773c3.163,0,5.727,2.564,5.727,5.727
		S254.663,16.227,251.5,16.227z"/>
	<path fill="#0E0E2C" d="M251.5,1.5c-4.975,0-9,4.025-9,9s4.025,9,9,9s9-4.025,9-9S256.475,1.5,251.5,1.5z M251.5,17.864
		c-4.066,0-7.364-3.297-7.364-7.364s3.297-7.364,7.364-7.364s7.364,3.297,7.364,7.364S255.566,17.864,251.5,17.864z"/>
</g>
<path fill="#FAFCFE" d="M68.667,16.667h-9v-2h9V16.667z M77.667,11.667h-18v-2h18V11.667z M77.667,6.667h-9v-2h9V6.667z"/>
<path fill="#FFFFFF" d="M332.14,13.119c-0.146,0.149-0.229,0.338-0.229,0.561c0,0.446,0.352,0.805,0.798,0.805
	c0.223,0,0.426-0.095,0.582-0.25l4.627-4.735l4.613,4.735c0.148,0.156,0.364,0.25,0.582,0.25c0.439,0,0.798-0.359,0.798-0.805
	c0-0.223-0.081-0.413-0.23-0.561l-5.141-5.263c-0.176-0.189-0.392-0.277-0.629-0.284c-0.237,0-0.44,0.095-0.622,0.284L332.14,13.119
	z"/>
<path fill="#FFFFFF" d="M359.954,14.201c0.183,0.189,0.386,0.284,0.622,0.284c0.237-0.007,0.453-0.095,0.629-0.284l5.141-5.263
	c0.149-0.149,0.23-0.338,0.23-0.561c0-0.446-0.354-0.805-0.798-0.805c-0.225,0-0.434,0.095-0.582,0.25l-4.613,4.735l-4.627-4.735
	c-0.156-0.156-0.359-0.25-0.582-0.25c-0.446,0-0.798,0.359-0.798,0.805c0,0.223,0.081,0.413,0.229,0.561L359.954,14.201z"/>
<g>
	<path fill="#FAFCFE" d="M432,6.485v14l4.8-3.6c0.347-0.26,0.771-0.401,1.2-0.4h8c1.105,0,2-0.895,2-2v-8c0-1.105-0.895-2-2-2h-12
		C432.895,4.485,432,5.38,432,6.485z M434,16.485v-10h12v8h-8.666c-0.433-0.001-0.854,0.139-1.2,0.4L434,16.485z"/>
	<path fill="#FAFCFE" d="M452,24.485v-13c0-1.105-0.895-2-2-2v11l-2.134-1.6c-0.354-0.261-0.771-0.401-1.2-0.4H437
		c0,1.105,0.895,2,2,2h7c0.433-0.001,0.854,0.14,1.2,0.4L452,24.485z"/>
</g>
<g>
	<path fill="none" stroke="#FAFCFE" stroke-width="1.5" stroke-linecap="round" stroke-linejoin="round" d="M15.88,7.01
		c0-1.43-0.57-2.81-1.58-3.82s-2.39-1.58-3.82-1.58S7.67,2.18,6.66,3.19C5.65,4.21,5.08,5.58,5.08,7.01c0,6.3-2.7,8.1-2.7,8.1h16.2
		C18.58,15.12,15.88,13.32,15.88,7.01z"/>
	<path fill="none" stroke="#FAFCFE" stroke-width="1.5" stroke-linecap="round" stroke-linejoin="round" d="M12.04,18.72
		c-0.16,0.271-0.39,0.5-0.66,0.66s-0.58,0.24-0.9,0.24s-0.63-0.08-0.9-0.24S9.08,19,8.92,18.72"/>
</g>
<g>
	<path fill="none" stroke="#FAFCFE" stroke-width="1.5" stroke-linecap="round" stroke-linejoin="round" d="M39.42,13.31
		c1.36,0,2.45-1.1,2.45-2.45c0-1.36-1.1-2.45-2.45-2.45c-1.36,0-2.45,1.1-2.45,2.45C36.96,12.21,38.06,13.31,39.42,13.31z"/>
	<path fill="none" stroke="#FAFCFE" stroke-width="1.5" stroke-linecap="round" stroke-linejoin="round" d="M45.47,13.31
		c-0.11,0.25-0.14,0.52-0.09,0.79s0.17,0.51,0.36,0.7l0.05,0.05c0.15,0.15,0.27,0.33,0.36,0.53c0.08,0.2,0.12,0.41,0.12,0.63
		c0,0.22-0.04,0.43-0.12,0.63c-0.08,0.2-0.2,0.38-0.36,0.53c-0.15,0.15-0.33,0.27-0.53,0.36c-0.2,0.08-0.41,0.12-0.63,0.12
		S44.2,17.61,44,17.53s-0.38-0.2-0.53-0.36l-0.05-0.05c-0.19-0.19-0.44-0.32-0.7-0.36c-0.27-0.05-0.54-0.02-0.79,0.09
		c-0.24,0.1-0.45,0.28-0.59,0.5c-0.15,0.22-0.22,0.48-0.22,0.74v0.14c0,0.43-0.17,0.85-0.48,1.16s-0.72,0.48-1.16,0.48
		c-0.43,0-0.85-0.17-1.16-0.48s-0.48-0.72-0.48-1.16v-0.07c-0.01-0.27-0.09-0.53-0.25-0.75s-0.38-0.39-0.63-0.48
		c-0.25-0.11-0.52-0.14-0.79-0.09s-0.51,0.17-0.7,0.36l-0.05,0.05c-0.15,0.15-0.33,0.27-0.53,0.36c-0.2,0.08-0.41,0.12-0.63,0.12
		s-0.43-0.04-0.63-0.12s-0.38-0.2-0.53-0.36c-0.15-0.15-0.27-0.33-0.36-0.53c-0.08-0.2-0.12-0.41-0.12-0.63
		c0-0.22,0.04-0.43,0.12-0.63c0.08-0.2,0.2-0.38,0.36-0.53l0.05-0.05c0.19-0.19,0.32-0.44,0.36-0.7c0.05-0.27,0.02-0.54-0.09-0.79
		c-0.1-0.24-0.28-0.45-0.5-0.59c-0.22-0.15-0.48-0.22-0.74-0.22h-0.14c-0.43,0-0.85-0.17-1.16-0.48s-0.48-0.72-0.48-1.16
		c0-0.43,0.17-0.85,0.48-1.16c0.31-0.31,0.72-0.48,1.16-0.48h0.07c0.27-0.01,0.53-0.09,0.75-0.25s0.39-0.38,0.48-0.63
		c0.11-0.25,0.14-0.52,0.09-0.79s-0.17-0.51-0.36-0.7l-0.05-0.05c-0.15-0.15-0.27-0.33-0.36-0.53c-0.08-0.2-0.12-0.41-0.12-0.63
		c0-0.22,0.04-0.43,0.12-0.63c0.08-0.2,0.2-0.38,0.36-0.53c0.15-0.15,0.33-0.27,0.53-0.36c0.2-0.08,0.41-0.12,0.63-0.12
		s0.43,0.04,0.63,0.12s0.38,0.2,0.53,0.36l0.05,0.05c0.19,0.19,0.44,0.32,0.7,0.36c0.29,0.03,0.56,0,0.81-0.11h0.07
		c0.24-0.1,0.45-0.28,0.59-0.5c0.15-0.22,0.22-0.48,0.22-0.74V3.49c0-0.43,0.17-0.85,0.48-1.16s0.72-0.48,1.16-0.48
		c0.43,0,0.85,0.17,1.16,0.48s0.48,0.72,0.48,1.16v0.07c0,0.26,0.08,0.52,0.22,0.74c0.15,0.22,0.35,0.39,0.59,0.5
		c0.25,0.11,0.52,0.14,0.79,0.09c0.27-0.05,0.51-0.17,0.7-0.36l0.05-0.05c0.15-0.15,0.33-0.27,0.53-0.36C44.14,4.04,44.35,4,44.57,4
		S45,4.04,45.2,4.12s0.38,0.2,0.53,0.36c0.15,0.15,0.27,0.33,0.36,0.53c0.08,0.2,0.12,0.41,0.12,0.63c0,0.22-0.04,0.43-0.12,0.63
		c-0.08,0.2-0.2,0.38-0.36,0.53l-0.05,0.05c-0.19,0.19-0.32,0.44-0.36,0.7c-0.05,0.27-0.02,0.54,0.09,0.79V8.4
		c0.1,0.24,0.28,0.45,0.5,0.59c0.22,0.15,0.48,0.22,0.74,0.22h0.14c0.43,0,0.85,0.17,1.16,0.48c0.31,0.31,0.48,0.72,0.48,1.16
		c0,0.43-0.17,0.85-0.48,1.16c-0.31,0.31-0.72,0.48-1.16,0.48h-0.07c-0.26,0-0.52,0.08-0.74,0.22
		C45.75,12.86,45.57,13.06,45.47,13.31L45.47,13.31z"/>
</g>
<path fill="#7C4DFF" d="M3.83,113.16l1,1l9,9l9-9l1-1l2,2l-1,1l-9,9l9,9l1,1l-2,2l-1-1l-9-9l-9,9l-1,1l-2-2l1-1l9-9l-9-9l-1-1
	L3.83,113.16z"/>
<path fill="#389738" d="M93.17,8l5,5h-10L93.17,8z"/>
<path fill="#FF3A1A" d="M113.5,13l5-5h-10L113.5,13z"/>
<path fill="#FAFCFE" d="M134.048,7.938l6,5.292h-12L134.048,7.938z"/>
<path fill="#FAFCFE" d="M154.214,12.788l-5-4.41h10L154.214,12.788z"/>
<path fill="#FAFCFE" d="M86.731,46.557l-4.422,4.989l0.024-10L86.731,46.557z"/>
<path fill="#FAFCFE" d="M96.809,46.535l4.422-4.989l-0.024,10L96.809,46.535z"/>
<path fill="#FFFFFF" d="M170.82,1.054l0.633,0.633l7.101,7.101l7.101-7.101l0.633-0.633l1.266,1.266l-0.633,0.633l-7.101,7.101
	l7.101,7.101l0.633,0.633l-1.266,1.266l-0.633-0.633l-7.101-7.101l-7.101,7.101l-0.633,0.633l-1.266-1.266l0.633-0.633l7.101-7.101
	l-7.101-7.101l-0.633-0.633L170.82,1.054z"/>
<path fill="#898989" d="M43.167,71.5l0.633,0.633l7.101,7.101l7.101-7.101l0.633-0.633l1.266,1.266l-0.633,0.633L52.167,80.5
	l7.101,7.101l0.633,0.633L58.635,89.5l-0.633-0.633l-7.101-7.101L43.8,88.867L43.167,89.5l-1.266-1.266l0.633-0.633l7.101-7.101
	l-7.101-7.101l-0.633-0.633L43.167,71.5z"/>
<path fill="#FAFCFE" d="M214.436,19.304l-6.194-6.196c-2.756,1.959-6.553,1.48-8.735-1.102c-2.183-2.582-2.022-6.406,0.369-8.797
	c2.39-2.392,6.215-2.553,8.797-0.37c2.583,2.182,3.062,5.98,1.103,8.736l6.195,6.196l-1.533,1.533H214.436z M204.473,3.472
	c-2.055,0-3.829,1.442-4.246,3.455c-0.418,2.013,0.635,4.042,2.521,4.859s4.087,0.198,5.269-1.483
	c1.183-1.681,1.023-3.961-0.383-5.461l0.656,0.65l-0.739-0.737l-0.013-0.013C206.727,3.926,205.623,3.469,204.473,3.472z"/>
<g>
	<path fill="#0E0E2C" d="M251.5,16.227c-1.582,0-3.013-0.641-4.05-1.677l4.05-4.05V4.773c3.163,0,5.727,2.564,5.727,5.727
		S254.663,16.227,251.5,16.227z"/>
	<path fill="#0E0E2C" d="M251.5,1.5c-4.975,0-9,4.025-9,9s4.025,9,9,9s9-4.025,9-9S256.475,1.5,251.5,1.5z M251.5,17.864
		c-4.066,0-7.364-3.297-7.364-7.364s3.297-7.364,7.364-7.364s7.364,3.297,7.364,7.364S255.566,17.864,251.5,17.864z"/>
</g>
<path fill="#FAFCFE" d="M68.667,16.667h-9v-2h9V16.667z M77.667,11.667h-18v-2h18V11.667z M77.667,6.667h-9v-2h9V6.667z"/>
<path fill="#FF3A1A" d="M281.333,15.833l9-9h-18L281.333,15.833z"/>
<path fill="#FFFFFF" d="M332.14,13.119c-0.146,0.149-0.229,0.338-0.229,0.561c0,0.446,0.352,0.805,0.798,0.805
	c0.223,0,0.426-0.095,0.582-0.25l4.627-4.735l4.613,4.735c0.148,0.156,0.364,0.25,0.582,0.25c0.439,0,0.798-0.359,0.798-0.805
	c0-0.223-0.081-0.413-0.23-0.561l-5.141-5.263c-0.176-0.189-0.392-0.277-0.629-0.284c-0.237,0-0.44,0.095-0.622,0.284L332.14,13.119
	z"/>
<path fill="#FFFFFF" d="M359.954,13.787c0.183,0.164,0.386,0.247,0.622,0.247c0.237-0.006,0.453-0.083,0.629-0.247l5.141-4.576
	c0.149-0.13,0.23-0.294,0.23-0.488c0-0.388-0.354-0.7-0.798-0.7c-0.225,0-0.434,0.083-0.582,0.217l-4.613,4.117l-4.627-4.117
	c-0.156-0.136-0.359-0.217-0.582-0.217c-0.446,0-0.798,0.312-0.798,0.7c0,0.194,0.081,0.359,0.229,0.488L359.954,13.787z"/>
<path fill="#FFFFFF" d="M380.33,9.25l2.58-2.59l-1.41-1.41l-5,5l5,5l1.41-1.41l-2.58-2.59h16.17v-2H380.33z"/>
<g>
	<path fill="#FFFFFF" d="M243.062,37.585l1.875,1.868l1.021-1.021l-3.62-3.62l-3.62,3.62l1.021,1.021l1.875-1.868v11.707h1.448
		V37.585z"/>
	<path fill="#FFFFFF" d="M249.813,52.04l-1.875-1.868l-1.021,1.021l3.62,3.62l3.62-3.62l-1.021-1.021l-1.875,1.868V40.333h-1.448
		V52.04z"/>
</g>
<path fill="#FF3A1A" stroke="#FF3A1A" stroke-width="0.75" stroke-miterlimit="10" d="M318.087,38.178l3.178,3.169l1.188-1.185
	l-5.203-5.204l-5.203,5.204l1.188,1.185l3.178-3.169v13.593h1.68V38.178H318.087z"/>
<path fill="#389738" stroke="#399746" stroke-width="0.75" stroke-miterlimit="10" d="M346.697,48.514l-3.161-3.153l-1.177,1.177
	l5.172,5.172l5.173-5.172l-1.178-1.177l-3.161,3.153V35.021h-1.668L346.697,48.514L346.697,48.514z"/>
<path fill="#FFFFFF" d="M414.333,3.125c-4.14,0-7.5,3.36-7.5,7.5s3.36,7.5,7.5,7.5s7.5-3.36,7.5-7.5S418.473,3.125,414.333,3.125z
	 M415.143,13.965h-1.232v-4.6h1.232V13.965z M415.023,8.635c-0.138,0.12-0.29,0.18-0.5,0.18s-0.388-0.06-0.5-0.18
	c-0.138-0.12-0.19-0.27-0.19-0.46c0-0.18,0.06-0.33,0.18-0.45c0.13-0.12,0.3-0.18,0.518-0.18c0.21,0,0.38,0.06,0.5,0.18
	c0.13,0.12,0.188,0.27,0.188,0.45C415.213,8.365,415.143,8.515,415.023,8.635z"/>
<path fill="none" stroke="#FFFFFF" stroke-width="2" stroke-linecap="round" stroke-linejoin="round" d="M463.5,17.833l6-6l-6-6"/>
<path fill="#389738" d="M303,15.833h18l-9-9L303,15.833z"/>
<path fill="#FFFFFF" d="M497.7,19.7h-14.4c-0.994,0-1.8-0.806-1.8-1.8V7.1c0-0.994,0.806-1.8,1.8-1.8h14.4
	c0.994,0,1.8,0.806,1.8,1.8v10.8C499.5,18.894,498.694,19.7,497.7,19.7z M483.3,12.5v5.4h14.4v-5.4H483.3z M483.3,7.1v1.8h14.4V7.1
	H483.3z M491.4,16.1h-6.3v-1.8h6.308L491.4,16.1L491.4,16.1z"/>
<path fill="#FFFFFF" d="M14.795,55h-9.09c-1.004,0-1.818-0.814-1.818-1.818V36.739C3.929,35.766,4.73,34.999,5.705,35h9.091
	c1.004,0,1.818,0.814,1.818,1.818v16.364C16.614,54.186,15.8,55,14.795,55z M5.705,36.818v16.364h9.091V36.818h-1.818
	c0,1.004-0.814,1.818-1.818,1.818H9.341c-1.004,0-1.818-0.813-1.818-1.818H5.705z"/>
<path fill="#1B4156" d="M41,286.869H26.253c-0.105,4.386-3.244,8.02-7.398,8.885l-0.012-5.054L1,303.123l17.9,12.341l-0.011-4.831
	C31.246,309.753,40.998,299.45,41,286.869z"/>
<path fill="#1E526E" d="M95.65,315.464H80.903c-0.105-4.386-3.244-8.021-7.398-8.885l-0.012,5.054L55.65,299.211l17.9-12.341
	l-0.011,4.831C85.895,292.581,95.647,302.883,95.65,315.464z"/>
<g>
	<path fill="#FFFFFF" d="M88.508,124.364c0,4.941-2.016,9.413-5.27,12.636l-2.515-2.516c2.61-2.578,4.228-6.16,4.228-10.12
		c0-3.822-1.507-7.292-3.96-9.849L83.507,112C86.603,115.2,88.508,119.56,88.508,124.364z"/>
	<path fill="#FFFFFF" d="M81.394,124.364c0,2.948-1.024,5.656-2.736,7.789l-2.537-2.536c1.079-1.472,1.717-3.288,1.717-5.252
		c0-1.913-0.604-3.684-1.631-5.134l2.541-2.541C80.406,118.804,81.394,121.468,81.394,124.364z"/>
	<path fill="#FFFFFF" d="M74.638,124.501c0-1.121-0.265-2.155-0.711-2.987l-1.605,1.642c0.12,0.428,0.184,0.879,0.184,1.346
		c0,0.44-0.057,0.868-0.165,1.274l1.613,1.662C74.384,126.614,74.638,125.6,74.638,124.501z"/>
</g>
<path fill="#4DB305" d="M42.929,45h-3.857v-3.857c0-0.455-0.402-0.857-0.857-0.857h-0.857c-0.482,0-0.857,0.402-0.857,0.857V45
	h-3.857c-0.482,0-0.857,0.402-0.857,0.857v0.857c0,0.482,0.375,0.857,0.857,0.857H36.5v3.857c0,0.482,0.375,0.857,0.857,0.857h0.857
	c0.455,0,0.857-0.375,0.857-0.857v-3.857h3.857c0.455,0,0.857-0.375,0.857-0.857v-0.857C43.786,45.402,43.384,45,42.929,45z"/>
<path fill="#FFFFFF" d="M58,48.5c1.105,0,2-0.895,2-2s-0.895-2-2-2s-2,0.895-2,2S56.895,48.5,58,48.5z"/>
<path fill="#FFFFFF" d="M65,46.5c0,1.105-0.895,2-2,2s-2-0.895-2-2s0.895-2,2-2C64.105,44.5,65,45.395,65,46.5z"/>
<path fill="#FFFFFF" d="M68,48.5c1.105,0,2-0.895,2-2s-0.895-2-2-2s-2,0.895-2,2S66.895,48.5,68,48.5z"/>
<path fill="none" stroke="#4DB205" stroke-width="3" stroke-linecap="square" d="M117.479,38.24h9.841 M127.32,38.24v9.684
	 M125.939,39.62L113.32,51.88"/>
<path fill="#FFFFFF" d="M154,49v-1h-3v-3h3v2h2v2h-1v2h-2v2h-2v-3h2v-1H154z M159,53h-4v-2h2v-2h2V53z M141,35h8v8h-8V35z M143,37v4
	h4v-4H143z M151,35h8v8h-8V35z M153,37v4h4v-4H153z M141,45h8v8h-8V45z M143,47v4h4v-4H143z M156,45h3v2h-3V45z M144,38h2v2h-2V38z
	 M144,48h2v2h-2V48z M154,38h2v2h-2V38z"/>
<path fill="#FFDB1A" d="M44.859,132.875c0.469,0.469,1.266,0.469,1.734,0l13.781-13.781c0.469-0.469,0.469-1.266,0-1.734
	l-1.688-1.688c-0.469-0.469-1.219-0.469-1.688,0l-11.25,11.25l-5.297-5.25c-0.469-0.469-1.219-0.469-1.688,0l-1.688,1.688
	c-0.469,0.469-0.469,1.266,0,1.734L44.859,132.875z"/>
<path fill="#898989" d="M44.859,164.375c0.469,0.469,1.266,0.469,1.734,0l13.781-13.781c0.469-0.469,0.469-1.266,0-1.734
	l-1.688-1.688c-0.469-0.469-1.219-0.469-1.688,0l-11.25,11.25l-5.297-5.25c-0.469-0.469-1.219-0.469-1.688,0l-1.688,1.688
	c-0.469,0.469-0.469,1.266,0,1.734L44.859,164.375z"/>
<path fill="#FFFFFF" d="M220.544,52.277l-3.188-3.188c-1.375,0.625-2.871,0.941-4.383,0.924c-1.561,0.021-3.103-0.316-4.511-0.982
	c-1.092-0.533-2.071-1.269-2.89-2.168c-0.867-0.93-1.547-2.016-2.008-3.201l-0.095-0.298l0.099-0.3
	c0.688-1.752,1.844-3.281,3.341-4.419l-2.489-2.49l1.342-1.341l16.121,16.122L220.544,52.277L220.544,52.277L220.544,52.277z
	 M208.256,39.991c-1.213,0.851-2.173,2.018-2.771,3.374c1.287,2.969,4.256,4.851,7.49,4.75c0.998,0.008,1.986-0.152,2.933-0.475
	l-1.712-1.711c-0.379,0.188-0.799,0.285-1.221,0.286c-1.57-0.01-2.844-1.28-2.853-2.85c0-0.425,0.099-0.845,0.285-1.226
	L208.256,39.991z M220.431,46.793l-1.322-1.321c0.557-0.629,1.012-1.339,1.353-2.108c-1.286-2.97-4.256-4.854-7.487-4.75
	c-0.234,0-0.472,0.008-0.699,0.025L210.6,36.96c0.778-0.167,1.574-0.249,2.375-0.246c1.56-0.02,3.102,0.316,4.508,0.983
	c1.092,0.533,2.071,1.268,2.89,2.168c0.866,0.929,1.548,2.014,2.007,3.197l0.098,0.302l-0.102,0.3
	c-0.443,1.156-1.104,2.22-1.938,3.135L220.431,46.793z"/>
<path fill="#FFFFFF" d="M182.97,50.014c-1.561,0.021-3.103-0.316-4.511-0.982c-1.092-0.532-2.071-1.269-2.889-2.168
	c-0.865-0.93-1.545-2.016-2.007-3.199l-0.097-0.3l0.101-0.3c0.462-1.183,1.141-2.268,2.004-3.199
	c0.815-0.899,1.796-1.635,2.888-2.167c1.408-0.667,2.95-1.003,4.509-0.983c1.561-0.02,3.103,0.316,4.51,0.983
	c1.092,0.533,2.072,1.268,2.889,2.167c0.866,0.929,1.547,2.015,2.007,3.199l0.096,0.3l-0.1,0.3
	C190.88,47.544,187.127,50.08,182.97,50.014z M182.97,38.614c-3.234-0.101-6.203,1.781-7.49,4.75c1.287,2.969,4.256,4.852,7.49,4.75
	c3.231,0.102,6.199-1.78,7.487-4.75C189.174,40.394,186.204,38.511,182.97,38.614z M182.97,46.214
	c-1.371,0.011-2.558-0.953-2.831-2.295c-0.274-1.343,0.438-2.692,1.702-3.22c1.267-0.529,2.729-0.089,3.489,1.048
	c0.767,1.14,0.614,2.657-0.354,3.627C184.45,45.912,183.726,46.214,182.97,46.214z"/>
<path fill="#FFFFFF" stroke="#FFFFFF" stroke-miterlimit="10" d="M10.33,80c0.961,0,1.75,0.789,1.75,1.75s-0.789,1.75-1.75,1.75
	s-1.75-0.789-1.75-1.75S9.369,80,10.33,80z M17.83,83.5c-0.961,0-1.75-0.789-1.75-1.75S16.869,80,17.83,80s1.75,0.789,1.75,1.75
	S18.791,83.5,17.83,83.5z M25.33,83.5c-0.961,0-1.75-0.789-1.75-1.75S24.369,80,25.33,80s1.75,0.789,1.75,1.75
	S26.291,83.5,25.33,83.5z"/>
<path fill="none" stroke="#0023C4" stroke-width="1.5" stroke-miterlimit="10" d="M111.25,147.882c0,0.961-0.789,1.75-1.75,1.75
	s-1.75-0.789-1.75-1.75s0.789-1.75,1.75-1.75S111.25,146.921,111.25,147.882z M107.75,155.382c0-0.961,0.789-1.75,1.75-1.75
	s1.75,0.789,1.75,1.75s-0.789,1.75-1.75,1.75S107.75,156.343,107.75,155.382z M107.75,162.882c0-0.961,0.789-1.75,1.75-1.75
	s1.75,0.789,1.75,1.75s-0.789,1.75-1.75,1.75S107.75,163.843,107.75,162.882z"/>
<g>
	<path fill="#898989" d="M29.115,201.462l0.01-8.936c0-0.547-0.27-1.035-0.683-1.328l-5.005-3.549l-5.004,3.549
		c-0.414,0.293-0.683,0.781-0.683,1.328l0.007,8.936l5.679-3.934L29.115,201.462z"/>
	<path opacity="0.7" fill="#FFFFFF" enable-background="new    " d="M12.882,199.838l-0.007,8.936c0,0.544,0.269,1.032,0.683,1.325
		l5.004,3.55l5.004-3.55c0.415-0.293,0.683-0.782,0.683-1.325l-0.01-8.936l-5.68,3.93L12.882,199.838z"/>
</g>
<path fill="#FFFFFF" d="M282.262,34.974c-4.732,0-8.57,3.838-8.57,8.571h-2.856l3.705,3.706l0.065,0.133l3.849-3.838H275.6
	c0-3.686,2.979-6.667,6.666-6.667c3.686,0,6.666,2.98,6.666,6.667s-2.98,6.667-6.666,6.667c-1.84,0-3.507-0.752-4.705-1.962
	l-1.354,1.352c1.552,1.553,3.686,2.515,6.059,2.515c4.731,0,8.569-3.838,8.569-8.571S286.995,34.974,282.262,34.974z
	 M281.311,39.736v4.762l4.047,2.399l0.732-1.218l-3.354-1.991v-3.952H281.311z"/>
<path fill="#FAFCFE" d="M120.32,332.5l-9,4v6c0,5.55,3.84,10.74,9,12c5.16-1.26,9-6.45,9-12v-6L120.32,332.5z M120.32,343.49h7
	c-0.53,4.119-3.28,7.789-7,8.939v-8.931h-7v-5.7l7-3.109V343.49z"/>
<path fill="#FAFCFE" d="M16.614,332.5c-5.52,0-10,4.48-10,10s4.48,10,10,10s10-4.48,10-10S22.134,332.5,16.614,332.5z M16.614,335.5
	c1.66,0,3,1.34,3,3s-1.34,3-3,3s-3-1.34-3-3S14.954,335.5,16.614,335.5z M16.614,349.7c-2.5,0-4.71-1.28-6-3.22
	c0.03-1.99,4-3.08,6-3.08c1.99,0,5.97,1.09,6,3.08C21.324,348.42,19.114,349.7,16.614,349.7z"/>
<path fill="#FAFCFE" d="M58.323,343.036c0.036-0.3,0.06-0.612,0.06-0.937c0-0.326-0.024-0.637-0.072-0.937l2.028-1.584
	c0.18-0.146,0.228-0.408,0.12-0.612l-1.92-3.322c-0.12-0.218-0.372-0.289-0.588-0.218l-2.388,0.962
	c-0.504-0.386-1.032-0.697-1.62-0.938l-0.36-2.545c-0.036-0.239-0.24-0.407-0.48-0.407h-3.84c-0.24,0-0.432,0.168-0.468,0.407
	l-0.36,2.545c-0.588,0.238-1.128,0.563-1.62,0.938l-2.388-0.962c-0.216-0.084-0.468,0-0.588,0.218l-1.92,3.322
	c-0.12,0.217-0.072,0.469,0.12,0.612l2.028,1.584c-0.048,0.3-0.084,0.624-0.084,0.937s0.024,0.637,0.072,0.937l-2.028,1.584
	c-0.18,0.144-0.228,0.407-0.12,0.612l1.92,3.324c0.12,0.215,0.372,0.286,0.588,0.215l2.388-0.959
	c0.504,0.383,1.032,0.694,1.62,0.936l0.36,2.544c0.048,0.24,0.24,0.408,0.48,0.408h3.84c0.24,0,0.444-0.168,0.468-0.408l0.36-2.544
	c0.588-0.24,1.128-0.564,1.62-0.936l2.388,0.959c0.216,0.084,0.468,0,0.588-0.215l1.92-3.324c0.12-0.217,0.072-0.469-0.12-0.612
	L58.323,343.036z M51.183,345.7c-1.98,0-3.6-1.62-3.6-3.601c0-1.979,1.62-3.601,3.6-3.601s3.6,1.62,3.6,3.601
	S53.163,345.7,51.183,345.7z"/>
<path fill="#FAFCFE" d="M85.751,332.5c-5.52,0-10,4.48-10,10s4.48,10,10,10s10-4.48,10-10S91.271,332.5,85.751,332.5z M86.751,347.5
	h-2v-6h2V347.5z M86.751,339.5h-2v-2h2V339.5z"/>
<path fill="#0E0E2C" d="M120.272,366.252l-9,4v6c0,5.55,3.84,10.74,9,12c5.16-1.26,9-6.45,9-12v-6L120.272,366.252z
	 M120.272,377.242h7c-0.53,4.119-3.28,7.79-7,8.939v-8.931h-7v-5.7l7-3.109V377.242z"/>
<path fill="#0E0E2C" d="M16.566,366.252c-5.52,0-10,4.48-10,10s4.48,10,10,10s10-4.48,10-10S22.086,366.252,16.566,366.252z
	 M16.566,369.252c1.66,0,3,1.34,3,3s-1.34,3-3,3s-3-1.34-3-3S14.906,369.252,16.566,369.252z M16.566,383.452
	c-2.5,0-4.71-1.28-6-3.22c0.03-1.99,4-3.08,6-3.08c1.99,0,5.97,1.09,6,3.08C21.276,382.172,19.066,383.452,16.566,383.452z"/>
<path fill="#0E0E2C" d="M58.275,376.788c0.036-0.3,0.06-0.612,0.06-0.937c0-0.326-0.024-0.637-0.072-0.937l2.028-1.584
	c0.18-0.146,0.228-0.408,0.12-0.612l-1.92-3.322c-0.12-0.218-0.372-0.289-0.588-0.218l-2.388,0.962
	c-0.504-0.386-1.032-0.697-1.62-0.938l-0.36-2.544c-0.036-0.24-0.24-0.408-0.48-0.408h-3.84c-0.24,0-0.432,0.168-0.468,0.408
	l-0.36,2.544c-0.588,0.238-1.128,0.563-1.62,0.938l-2.388-0.962c-0.216-0.084-0.468,0-0.588,0.218l-1.92,3.322
	c-0.12,0.217-0.072,0.469,0.12,0.612l2.028,1.584c-0.048,0.3-0.084,0.624-0.084,0.937s0.024,0.637,0.072,0.937l-2.028,1.584
	c-0.18,0.144-0.228,0.407-0.12,0.612l1.92,3.324c0.12,0.215,0.372,0.287,0.588,0.215l2.388-0.959
	c0.504,0.384,1.032,0.694,1.62,0.936l0.36,2.544c0.048,0.24,0.24,0.408,0.48,0.408h3.84c0.24,0,0.444-0.168,0.468-0.408l0.36-2.544
	c0.588-0.24,1.128-0.564,1.62-0.936l2.388,0.959c0.216,0.084,0.468,0,0.588-0.215l1.92-3.324c0.12-0.217,0.072-0.469-0.12-0.612
	L58.275,376.788z M51.135,379.452c-1.98,0-3.6-1.62-3.6-3.601c0-1.979,1.62-3.601,3.6-3.601s3.6,1.62,3.6,3.601
	S53.115,379.452,51.135,379.452z"/>
<path fill="#0E0E2C" d="M85.704,366.252c-5.52,0-10,4.48-10,10s4.48,10,10,10s10-4.48,10-10S91.224,366.252,85.704,366.252z
	 M86.704,381.252h-2v-6h2V381.252z M86.704,373.252h-2v-2h2V373.252z"/>
<path fill="#FFDB1A" d="M373.6,51.511c0.354,0.352,0.949,0.352,1.303,0l10.336-10.336c0.352-0.352,0.352-0.949,0-1.301l-1.268-1.266
	c-0.352-0.352-0.914-0.352-1.266,0l-8.438,8.438l-3.973-3.937c-0.352-0.352-0.914-0.352-1.266,0l-1.268,1.266
	c-0.352,0.352-0.352,0.949,0,1.301L373.6,51.511z"/>
<path fill="none" stroke="#FFFFFF" stroke-width="1.5" stroke-miterlimit="10" d="M486.5,40.5v-4 M494.5,40.5v-4 M485.5,44.5h10
	 M483.5,54.5h14c1.105,0,2-0.895,2-2v-12c0-1.105-0.895-2-2-2h-14c-1.104,0-2,0.895-2,2v12C481.5,53.605,482.396,54.5,483.5,54.5z"
	/>
<g>
	<path fill="none" stroke="#0E0E2C" stroke-width="2" stroke-linecap="round" stroke-linejoin="round" d="M401,40
		c0-1.105,0.895-2,2-2h0.93c0.669,0,1.293-0.334,1.664-0.891l0.813-1.219c0.371-0.556,0.995-0.891,1.664-0.891h3.858
		c0.669,0,1.293,0.334,1.664,0.891l0.813,1.219c0.371,0.556,0.995,0.891,1.664,0.891H417c1.105,0,2,0.895,2,2v9c0,1.105-0.895,2-2,2
		h-14c-1.105,0-2-0.895-2-2V40z"/>
	<path fill="none" stroke="#0E0E2C" stroke-width="2" stroke-linecap="round" stroke-linejoin="round" d="M413,44
		c0,1.657-1.343,3-3,3s-3-1.343-3-3s1.343-3,3-3S413,42.343,413,44z"/>
</g>
<path fill="#4DB205" d="M81.333,89.355c-4.969-0.005-8.996-4.032-9-9v-0.18c0.098-4.946,4.17-8.885,9.117-8.819
	s8.914,4.111,8.881,9.058C90.298,85.36,86.281,89.354,81.333,89.355z M77.203,79.986l-1.27,1.269l3.6,3.6l7.201-7.2l-1.27-1.278
	l-5.932,5.93L77.203,79.986z"/>
<path fill="#686868" d="M107,89.355c-4.967-0.005-8.994-4.032-9-9v-0.18c0.1-4.946,4.172-8.885,9.119-8.819
	c4.947,0.066,8.912,4.111,8.879,9.058C115.964,85.36,111.947,89.354,107,89.355z M102.869,79.986l-1.27,1.269l3.602,3.6l7.199-7.2
	l-1.27-1.278l-5.93,5.931L102.869,79.986z"/>
<path fill="none" stroke="#FFFFFF" stroke-width="1.5" stroke-linecap="round" stroke-linejoin="round" d="M190.938,79.804
	l2.021,2.017l4.029-4.033 M189.764,72.441c0.723-0.058,1.41-0.342,1.963-0.813c1.289-1.099,3.188-1.099,4.477,0
	c0.553,0.471,1.236,0.755,1.963,0.813c1.688,0.135,3.025,1.475,3.164,3.163c0.057,0.723,0.342,1.41,0.813,1.963
	c1.1,1.289,1.1,3.185,0,4.474c-0.471,0.552-0.756,1.239-0.813,1.963c-0.139,1.688-1.479,3.028-3.164,3.163
	c-0.727,0.058-1.41,0.342-1.963,0.813c-1.289,1.099-3.188,1.099-4.477,0c-0.553-0.471-1.24-0.755-1.963-0.813
	c-1.688-0.135-3.029-1.475-3.164-3.163c-0.057-0.723-0.342-1.41-0.813-1.963c-1.102-1.289-1.102-3.185,0-4.474
	c0.471-0.552,0.756-1.239,0.813-1.963C186.735,73.916,188.075,72.576,189.764,72.441z"/>
<path fill="none" stroke="#FFFFFF" stroke-width="1.5" stroke-linecap="round" stroke-linejoin="round" d="M127.601,76.388
	l7.891,5.26c0.674,0.448,1.546,0.448,2.22,0l7.892-5.26 M129.601,87.388h14c1.104,0,2-0.896,2-2v-10c0-1.104-0.896-2-2-2h-14
	c-1.104,0-2,0.896-2,2v10C127.601,86.492,128.496,87.388,129.601,87.388z"/>
<g>
	<path fill="none" stroke="#FFFFFF" stroke-width="1.5" stroke-linecap="round" stroke-linejoin="round" d="M226.154,75.412
		c0,2.209-1.791,4-4,4s-4-1.791-4-4s1.791-4,4-4S226.154,73.203,226.154,75.412z"/>
	<path fill="none" stroke="#FFFFFF" stroke-width="1.5" stroke-linecap="round" stroke-linejoin="round" d="M222.154,82.412
		c-3.861,0-7,3.134-7,7h14C229.154,85.546,226.021,82.412,222.154,82.412z"/>
</g>
<g>
	<path fill="none" stroke="#FFFFFF" stroke-width="1.5" stroke-linecap="round" stroke-linejoin="round" d="M168.187,71.432h-6.8
		c-0.935,0-1.7,0.765-1.7,1.7v13.6c0,0.934,0.757,1.7,1.692,1.7h10.208c0.935,0,1.7-0.766,1.7-1.7v-10.2L168.187,71.432z"/>
	
		<line fill="none" stroke="#FFFFFF" stroke-width="1.5" stroke-linecap="round" stroke-linejoin="round" x1="162.71" y1="80.257" x2="170.264" y2="80.257"/>
	
		<line fill="none" stroke="#FFFFFF" stroke-width="1.5" stroke-linecap="round" stroke-linejoin="round" x1="162.71" y1="83.845" x2="170.264" y2="83.845"/>
	
		<line fill="none" stroke="#FFFFFF" stroke-width="1.5" stroke-linecap="round" stroke-linejoin="round" x1="165.544" y1="76.67" x2="162.71" y2="76.67"/>
</g>
<path fill="#0E0E2C" d="M469.617,44.483c0.334-0.179,0.539-0.53,0.529-0.909s-0.233-0.719-0.577-0.879l-14.183-6.621
	c-0.359-0.168-0.784-0.107-1.082,0.154c-0.298,0.261-0.414,0.674-0.295,1.053l1.562,4.96c0.134,0.426,0.534,0.711,0.981,0.699
	l4.57-0.123c0.552-0.015,1.012,0.421,1.027,0.973s-0.421,1.012-0.973,1.026l-4.57,0.123c-0.446,0.012-0.831,0.318-0.942,0.751
	l-1.294,5.037c-0.099,0.384,0.039,0.79,0.351,1.035s0.739,0.282,1.089,0.096L469.617,44.483z"/>
<path fill="#FFDB1A" d="M74.555,271.333H52.777c-1.718,0-3.111-1.393-3.111-3.111v-21.778c0-1.718,1.393-3.111,3.111-3.111h21.778
	c1.718,0,3.111,1.393,3.111,3.111v21.778C77.666,269.94,76.273,271.333,74.555,271.333z M52.777,246.444v21.778h21.778v-21.778
	L52.777,246.444L52.777,246.444z M73,265.111H54.333L59,258.889l1.556,1.556l4.667-6.222L73,265.111z M58.222,255.777
	c-1.289,0-2.333-1.045-2.333-2.333c0-1.289,1.045-2.333,2.333-2.333c1.289,0,2.333,1.045,2.333,2.333
	C60.555,254.733,59.511,255.777,58.222,255.777z"/>
<path fill="#FFDB1A" d="M112.4,271.333H95.6c-1.546,0-2.8-1.254-2.8-2.8v-22.4c0-1.546,1.254-2.8,2.8-2.8h9.8
	c0.015,0.001,0.03,0.003,0.045,0.008c0.014,0.004,0.028,0.007,0.042,0.008c0.123,0.008,0.245,0.032,0.363,0.071l0.039,0.013
	c0.032,0.011,0.063,0.024,0.092,0.039c0.153,0.068,0.291,0.163,0.41,0.28l8.4,8.4c0.117,0.119,0.212,0.258,0.28,0.41
	c0.014,0.031,0.024,0.063,0.035,0.095l0.013,0.036c0.039,0.117,0.062,0.238,0.069,0.361c0.002,0.013,0.005,0.025,0.01,0.038
	c0.003,0.013,0.003,0.026,0.003,0.039v15.4C115.2,270.079,113.946,271.333,112.4,271.333z M95.6,246.133v22.4h16.8v-14h-7
	c-0.773,0-1.4-0.627-1.4-1.4v-7H95.6z M106.8,248.113v3.62h3.62L106.8,248.113z"/>
<path fill="none" stroke="#FFFFFF" stroke-width="3" stroke-linecap="round" stroke-linejoin="round" d="M43.933,436.133l-9.9-9.899
	 M34.033,426.233l-9.9,9.899 M34.033,426.233v39.6 M17.533,446.033c-7.29,0-13.2-5.91-13.2-13.2c0-6.293,4.404-11.559,10.298-12.88
	c-0.261-1.165-0.398-2.376-0.398-3.62c0-9.113,7.387-16.5,16.5-16.5c7.984,0,14.643,5.67,16.171,13.203
	c0.11-0.002,0.219-0.003,0.329-0.003c9.113,0,16.5,7.387,16.5,16.5c0,7.983-5.669,14.641-13.2,16.17L17.533,446.033z"/>
<g>
	<path fill="none" stroke="#FFFFFF" stroke-width="1.5" stroke-linecap="round" stroke-linejoin="round" d="M276.95,80.729
		l2.667,2.667l6.667-6.667"/>
	<path fill="none" stroke="#FFFFFF" stroke-width="1.5" stroke-linecap="round" stroke-linejoin="round" d="M275.25,88.412h12
		c1.105,0,2-0.895,2-2v-12c0-1.105-0.895-2-2-2h-12c-1.105,0-2,0.895-2,2v12C273.25,87.517,274.145,88.412,275.25,88.412z"/>
</g>
<path fill="none" stroke="#FAFCFE" stroke-width="1.5" stroke-linecap="round" stroke-linejoin="round" d="M308.375,88.412h12
	c1.105,0,2-0.895,2-2v-12c0-1.105-0.895-2-2-2h-12c-1.105,0-2,0.895-2,2v12C306.375,87.517,307.27,88.412,308.375,88.412z"/>
<path fill="none" stroke="#FAFCFE" stroke-width="1.5" stroke-linecap="round" stroke-linejoin="round" d="M349.757,73.64
	l3.529,3.529 M351.254,72.143c0.974-0.974,2.554-0.974,3.529,0c0.974,0.974,0.974,2.554,0,3.529l-13.741,13.74h-3.493v-3.564
	L351.254,72.143z"/>
<path fill="none" stroke="#FFFFFF" stroke-width="1.5" stroke-linecap="round" stroke-linejoin="round" d="M439.838,37.667
	l-6.586,6.586c-0.781,0.781-0.781,2.047,0,2.828c0.781,0.781,2.047,0.781,2.828,0l6.414-6.586c1.562-1.562,1.562-4.095,0-5.657
	c-1.562-1.562-4.095-1.562-5.657,0l-6.414,6.586c-2.343,2.343-2.343,6.142,0,8.485c2.343,2.343,6.142,2.343,8.485,0l6.257-6.243"/>
</svg>
