<?xml version="1.0" encoding="utf-8"?>
<!-- Generator: Adobe Illustrator 17.0.0, SVG Export Plug-In . SVG Version: 6.00 Build 0)  -->
<!DOCTYPE svg PUBLIC "-//W3C//DTD SVG 1.1//EN" "http://www.w3.org/Graphics/SVG/1.1/DTD/svg11.dtd">
<svg version="1.1" id="Layer_1" xmlns="http://www.w3.org/2000/svg" xmlns:xlink="http://www.w3.org/1999/xlink" x="0px" y="0px"
	 width="512px" height="512px" viewBox="0 0 512 512" enable-background="new 0 0 512 512" xml:space="preserve">
<g>
	<circle fill="#F7941F" cx="15.8" cy="15.79" r="14"/>
	<path fill="#FFFFFF" d="M22.09,14.06c0.27-1.83-1.12-2.82-3.03-3.48l0.62-2.49l-1.51-0.38l-0.6,2.42c-0.4-0.1-0.81-0.19-1.21-0.29
		l0.61-2.44l-1.51-0.38L14.84,9.5c-0.33-0.08-0.65-0.15-0.97-0.23V9.26l-2.09-0.52l-0.4,1.62c0,0,1.12,0.26,1.1,0.27
		c0.61,0.15,0.72,0.56,0.7,0.88l-0.71,2.83c0.04,0.01,0.1,0.03,0.16,0.05l-0.16-0.04l-0.99,3.97c-0.08,0.19-0.27,0.46-0.69,0.36
		c0.02,0.02-1.1-0.27-1.1-0.27l-0.75,1.73l1.97,0.49c0.37,0.09,0.72,0.19,1.08,0.28l-0.63,2.51l1.51,0.38l0.62-2.49
		c0.41,0.11,0.81,0.21,1.21,0.31l-0.62,2.47l1.51,0.38l0.63-2.51c2.58,0.49,4.52,0.29,5.33-2.04c0.66-1.88-0.03-2.96-1.39-3.67
		C21.14,16.05,21.89,15.4,22.09,14.06z M18.63,18.9c-0.47,1.88-3.63,0.86-4.65,0.61l0.83-3.33C15.83,16.44,19.12,16.94,18.63,18.9z
		 M19.1,14.03c-0.43,1.71-3.06,0.84-3.91,0.63l0.75-3.02C16.79,11.85,19.54,12.25,19.1,14.03z"/>
</g>
<g>
	<circle fill="#677ABB" cx="51.76" cy="15.79" r="14"/>
	<g>
		<path fill="#FFFFFF" fill-opacity="0.602" d="M52.19,5.29v7.76l6.56,2.93L52.19,5.29z"/>
		<path fill="#FFFFFF" d="M52.19,5.29l-6.56,10.69l6.56-2.93V5.29z"/>
		<path fill="#FFFFFF" fill-opacity="0.602" d="M52.19,21.01v5.27l6.56-9.08L52.19,21.01z"/>
		<path fill="#FFFFFF" d="M52.19,26.29v-5.27l-6.56-3.81L52.19,26.29z"/>
		<path fill="#FFFFFF" fill-opacity="0.2" d="M52.19,19.79l6.56-3.81l-6.56-2.93V19.79z"/>
		<path fill="#FFFFFF" fill-opacity="0.602" d="M45.63,15.98l6.56,3.81v-6.74L45.63,15.98z"/>
	</g>
</g>
<g>
	<circle fill="#27A17B" cx="87.65" cy="15.79" r="14"/>
	<path fill="#FFFFFF" d="M89.33,17L89.33,17c-0.1,0.01-0.59,0.03-1.7,0.03c-0.88,0-1.51-0.03-1.72-0.04l0,0
		c-3.4-0.15-5.94-0.74-5.94-1.45s2.54-1.3,5.94-1.45v2.31c0.22,0.02,0.86,0.05,1.74,0.05c1.06,0,1.59-0.04,1.68-0.05v-2.3
		c3.39,0.15,5.93,0.74,5.93,1.45S92.72,16.85,89.33,17 M89.33,13.86v-2.07h4.74V8.63h-12.9v3.16h4.74v2.07
		c-3.85,0.18-6.75,0.94-6.75,1.85s2.9,1.68,6.75,1.85v6.63h3.42v-6.64c3.84-0.18,6.73-0.94,6.73-1.85S93.17,14.04,89.33,13.86"/>
</g>
<rect x="230.361" y="-43.375" fill="#27A17B" width="7.96" height="30"/>
<g>
	<path fill="#3CC8C8" d="M123.598,3.561c0.61-0.318,1.355,0.42,1.031,1.03c-0.188,0.497-0.902,0.629-1.267,0.25
		C122.975,4.477,123.101,3.758,123.598,3.561 M117.034,4.268c0.371-0.153,0.84,0.187,0.802,0.591
		c0.039,0.439-0.497,0.761-0.875,0.553C116.46,5.218,116.518,4.406,117.034,4.268 M130.477,5.424
		c-0.579-0.07-0.671-0.981-0.113-1.164c0.433-0.211,0.829,0.185,0.893,0.595C131.166,5.205,130.873,5.526,130.477,5.424
		 M118.527,7.062c0.62-0.392,1.504,0.192,1.409,0.912c-0.032,0.727-0.998,1.148-1.542,0.657
		C117.867,8.244,117.947,7.359,118.527,7.062 M127.988,7.478c0.277-0.713,1.397-0.734,1.712-0.04
		c0.311,0.54-0.072,1.208-0.626,1.392C128.34,8.966,127.643,8.173,127.988,7.478 M122.807,8.789
		c-0.006-0.613,0.552-1.069,1.134-1.111c0.386,0.077,0.807,0.242,0.973,0.632c0.309,0.537,0.035,1.278-0.523,1.524
		c-0.255,0.143-0.557,0.089-0.834,0.073C123.131,9.698,122.774,9.289,122.807,8.789 M113.046,9.681
		c0.566-0.348,1.33,0.287,1.116,0.902c-0.118,0.532-0.833,0.748-1.242,0.409C112.483,10.674,112.552,9.909,113.046,9.681
		 M134.007,9.68c0.48-0.373,1.273,0.055,1.216,0.661c0.032,0.553-0.653,0.97-1.13,0.685C133.568,10.791,133.514,9.983,134.007,9.68
		 M125.552,10.781c0.793-0.285,1.734,0.056,2.186,0.763c0.596,0.864,0.279,2.18-0.646,2.675c-0.958,0.586-2.358,0.089-2.712-0.981
		C123.979,12.28,124.564,11.081,125.552,10.781 M120.901,10.875c0.879-0.415,2.061-0.067,2.485,0.832
		c0.499,0.875,0.113,2.093-0.78,2.544c-0.894,0.508-2.155,0.123-2.588-0.816C119.534,12.527,119.965,11.294,120.901,10.875
		 M116.245,12.467c0.067-0.566,0.601-0.934,1.139-0.972c0.58,0.07,1.044,0.521,1.107,1.108c-0.038,0.582-0.487,1.15-1.104,1.146
		C116.71,13.808,116.115,13.134,116.245,12.467 M129.999,11.618c0.696-0.405,1.663,0.185,1.632,0.984
		c0.048,0.847-1.022,1.444-1.715,0.947C129.196,13.136,129.252,11.97,129.999,11.618 M119.009,14.604
		c0.814-0.224,1.745,0.16,2.144,0.908c0.437,0.753,0.259,1.8-0.421,2.352c-0.871,0.81-2.478,0.485-2.942-0.621
		C117.258,16.23,117.905,14.871,119.009,14.604 M127.83,14.6c0.791-0.226,1.721,0.079,2.147,0.8
		c0.563,0.825,0.294,2.055-0.543,2.586c-0.877,0.617-2.236,0.293-2.719-0.672C126.129,16.316,126.718,14.905,127.83,14.6
		 M113.773,15.541c0.703-0.266,1.483,0.51,1.198,1.207c-0.174,0.635-1.069,0.87-1.532,0.402
		C112.898,16.71,113.098,15.732,113.773,15.541 M132.834,16.553c-0.02-0.583,0.406-1.099,1.004-1.131
		c0.482,0.076,0.95,0.465,0.912,0.989c0.044,0.692-0.79,1.163-1.38,0.838C133.092,17.108,132.95,16.824,132.834,16.553
		 M110.315,15.883c0.423-0.185,0.946,0.182,0.85,0.652c-0.023,0.532-0.808,0.737-1.097,0.292
		C109.813,16.518,109.966,16.042,110.315,15.883z M136.991,15.872c0.298-0.212,0.776-0.06,0.894,0.288
		c0.2,0.38-0.167,0.901-0.595,0.837C136.69,17.052,136.495,16.137,136.991,15.872 M121.307,18.426
		c1.113-0.29,2.31,0.639,2.317,1.785c0.073,1.158-1.106,2.186-2.246,1.918c-0.881-0.142-1.572-0.99-1.544-1.88
		C119.832,19.397,120.475,18.606,121.307,18.426 M125.716,18.424c1.13-0.316,2.362,0.629,2.344,1.802
		c0.06,1.137-1.082,2.13-2.198,1.904c-1.05-0.136-1.825-1.289-1.532-2.308C124.478,19.142,125.046,18.59,125.716,18.424
		 M117.215,19.129c0.782-0.133,1.515,0.739,1.198,1.481c-0.231,0.791-1.383,1.006-1.892,0.36
		C115.924,20.35,116.37,19.215,117.215,19.129 M130.145,19.164c0.697-0.292,1.553,0.311,1.499,1.068
		c0.028,0.833-1.029,1.407-1.71,0.921C129.161,20.717,129.302,19.432,130.145,19.164 M133.759,22.789
		c-0.273-0.509,0.223-1.183,0.788-1.089c0.281-0.005,0.478,0.217,0.658,0.403c0.037,0.302,0.099,0.661-0.151,0.894
		C134.713,23.427,133.943,23.304,133.759,22.789 M113.043,21.842c0.528-0.352,1.288,0.173,1.169,0.79
		c-0.063,0.546-0.751,0.858-1.204,0.548C112.522,22.899,112.54,22.098,113.043,21.842 M123.476,22.984
		c0.691-0.305,1.572,0.297,1.507,1.058c0.051,0.841-1.038,1.424-1.714,0.919C122.518,24.528,122.643,23.251,123.476,22.984
		 M118.644,24.112c0.589-0.31,1.379,0.225,1.325,0.884c0.018,0.541-0.51,1.002-1.044,0.922c-0.442-0.01-0.731-0.406-0.872-0.783
		C118.06,24.724,118.229,24.267,118.644,24.112 M128.432,24.121c0.606-0.374,1.466,0.163,1.409,0.868
		c0.016,0.737-0.957,1.208-1.521,0.725C127.774,25.335,127.841,24.423,128.432,24.121 M130.134,28.329
		c-0.269-0.408,0.048-0.899,0.485-0.991c0.352,0.072,0.724,0.336,0.65,0.744C131.217,28.633,130.411,28.802,130.134,28.329
		 M116.622,27.975c0.107-0.323,0.367-0.644,0.747-0.56c0.554,0.039,0.719,0.875,0.234,1.132
		C117.167,28.842,116.661,28.439,116.622,27.975 M123.141,28.346c0.106-0.478,0.725-0.71,1.132-0.456
		c0.269,0.116,0.348,0.417,0.417,0.673c-0.037,0.133-0.07,0.267-0.102,0.4c-0.167,0.198-0.381,0.396-0.659,0.389
		C123.413,29.412,122.947,28.829,123.141,28.346"/>
</g>
<g>
	<path fill="#C2A633" d="M160.237,11.016h-2v3.944h3.147v1.651h-3.147v3.943h2.098c0.539,0,4.426,0.061,4.42-4.588
		C164.749,11.317,160.985,11.016,160.237,11.016z"/>
	<path fill="#C2A633" d="M159.901,1.79c-7.732,0-14,6.268-14,14s6.268,14,14,14c7.732,0,14-6.268,14-14S167.633,1.79,159.901,1.79z
		 M160.451,23.351h-5.07v-6.74h-1.787V14.96h1.787V8.219h4.351c1.029,0,7.848-0.214,7.848,7.693
		C167.58,23.949,160.451,23.351,160.451,23.351L160.451,23.351z"/>
</g>
<path fill="#23292F" d="M205.759,4.196h4.049l-8.426,8.339c-3.05,3.019-7.995,3.019-11.045,0l-8.425-8.339h4.049l6.401,6.335
	c1.931,1.912,5.063,1.912,6.996,0L205.759,4.196z M185.91,27.384h-4.049l8.478-8.39c3.05-3.019,7.995-3.019,11.045,0l8.478,8.39
	h-4.049l-6.453-6.386c-1.931-1.912-5.063-1.912-6.996,0L185.91,27.384z"/>
</svg>
