<?xml version="1.0" encoding="utf-8"?>
<!-- Generator: Adobe Illustrator 17.0.0, SVG Export Plug-In . SVG Version: 6.00 Build 0)  -->
<!DOCTYPE svg PUBLIC "-//W3C//DTD SVG 1.1//EN" "http://www.w3.org/Graphics/SVG/1.1/DTD/svg11.dtd">
<svg version="1.1" id="Layer_1" xmlns="http://www.w3.org/2000/svg" xmlns:xlink="http://www.w3.org/1999/xlink" x="0px" y="0px"
	 width="512px" height="512px" viewBox="0 0 512 512" enable-background="new 0 0 512 512" xml:space="preserve">
<g>
	<path fill="none" stroke="#737B7D" stroke-width="1.5" stroke-linecap="round" stroke-linejoin="round" d="M15.88,7.01
		c0-1.43-0.57-2.81-1.58-3.82s-2.39-1.58-3.82-1.58S7.67,2.18,6.66,3.19C5.65,4.21,5.08,5.58,5.08,7.01c0,6.3-2.7,8.1-2.7,8.1h16.2
		C18.58,15.12,15.88,13.32,15.88,7.01z"/>
	<path fill="none" stroke="#737B7D" stroke-width="1.5" stroke-linecap="round" stroke-linejoin="round" d="M12.04,18.72
		c-0.16,0.27-0.39,0.5-0.66,0.66c-0.27,0.16-0.58,0.24-0.9,0.24s-0.63-0.08-0.9-0.24c-0.27-0.16-0.5-0.38-0.66-0.66"/>
</g>
<g>
	<path fill="none" stroke="#737B7D" stroke-width="1.5" stroke-linecap="round" stroke-linejoin="round" d="M39.42,13.31
		c1.36,0,2.45-1.1,2.45-2.45c0-1.36-1.1-2.45-2.45-2.45c-1.36,0-2.45,1.1-2.45,2.45C36.96,12.21,38.06,13.31,39.42,13.31z"/>
	<path fill="none" stroke="#737B7D" stroke-width="1.5" stroke-linecap="round" stroke-linejoin="round" d="M45.47,13.31
		c-0.11,0.25-0.14,0.52-0.09,0.79s0.17,0.51,0.36,0.7l0.05,0.05c0.15,0.15,0.27,0.33,0.36,0.53c0.08,0.2,0.12,0.41,0.12,0.63
		c0,0.22-0.04,0.43-0.12,0.63c-0.08,0.2-0.2,0.38-0.36,0.53c-0.15,0.15-0.33,0.27-0.53,0.36c-0.2,0.08-0.41,0.12-0.63,0.12
		S44.2,17.61,44,17.53s-0.38-0.2-0.53-0.36l-0.05-0.05c-0.19-0.19-0.44-0.32-0.7-0.36c-0.27-0.05-0.54-0.02-0.79,0.09
		c-0.24,0.1-0.45,0.28-0.59,0.5c-0.15,0.22-0.22,0.48-0.22,0.74v0.14c0,0.43-0.17,0.85-0.48,1.16s-0.72,0.48-1.16,0.48
		c-0.43,0-0.85-0.17-1.16-0.48s-0.48-0.72-0.48-1.16v-0.07c-0.01-0.27-0.09-0.53-0.25-0.75s-0.38-0.39-0.63-0.48
		c-0.25-0.11-0.52-0.14-0.79-0.09s-0.51,0.17-0.7,0.36l-0.05,0.05c-0.15,0.15-0.33,0.27-0.53,0.36c-0.2,0.08-0.41,0.12-0.63,0.12
		s-0.43-0.04-0.63-0.12s-0.38-0.2-0.53-0.36c-0.15-0.15-0.27-0.33-0.36-0.53c-0.08-0.2-0.12-0.41-0.12-0.63s0.04-0.43,0.12-0.63
		c0.08-0.2,0.2-0.38,0.36-0.53l0.05-0.05c0.19-0.19,0.32-0.44,0.36-0.7c0.05-0.27,0.02-0.54-0.09-0.79c-0.1-0.24-0.28-0.45-0.5-0.59
		c-0.22-0.15-0.48-0.22-0.74-0.22h-0.14c-0.43,0-0.85-0.17-1.16-0.48c-0.31-0.31-0.48-0.72-0.48-1.16c0-0.43,0.17-0.85,0.48-1.16
		c0.31-0.31,0.72-0.48,1.16-0.48h0.07c0.27-0.01,0.53-0.09,0.75-0.25s0.39-0.38,0.48-0.63c0.11-0.25,0.14-0.52,0.09-0.79
		s-0.17-0.51-0.36-0.7l-0.05-0.05c-0.15-0.15-0.27-0.33-0.36-0.53c-0.08-0.2-0.12-0.41-0.12-0.63c0-0.22,0.04-0.43,0.12-0.63
		c0.08-0.2,0.2-0.38,0.36-0.53c0.15-0.15,0.33-0.27,0.53-0.36c0.2-0.08,0.41-0.12,0.63-0.12s0.43,0.04,0.63,0.12s0.38,0.2,0.53,0.36
		l0.05,0.05c0.19,0.19,0.44,0.32,0.7,0.36c0.29,0.03,0.56,0,0.81-0.11h0.07c0.24-0.1,0.45-0.28,0.59-0.5
		c0.15-0.22,0.22-0.48,0.22-0.74V3.49c0-0.43,0.17-0.85,0.48-1.16s0.72-0.48,1.16-0.48c0.43,0,0.85,0.17,1.16,0.48
		s0.48,0.72,0.48,1.16v0.07c0,0.26,0.08,0.52,0.22,0.74c0.15,0.22,0.35,0.39,0.59,0.5c0.25,0.11,0.52,0.14,0.79,0.09
		c0.27-0.05,0.51-0.17,0.7-0.36l0.05-0.05c0.15-0.15,0.33-0.27,0.53-0.36C44.14,4.04,44.35,4,44.57,4S45,4.04,45.2,4.12
		s0.38,0.2,0.53,0.36c0.15,0.15,0.27,0.33,0.36,0.53c0.08,0.2,0.12,0.41,0.12,0.63c0,0.22-0.04,0.43-0.12,0.63
		c-0.08,0.2-0.2,0.38-0.36,0.53l-0.05,0.05c-0.19,0.19-0.32,0.44-0.36,0.7c-0.05,0.27-0.02,0.54,0.09,0.79V8.4
		c0.1,0.24,0.28,0.45,0.5,0.59c0.22,0.15,0.48,0.22,0.74,0.22h0.14c0.43,0,0.85,0.17,1.16,0.48c0.31,0.31,0.48,0.72,0.48,1.16
		c0,0.43-0.17,0.85-0.48,1.16c-0.31,0.31-0.72,0.48-1.16,0.48h-0.07c-0.26,0-0.52,0.08-0.74,0.22
		C45.75,12.86,45.57,13.06,45.47,13.31L45.47,13.31z"/>
</g>
<path d="M67.76,17.69c0.37,0.37,0.99,0.37,1.36,0l8.04-8c0.37-0.41,0.37-1.03,0-1.4l-0.95-0.95c-0.37-0.37-0.99-0.37-1.4,0
	l-6.39,6.35l-6.35-6.35c-0.41-0.37-1.03-0.37-1.4,0l-0.95,0.95c-0.37,0.37-0.37,0.99,0,1.4L67.76,17.69z"/>
<path fill="#FFFFFF" d="M5.287,243.667l0.977,0.977l12.07,12.07l12.07-12.07l0.977-0.977l1.954,1.954l-0.977,0.977l-12.07,12.07
	l12.07,12.07l0.977,0.977l-1.954,1.954l-0.977-0.977l-12.07-12.07l-12.07,12.07l-0.977,0.977l-1.954-1.954l0.977-0.977l12.07-12.07
	l-12.07-12.07l-0.977-0.977L5.287,243.667z"/>
<path fill="#7C4DFF" d="M3.833,113.161l0.999,0.999l9.004,9.004l9.004-9.004l0.999-0.999l1.997,1.997l-0.999,0.999l-9.004,9.004
	l9.004,9.004l0.999,0.999l-1.997,1.997l-0.999-0.999l-9.004-9.004l-9.004,9.004l-0.999,0.999l-1.997-1.997l0.999-0.999l9.004-9.004
	l-9.004-9.004l-0.999-0.999L3.833,113.161z"/>
</svg>
